<svg width="23" height="30" viewBox="0 0 23 30" fill="none" xmlns="http://www.w3.org/2000/svg">
<path d="M11.5 0.138672C14.5379 0.142129 17.4505 1.35093 19.5986 3.49902C21.7467 5.64712 22.9546 8.55982 22.958 11.5977C22.958 15.6862 21.0634 20.0193 17.4893 24.1299C15.8842 25.9868 14.0775 27.6598 12.1025 29.1172C11.9274 29.2398 11.7186 29.3057 11.5049 29.3057C11.2911 29.3056 11.0823 29.2398 10.9072 29.1172C8.92872 27.6604 7.11905 25.9873 5.51074 24.1299C1.93136 20.0193 0.0420424 15.6862 0.0419922 11.5977C0.0454384 8.5598 1.2533 5.64713 3.40137 3.49902C5.54947 1.35092 8.46212 0.142118 11.5 0.138672ZM11.5 6.38965C10.47 6.38965 9.46291 6.69439 8.60645 7.2666C7.74994 7.8389 7.08268 8.6528 6.68848 9.60449C6.29431 10.5561 6.19072 11.6031 6.3916 12.6133C6.59257 13.6236 7.08898 14.5519 7.81738 15.2803C8.54567 16.0085 9.47328 16.5051 10.4834 16.7061C11.4937 16.907 12.5415 16.8034 13.4932 16.4092C14.4447 16.015 15.2578 15.3475 15.8301 14.4912C16.4023 13.6347 16.708 12.6277 16.708 11.5977C16.708 10.2164 16.1593 8.89178 15.1826 7.91504C14.2059 6.9383 12.8813 6.38966 11.5 6.38965Z" fill="#E8593B"/>
</svg>
