<svg xmlns="http://www.w3.org/2000/svg" width="11" height="10" viewBox="0 0 11 10" fill="none">
  <path d="M9.28569 6.17642L5.77589 9.58881C5.73967 9.62406 5.69666 9.65202 5.64931 9.67111C5.60197 9.69019 5.55122 9.70001 5.49998 9.70001C5.44873 9.70001 5.39798 9.69019 5.35064 9.67111C5.30329 9.65202 5.26028 9.62406 5.22407 9.58881L1.71426 6.17642C1.64109 6.10527 1.59998 6.00878 1.59998 5.90817C1.59998 5.80755 1.64109 5.71106 1.71426 5.63991C1.78744 5.56877 1.88668 5.5288 1.99017 5.5288C2.09366 5.5288 2.1929 5.56877 2.26608 5.63991L5.11 8.40537V0.97916C5.11 0.878602 5.15108 0.782163 5.22422 0.711058C5.29735 0.639953 5.39655 0.600006 5.49998 0.600006C5.6034 0.600006 5.7026 0.639953 5.77573 0.711058C5.84887 0.782163 5.88995 0.878602 5.88995 0.97916V8.40537L8.73387 5.63991C8.80705 5.56877 8.90629 5.5288 9.00978 5.5288C9.11327 5.5288 9.21251 5.56877 9.28569 5.63991C9.35887 5.71106 9.39998 5.80755 9.39998 5.90817C9.39998 6.00878 9.35887 6.10527 9.28569 6.17642Z" fill="white" stroke="white" stroke-width="0.5"/>
</svg>