<svg width="20" height="20" viewBox="0 0 20 20" fill="none" xmlns="http://www.w3.org/2000/svg">
<path fill-rule="evenodd" clip-rule="evenodd" d="M9.73917 11.6354C9.93009 11.8097 10.2224 11.8097 10.4133 11.6354L14.0784 8.29032C14.2693 8.11607 14.5616 8.11607 14.7525 8.29033L14.88 8.40667C15.0973 8.60495 15.0972 8.94701 14.88 9.14528L10.4131 13.2221C10.2222 13.3964 9.92994 13.3964 9.73902 13.2221L9.20699 12.7365C9.20695 12.7365 9.20695 12.7364 9.20699 12.7364V12.7364C9.20702 12.7364 9.20702 12.7363 9.20699 12.7363L5.1102 8.99713C4.89295 8.79885 4.89295 8.4568 5.1102 8.25852L5.23767 8.14218C5.4286 7.96792 5.72088 7.96792 5.9118 8.14218L9.73917 11.6354Z" fill="white"/>
<circle cx="10" cy="10" r="9.41177" transform="rotate(-90 10 10)" stroke="white" stroke-width="1.17647"/>
</svg>
