<svg width="370" height="117" viewBox="0 0 370 117" fill="none" xmlns="http://www.w3.org/2000/svg">
<path d="M185 0.145874C268.889 0.145874 339.736 17.7257 362.406 41.8226H367.431V48.6683C369.032 51.6674 369.906 54.7433 369.992 57.8793H370V58.3929L369.996 58.7699C369.932 61.9532 369.055 65.0749 367.431 68.1176V74.6224H362.72C340.443 98.844 269.57 116.566 185.514 116.638V116.64H185L184.986 116.639C184.948 116.639 184.91 116.639 184.872 116.639H184.871V116.64L183.712 116.636C82.1322 116.418 0.000208654 90.4267 0 58.3929C0.000412574 26.224 82.8276 0.145874 185 0.145874ZM184.486 100.682C177.035 100.682 169.749 100.852 162.691 101.173C168.595 110.517 176.385 116.113 184.844 116.125C184.859 116.125 184.875 116.125 184.891 116.125C184.927 116.125 184.964 116.124 185 116.123V100.683C184.829 100.683 184.658 100.682 184.486 100.682ZM185.514 116.114C193.725 115.839 201.273 110.304 207.03 101.207C200.064 100.879 192.871 100.7 185.514 100.685V116.114ZM162.102 101.201C153.679 101.595 145.585 102.209 137.93 103.014C149.472 110.426 163.961 115.166 179.856 115.995C173.055 114.228 166.922 108.925 162.102 101.201ZM207.618 101.235C202.801 108.94 196.678 114.231 189.886 115.995C205.732 115.168 220.18 110.455 231.704 103.082C224.08 102.267 216.015 101.642 207.618 101.235ZM137.117 103.098C127.871 104.091 119.274 105.367 111.519 106.877C129.522 111.863 150.478 115.069 173.027 115.907C159.49 114.216 147.173 109.676 137.117 103.098ZM232.513 103.17C222.481 109.707 210.21 114.22 196.728 115.906C219.14 115.072 239.979 111.9 257.908 106.965C250.218 105.452 241.689 104.173 232.513 103.17ZM300.507 88.8832C290.231 96.063 276.413 102.213 260.094 106.885C263.885 107.667 267.461 108.506 270.797 109.398C270.382 109.466 269.967 109.533 269.551 109.6C268.435 109.31 267.293 109.025 266.126 108.746C263.85 108.204 261.479 107.685 259.02 107.189C244.711 111.202 228.522 114.086 211.143 115.548C251.724 113.739 288.053 107.782 315.66 99.0902C317.519 98.5048 319.338 97.9048 321.116 97.2953C315.487 94.2578 308.55 91.4333 300.507 88.8832ZM0.52832 59.1234C0.831724 66.667 5.82873 73.9422 14.8447 80.6537C24.142 87.5745 37.6288 93.8287 54.3398 99.0902C81.8165 107.741 117.933 113.683 158.284 115.522C140.894 114.04 124.703 111.134 110.401 107.098C107.781 107.621 105.261 108.171 102.847 108.746C101.819 108.992 100.811 109.244 99.8232 109.498C99.4054 109.431 98.9883 109.363 98.5723 109.294C101.927 108.406 105.521 107.571 109.329 106.793C94.7406 102.591 82.1647 97.2053 72.3486 90.9584C65.3598 93.4846 59.3933 96.2391 54.6143 99.1693C54.3973 99.1019 54.1807 99.0349 53.9648 98.9672C58.7601 95.9781 64.7662 93.1764 71.8066 90.6107C64.4344 85.8455 58.6601 80.5882 54.8115 74.9769C54.7712 74.9771 54.7308 74.9789 54.6904 74.9789C52.061 74.9789 49.5873 74.5644 47.2764 73.7279L47.2646 73.723C44.9963 72.8588 42.9891 71.6663 41.251 70.1439L41.2461 70.139C39.5404 68.6151 38.1887 66.8388 37.1973 64.8129L37.1943 64.806L37.1904 64.7992C36.2569 62.793 35.7786 60.6547 35.75 58.3929H9.73828C9.77036 59.7673 10.0538 61.0611 10.5938 62.2806L10.8213 62.7513C11.3754 63.8314 12.1026 64.7957 13.0068 65.6459L13.417 66.0033C14.3884 66.8125 15.4777 67.4631 16.6885 67.9545H16.6895C18.0966 68.5122 19.6003 68.7933 21.2061 68.7933C22.8368 68.7933 24.4391 68.4854 26.0176 67.8646C27.6008 67.2124 29.0086 66.3368 30.2451 65.2377L30.7744 64.767L31.2881 65.2552L34.7168 68.515L35.3174 69.0853L34.7051 69.6429C33.5119 70.7307 32.1525 71.6734 30.6318 72.475L30.6328 72.476C29.1421 73.279 27.5668 73.8955 25.9092 74.3275L25.9102 74.3285C24.2778 74.7625 22.6111 74.9789 20.9121 74.9789C18.3144 74.9789 15.8876 74.5637 13.6387 73.725L13.6299 73.722C11.3931 72.8569 9.41851 71.6628 7.71289 70.139L7.70703 70.1342C6.0336 68.6086 4.7156 66.83 3.75781 64.8031L3.75586 64.7992C2.82227 62.793 2.34402 60.6548 2.31543 58.3929H0.513672L0.52832 59.1234ZM254.503 79.0482C250.038 88.2972 242.636 96.4212 233.183 102.729C242.533 103.766 251.206 105.094 258.997 106.662C266.763 104.48 273.971 101.965 280.509 99.1644C287.879 96.0076 294.389 92.4908 299.887 88.6888C298.13 88.1388 296.322 87.5999 294.463 87.0765C282.884 83.8163 269.393 81.0931 254.503 79.0482ZM115.879 80.3295C104.372 82.1828 93.8335 84.4567 84.5293 87.0765C80.4227 88.2328 76.5592 89.4557 72.9609 90.7386C77.7548 93.7603 83.2064 96.5829 89.2334 99.1644C95.6825 101.927 102.783 104.412 110.429 106.574C118.287 105.008 127.029 103.685 136.45 102.657C127.487 96.6528 120.376 89.0129 115.879 80.3295ZM216.947 75.5531C215.233 85.2787 212.082 93.9187 207.925 100.737C216.459 101.156 224.65 101.801 232.385 102.642C241.96 96.3663 249.454 88.2354 253.964 78.973C242.384 77.3991 229.966 76.2382 216.947 75.5531ZM152.898 76.1176C139.978 77.0397 127.735 78.4397 116.42 80.2445C120.964 88.9451 128.165 96.5943 137.248 102.571C145.014 101.74 153.235 101.108 161.796 100.702C157.73 94.0214 154.631 85.5961 152.898 76.1176ZM189.496 74.8373C188.164 74.8373 186.837 74.8421 185.514 74.8519V100.171L187.471 100.177C194.255 100.218 200.894 100.401 207.339 100.709C207.608 100.273 207.877 99.8311 208.138 99.3793C211.93 92.814 214.814 84.6557 216.43 75.5248C209.756 75.1805 202.927 74.9633 195.973 74.8793C195.257 74.9442 194.544 74.9789 193.833 74.9789C192.971 74.9789 192.128 74.9326 191.303 74.8431C190.701 74.8411 190.099 74.8373 189.496 74.8373ZM185 74.8578C174.137 74.9488 163.568 75.3687 153.414 76.0824C155.047 84.9879 157.892 92.9479 161.606 99.3793C161.86 99.8183 162.119 100.249 162.381 100.673C169.536 100.343 176.926 100.168 184.486 100.168L185 100.169V74.8578ZM331.545 58.3929C331.515 60.6589 331.02 62.8008 330.052 64.809L330.051 64.808C329.091 66.8375 327.738 68.6146 326 70.1381L326.001 70.139C324.291 71.6663 322.281 72.8607 319.979 73.725L319.974 73.726C318.403 74.303 316.748 74.6783 315.011 74.8568C311.716 79.6999 306.989 84.2823 301.036 88.5121C309.139 91.1002 316.124 93.9722 321.777 97.0687C335.679 92.2526 347.021 86.7088 355.155 80.6537C357.794 78.6893 360.088 76.676 362.021 74.6224H360.607L360.376 74.3324L347.625 58.3929H343.479V74.6224H336.157V58.3929H331.545ZM73.6299 58.3929C73.6002 60.6567 73.1037 62.7957 72.1377 64.8021L72.1387 64.8031C71.1787 66.8346 69.8242 68.6133 68.085 70.1381L68.0859 70.139C66.3764 71.6663 64.3657 72.8607 62.0635 73.725L62.0586 73.726C59.993 74.4848 57.7811 74.8953 55.4287 74.9662C56.8237 76.9623 58.468 78.9171 60.3496 80.8226C63.6679 84.183 67.7175 87.3845 72.415 90.392C84.2377 86.1421 98.915 82.5522 115.635 79.851C114.774 78.1461 114.015 76.4017 113.361 74.6224H109.935L109.933 73.8529L109.9 58.3929H106.929L100.065 70.9613L99.8457 71.3627H95.2598L95.04 70.9633L88.1162 58.3929H85.1221V74.6224H78.2422V58.3929H73.6299ZM293.279 58.3929C293.25 60.6589 292.753 62.8008 291.785 64.809L291.784 64.808C290.824 66.8375 289.471 68.6146 287.733 70.1381L287.734 70.139C286.025 71.6663 284.014 72.8607 281.712 73.725L281.707 73.726C279.427 74.5638 276.968 74.9789 274.339 74.9789C271.71 74.9789 269.237 74.5643 266.926 73.7279L266.913 73.723C264.645 72.8588 262.638 71.6662 260.9 70.1439L260.895 70.139C259.957 69.3013 259.127 68.3868 258.404 67.3969C257.651 71.2565 256.411 74.9905 254.734 78.5609C272.146 80.9596 287.647 84.2896 300.42 88.3187C303.822 85.9257 306.826 83.4216 309.393 80.8226C311.29 78.9007 312.947 76.9285 314.35 74.9144C313.777 74.9563 313.196 74.9789 312.605 74.9789C309.976 74.9789 307.502 74.5644 305.191 73.7279L305.18 73.723C302.911 72.8588 300.905 71.6663 299.167 70.1439L299.161 70.139C297.455 68.6151 296.104 66.8387 295.112 64.8129L295.106 64.7992C294.173 62.793 293.695 60.6548 293.666 58.3929H293.279ZM116.813 74.6224H113.914C114.565 76.3715 115.319 78.0872 116.172 79.764C127.533 77.9462 139.828 76.5375 152.805 75.6097C151.933 70.6814 151.43 65.4742 151.352 60.0844L151.346 59.3842L150.554 58.3929H146.407V74.6224H139.085V58.3929H131.626V74.6224H124.305V58.3929H116.813V74.6224ZM218.403 58.5863L218.393 60.0844C218.317 65.2676 217.845 70.2815 217.034 75.0414C230.105 75.7309 242.573 76.9018 254.196 78.4867C255.963 74.7567 257.248 70.8477 257.992 66.8051C257.569 66.1701 257.186 65.5064 256.847 64.8129L256.843 64.806L256.84 64.7992C255.906 62.793 255.428 60.6548 255.399 58.3929H249.832C250.67 59.0407 251.368 59.8147 251.918 60.7152C252.668 61.9121 253.016 63.3904 253.016 65.099C253.016 67.1124 252.406 68.8941 251.179 70.4076L251.174 70.4135C249.963 71.8738 248.309 72.9842 246.253 73.766C244.221 74.5509 241.904 74.9349 239.314 74.9349C237.458 74.9349 235.649 74.7194 233.89 74.2875L233.877 74.2845C232.131 73.8254 230.482 73.2121 228.931 72.4437L228.925 72.4398C227.407 71.6712 226.035 70.7767 224.812 69.7543L224.314 69.3383L224.638 68.7777L227.136 64.4457L227.595 63.6517L228.298 64.2396C229.433 65.188 230.628 65.9906 231.884 66.6488H231.883C233.174 67.3086 234.459 67.8073 235.737 68.1488L236.228 68.2689C237.361 68.531 238.421 68.6595 239.412 68.6595C241.362 68.6595 242.761 68.3127 243.697 67.7103L243.706 67.7054C244.638 67.123 245.057 66.3649 245.058 65.3676C245.058 64.513 244.786 63.8962 244.281 63.4359L244.268 63.4242L244.254 63.4105C243.697 62.8526 242.919 62.3693 241.884 61.9808L241.877 61.9779C240.836 61.5752 239.66 61.212 238.348 60.891L238.343 60.89C237.022 60.5589 235.686 60.1829 234.334 59.7621L234.324 59.7592L234.313 59.7552C233.203 59.3757 232.158 58.9211 231.179 58.3929H218.401C218.401 58.4573 218.403 58.5219 218.403 58.5863ZM170.358 74.6224H163.535L163.304 74.3324L151.864 60.0316C151.941 65.4311 152.446 70.6439 153.321 75.5726C163.505 74.8555 174.105 74.4353 185 74.3441V73.0961C183.347 72.3101 181.843 71.3268 180.492 70.1439L180.486 70.139C178.779 68.6133 177.442 66.8335 176.482 64.8031L176.48 64.7992C175.547 62.793 175.069 60.6548 175.04 58.3929H170.358V74.6224ZM207.927 70.5004L207.599 70.7308C206.404 71.5707 205.033 72.3098 203.489 72.9525C202.055 73.5626 200.561 74.0468 199.01 74.4086C204.947 74.5142 210.79 74.7169 216.518 75.0131C217.408 69.8095 217.89 64.2965 217.89 58.5863C217.89 58.5219 217.888 58.4573 217.888 58.3929H207.927V70.5004ZM185.514 74.3402C186.478 74.3331 187.444 74.3285 188.412 74.3265C187.749 74.1586 187.1 73.9593 186.465 73.726L186.452 73.722C186.134 73.5991 185.822 73.4687 185.514 73.3324V74.3402ZM266.289 72.6351C266.319 72.6483 266.349 72.6631 266.379 72.6761C266.644 72.7902 266.914 72.8991 267.188 73.0033C267.812 73.2294 268.45 73.4229 269.101 73.5853C268.45 73.4226 267.812 73.2284 267.188 73.0023C266.883 72.8862 266.584 72.7633 266.289 72.6351ZM234.632 73.6674C234.642 73.6695 234.651 73.6711 234.661 73.6732C234.465 73.6308 234.268 73.5864 234.073 73.5385L234.632 73.6674ZM304.556 72.6351C304.586 72.6483 304.615 72.6631 304.646 72.6761C304.911 72.7902 305.181 72.8991 305.454 73.0033C305.593 73.0535 305.732 73.1018 305.872 73.1488L305.454 73.0023C305.149 72.8862 304.85 72.7633 304.556 72.6351ZM321.059 72.4398C320.621 72.6408 320.171 72.8285 319.708 73.0023C319.571 73.0526 319.433 73.1017 319.295 73.1488L319.708 73.0033C320.171 72.8294 320.621 72.6408 321.059 72.4398ZM45.1875 71.934C45.6854 72.2009 46.1999 72.4482 46.7305 72.6761C46.9959 72.7901 47.2655 72.8991 47.5391 73.0033C47.6748 73.0524 47.8113 73.0997 47.9482 73.1459C47.8112 73.0997 47.6749 73.0515 47.5391 73.0023C46.6609 72.6678 45.8252 72.2822 45.0312 71.847C45.0835 71.8757 45.1349 71.9058 45.1875 71.934ZM12.6289 72.4564C12.7886 72.5312 12.9494 72.6051 13.1123 72.6761C13.3735 72.7901 13.6389 72.8991 13.9082 73.0033C14.0393 73.0522 14.1713 73.099 14.3037 73.1449C14.1712 73.0989 14.0394 73.0512 13.9082 73.0023C13.471 72.8332 13.0447 72.651 12.6289 72.4564ZM185.849 72.6371C185.877 72.6497 185.905 72.6637 185.934 72.6761C186.195 72.7901 186.461 72.8991 186.73 73.0033C186.862 73.0515 186.994 73.0977 187.126 73.1429C186.994 73.0976 186.862 73.0505 186.73 73.0023C186.432 72.8868 186.138 72.7646 185.849 72.6371ZM282.343 72.639C282.048 72.7658 281.748 72.8874 281.441 73.0023C281.313 73.0496 281.184 73.0956 281.054 73.14L281.441 73.0033C281.719 72.8992 281.992 72.79 282.26 72.6761C282.288 72.6643 282.315 72.651 282.343 72.639ZM62.6855 72.6429C62.3931 72.7685 62.0954 72.8884 61.792 73.0023V73.0033C62.0696 72.8991 62.3429 72.7902 62.6113 72.6761C62.6363 72.6656 62.6607 72.6537 62.6855 72.6429ZM321.099 72.4203C321.172 72.3864 321.246 72.3543 321.318 72.3197C321.358 72.3008 321.396 72.2793 321.436 72.2601C321.324 72.3143 321.212 72.368 321.099 72.4203ZM12.3408 72.3197C12.3915 72.3445 12.4431 72.3676 12.4941 72.392C12.3893 72.3419 12.2851 72.2913 12.1816 72.2396C12.2347 72.2662 12.2874 72.2936 12.3408 72.3197ZM264.667 71.8402C264.988 72.0166 265.316 72.1842 265.651 72.3441C265.316 72.1843 264.988 72.0165 264.667 71.8402ZM302.934 71.8402C303.255 72.0166 303.583 72.1842 303.918 72.3441C303.583 72.1843 303.255 72.0165 302.934 71.8402ZM283.245 72.225C283.338 72.1795 283.429 72.1321 283.521 72.0853C283.429 72.1321 283.338 72.1795 283.245 72.225ZM184.971 72.226C184.98 72.2308 184.99 72.2348 185 72.2396V72.2386C184.99 72.2338 184.98 72.2298 184.971 72.225C184.888 72.1835 184.806 72.1406 184.724 72.098C184.806 72.1406 184.888 72.1844 184.971 72.226ZM64.4443 71.7816C64.1721 71.933 63.8938 72.0777 63.6104 72.2172C63.6696 72.188 63.7293 72.1599 63.7881 72.1302C64.0104 72.0179 64.229 71.9014 64.4443 71.7816ZM11.5938 71.934C11.6189 71.9477 11.6447 71.9604 11.6699 71.974C11.5923 71.9322 11.5153 71.8898 11.4385 71.847C11.4902 71.8759 11.5416 71.9055 11.5938 71.934ZM65.2607 71.2992C64.9988 71.4634 64.7312 71.6216 64.458 71.7738C64.4846 71.759 64.5116 71.7448 64.5381 71.7299C64.7837 71.5914 65.0243 71.4474 65.2607 71.2992ZM263.744 71.3002C263.981 71.4482 264.221 71.5916 264.466 71.7299C264.485 71.7405 264.504 71.7506 264.522 71.7611C264.258 71.6131 263.999 71.4595 263.744 71.3002ZM302.011 71.3002C302.247 71.4482 302.488 71.5916 302.732 71.7299C302.751 71.7405 302.77 71.7506 302.789 71.7611C302.525 71.6131 302.265 71.4595 302.011 71.3002ZM322.394 71.7611C322.413 71.7502 322.434 71.7409 322.453 71.7299C322.501 71.703 322.547 71.6731 322.594 71.6459C322.527 71.6842 322.461 71.7235 322.394 71.7611ZM184.043 71.7299C184.054 71.7363 184.066 71.742 184.077 71.7484C183.973 71.6895 183.87 71.6295 183.768 71.5687C183.859 71.6228 183.95 71.6771 184.043 71.7299ZM284.909 71.3002C284.662 71.4551 284.409 71.6033 284.152 71.7474C284.164 71.7412 284.175 71.7361 284.187 71.7299C284.432 71.5914 284.673 71.4483 284.909 71.3002ZM11.2295 71.7299C11.2397 71.7357 11.2505 71.7406 11.2607 71.7465C11.1779 71.6991 11.0955 71.6514 11.0137 71.6029C11.0854 71.6454 11.157 71.6882 11.2295 71.7299ZM9.49902 70.6C9.60925 70.6814 9.72073 70.7612 9.83301 70.8402L9.5 70.6C9.38964 70.5185 9.28019 70.4359 9.17188 70.3519L9.49902 70.6ZM43.0566 70.6C43.0956 70.6282 43.1356 70.655 43.1748 70.683C43.0228 70.5746 42.872 70.4648 42.7236 70.3519L43.0566 70.6ZM250.83 69.597C250.75 69.7067 250.667 69.8145 250.58 69.9213C250.482 70.0399 250.379 70.1551 250.273 70.2689C250.304 70.2354 250.337 70.2033 250.367 70.1693L250.58 69.9222C250.667 69.8153 250.75 69.7069 250.83 69.597ZM49.8467 58.5863C49.8467 62.0119 50.5545 65.3748 51.918 68.6498C52.8273 68.8639 53.7672 68.972 54.7393 68.972C56.3104 68.972 57.7795 68.6923 59.1523 68.1361L59.1572 68.1332C60.5711 67.5728 61.7907 66.8073 62.8242 65.8392C63.8635 64.8361 64.6712 63.6828 65.251 62.3754L65.2568 62.3617C65.8313 61.131 66.1313 59.8107 66.1592 58.3929H49.8496C49.8491 58.4573 49.8467 58.5219 49.8467 58.5863ZM185.514 65.5131C185.619 65.6199 185.725 65.7268 185.836 65.8304C186.904 66.8027 188.142 67.57 189.557 68.1312L190.102 68.3275C191.386 68.7557 192.759 68.972 194.225 68.972C195.728 68.972 197.291 68.6926 198.917 68.1224L198.921 68.1215C199.775 67.8276 200.581 67.4799 201.34 67.0824V58.3929H185.514V65.5131ZM262.821 58.3929C262.849 59.8106 263.148 61.131 263.723 62.3617C264.334 63.6705 265.174 64.8259 266.246 65.8314H266.245C267.315 66.8055 268.539 67.5727 269.92 68.1332H269.921C271.33 68.6916 272.817 68.972 274.388 68.972C275.959 68.972 277.428 68.6923 278.801 68.1361L278.807 68.1332C280.22 67.5727 281.44 66.8073 282.474 65.8392C283.513 64.8361 284.321 63.6827 284.9 62.3754L284.906 62.3617C285.481 61.131 285.78 59.8106 285.808 58.3929H262.821ZM301.088 58.3929C301.116 59.8106 301.415 61.131 301.989 62.3617C302.6 63.67 303.439 64.8252 304.511 65.8304C305.581 66.805 306.805 67.5726 308.187 68.1332C309.595 68.6916 311.083 68.972 312.654 68.972C314.225 68.972 315.695 68.6924 317.067 68.1361L317.072 68.1332C317.476 67.9732 317.862 67.7933 318.234 67.6C319.327 64.6571 319.895 61.6472 319.896 58.5863C319.896 58.5219 319.893 58.4573 319.893 58.3929H301.088ZM43.1729 58.3929C43.2006 59.8107 43.4998 61.131 44.0742 62.3617C44.6849 63.67 45.524 64.8252 46.5957 65.8304C47.6663 66.805 48.8899 67.5726 50.2715 68.1332C50.6086 68.2668 50.9507 68.383 51.2969 68.4847C50.1023 65.5065 49.4359 62.4513 49.3438 59.3363L49.333 58.5863C49.333 58.5219 49.3354 58.4573 49.3359 58.3929H43.1729ZM232.53 67.8148C232.627 67.8585 232.725 67.8988 232.822 67.9408C232.704 67.8898 232.586 67.8391 232.468 67.7855L232.53 67.8148ZM320.409 58.5863L320.398 59.3363C320.319 62.01 319.816 64.6393 318.92 67.2142C319.58 66.813 320.188 66.3567 320.74 65.8392C321.779 64.8362 322.586 63.6826 323.166 62.3754L323.17 62.3685L323.173 62.3617C323.747 61.131 324.046 59.8106 324.074 58.3929H320.406C320.407 58.4573 320.409 58.5219 320.409 58.5863ZM367.431 66.9867C368.788 64.1716 369.486 61.3015 369.486 58.3929H367.431V66.9867ZM184.499 65.5599C184.626 65.704 184.758 65.8448 184.894 65.9838C184.623 65.7057 184.368 65.418 184.128 65.1195L184.499 65.5599ZM182.461 58.3929C182.487 59.8164 182.774 61.1415 183.321 62.3754C183.762 63.3156 184.322 64.1753 185 64.9584V58.3929H182.461ZM291.091 64.474L291.252 64.1273C291.253 64.1255 291.253 64.1233 291.254 64.1215C291.201 64.2393 291.147 64.3571 291.091 64.474ZM329.357 64.474L329.519 64.1273C329.519 64.1255 329.52 64.1233 329.521 64.1215C329.468 64.2393 329.414 64.3571 329.357 64.474ZM360.207 63.3441V58.3929H356.244L360.207 63.3441ZM163.135 63.3431V58.3929H159.172L163.135 63.3431ZM97.5732 62.2191L99.6934 58.3929H95.4346L97.5732 62.2191ZM237.548 59.8881C237.876 59.9757 238.204 60.0611 238.53 60.1429V60.142C238.204 60.0601 237.876 59.9755 237.548 59.8881ZM300.326 58.7758C300.33 58.8525 300.335 58.929 300.341 59.0052C300.328 58.8308 300.32 58.655 300.315 58.4779L300.326 58.7758ZM262.061 58.7758C262.064 58.844 262.069 58.912 262.073 58.9799C262.062 58.8137 262.053 58.6464 262.049 58.4779L262.061 58.7758ZM51.625 47.9027C51.1475 48.0253 50.6796 48.1747 50.2227 48.3558L50.2158 48.3588C48.8342 48.8906 47.6108 49.6444 46.54 50.6205C45.4723 51.5939 44.6353 52.7318 44.0254 54.0385C43.4937 55.2149 43.2107 56.4927 43.1748 57.8793H49.3428C49.4376 54.475 50.2182 51.1419 51.625 47.9027ZM185 51.4642C184.32 52.2329 183.759 53.0865 183.317 54.0297C182.783 55.2082 182.499 56.4895 182.463 57.8793H185V51.4642ZM216.405 41.5072C210.805 41.7955 205.095 41.9937 199.294 42.1C200.889 42.4663 202.409 42.9769 203.851 43.6342C205.344 44.3148 206.677 45.1383 207.845 46.1088L208.463 46.6234L207.923 47.2201L204.641 50.8363L204.135 51.3949L203.565 50.9017C202.338 49.8385 200.888 49.0062 199.208 48.4105L199.192 48.4047C197.546 47.7819 195.875 47.473 194.176 47.473C192.501 47.473 190.965 47.7555 189.562 48.3119C188.142 48.8745 186.9 49.6442 185.829 50.6205C185.721 50.7189 185.617 50.8205 185.514 50.9222V57.8793H201.34V57.809H207.927V57.8793H217.884C217.844 52.1825 217.33 46.6875 216.405 41.5072ZM312.654 47.517C311.049 47.517 309.546 47.7982 308.139 48.3558L308.131 48.3588C306.749 48.8906 305.526 49.6444 304.455 50.6205C303.39 51.5918 302.553 52.7265 301.943 54.0297C301.409 55.2082 301.125 56.4895 301.089 57.8793H319.885C319.796 54.7604 319.119 51.6959 317.896 48.7035C317.633 48.5816 317.363 48.4656 317.085 48.3607L317.076 48.3578L317.067 48.3539C315.695 47.7976 314.226 47.517 312.654 47.517ZM367.431 57.8793H369.476C369.398 55.1466 368.708 52.4491 367.431 49.8002V57.8793ZM321.471 19.6117C315.721 22.7265 308.621 25.6116 300.39 28.2064C306.342 32.3498 311.112 36.8379 314.501 41.5844C316.425 41.7379 318.25 42.1298 319.974 42.7631H319.973C322.274 43.5966 324.285 44.7743 325.994 46.3002H325.995C327.736 47.8248 329.09 49.6053 330.051 51.6371C331.008 53.5658 331.503 55.6499 331.544 57.8793H336.157V41.8226H342.98L343.212 42.1117L355.833 57.8793H360.207V41.8226H361.693C359.83 39.8879 357.647 37.9881 355.155 36.1332C346.961 30.0336 335.513 24.4525 321.471 19.6117ZM343.479 57.8793H347.214L343.479 53.2094V57.8793ZM318.588 49.0482C319.698 51.9261 320.316 54.8751 320.399 57.8793H324.072C324.034 56.4954 323.736 55.2197 323.176 54.0443L323.166 54.0248C322.587 52.7195 321.783 51.5836 320.748 50.6127C320.102 50.0059 319.382 49.4839 318.588 49.0482ZM299.771 28.4008C287.05 32.3608 271.678 35.6334 254.441 37.9945C256.178 41.5671 257.475 45.3084 258.283 49.1781C259.035 48.1288 259.907 47.1692 260.9 46.3002L261.229 46.0189C262.893 44.6304 264.792 43.5456 266.922 42.7631L266.926 42.7621C269.237 41.9256 271.71 41.5102 274.339 41.5101C276.967 41.5101 279.424 41.925 281.704 42.7621L282.133 42.9222C284.257 43.744 286.124 44.8694 287.728 46.3002H287.729C289.467 47.8226 290.82 49.6001 291.78 51.6283H291.781C292.741 53.5593 293.238 55.6467 293.278 57.8793H293.667C293.706 55.6495 294.185 53.5523 295.108 51.597L295.112 51.5873C296.105 49.5598 297.458 47.7959 299.167 46.3002C300.907 44.7761 302.917 43.5976 305.188 42.7631L305.191 42.7621C307.502 41.9256 309.976 41.5101 312.605 41.5101C313.021 41.5101 313.432 41.5216 313.839 41.5424C312.55 39.7765 311.065 38.0437 309.393 36.35C306.664 33.5868 303.441 30.9299 299.771 28.4008ZM274.388 47.517C272.782 47.517 271.279 47.7982 269.872 48.3558L269.865 48.3588C268.484 48.8906 267.259 49.6443 266.188 50.6205C265.123 51.5918 264.286 52.7265 263.677 54.0297C263.143 55.2082 262.858 56.4895 262.822 57.8793H285.806C285.768 56.4954 285.47 55.2197 284.909 54.0443L284.904 54.0345L284.9 54.0248C284.322 52.7194 283.516 51.5837 282.481 50.6127C281.449 49.6439 280.231 48.8925 278.818 48.3607L278.81 48.3578L278.801 48.3539C277.428 47.7976 275.959 47.517 274.388 47.517ZM253.899 38.0677C242.327 39.6366 229.922 40.7961 216.922 41.4789C217.846 46.6726 218.358 52.177 218.397 57.8793H230.3C229.234 57.1874 228.347 56.3121 227.649 55.2523L227.645 55.2455L227.641 55.2386C226.89 54.0418 226.543 52.5634 226.543 50.8549C226.543 48.9359 227.117 47.244 228.278 45.8187C229.424 44.3829 231 43.2985 232.965 42.5443L232.969 42.5424C234.967 41.7887 237.25 41.4213 239.804 41.4213C242.094 41.4213 244.321 41.7278 246.48 42.3431C248.624 42.9538 250.533 43.7526 252.199 44.7445L252.835 45.1234L252.481 45.7748L250.082 50.1957L249.705 50.89L249.02 50.4955C247.816 49.8027 246.636 49.2588 245.479 48.8597C244.305 48.4548 243.204 48.1689 242.176 47.9984C241.131 47.8252 240.194 47.7406 239.363 47.7406C237.745 47.7406 236.541 48.0263 235.688 48.5277C234.901 48.991 234.55 49.6073 234.55 50.4525C234.55 51.2769 234.808 51.905 235.297 52.3998C235.892 52.9377 236.676 53.4058 237.669 53.7914C238.757 54.1704 239.945 54.537 241.232 54.889H241.231C242.581 55.2492 243.914 55.6541 245.23 56.1039L245.737 56.2738C246.908 56.6852 248.005 57.2051 249.025 57.8344C249.049 57.8487 249.071 57.8648 249.094 57.8793H255.4C255.44 55.6495 255.918 53.5523 256.842 51.597L256.847 51.5873C257.156 50.956 257.499 50.35 257.878 49.7699C257.076 45.7163 255.73 41.8 253.899 38.0677ZM170.358 57.8793H175.041C175.08 55.6506 175.559 53.5662 176.484 51.6371L176.487 51.6322C177.48 49.6029 178.85 47.8242 180.59 46.3002C181.9 45.1529 183.371 44.2023 185 43.4467V42.1703C180.055 42.1289 175.171 42.0203 170.358 41.8461V57.8793ZM153.439 40.9506C152.914 43.789 152.511 46.7239 152.243 49.7367L158.761 57.8793H163.135V41.8226H169.714C164.187 41.6157 158.757 41.3237 153.439 40.9506ZM146.407 57.8793H150.143L146.407 53.2094V57.8793ZM116.485 36.8002C115.624 38.438 114.859 40.1141 114.191 41.8226H116.813V57.8793H124.305V41.8226H131.626V57.8793H139.085V41.8226H145.908L146.14 42.1117L151.782 49.1605C152.048 46.3379 152.431 43.5837 152.924 40.9135C140.023 39.9943 127.794 38.5994 116.485 36.8002ZM107.209 57.8793H109.899L109.89 52.9701L107.209 57.8793ZM73.0752 26.3607C68.0957 29.4892 63.8225 32.8331 60.3496 36.35C58.6771 38.0437 57.1915 39.7756 55.9023 41.5414C58.0785 41.6504 60.1321 42.0553 62.0586 42.7631H62.0576C64.3592 43.5966 66.3695 44.7743 68.0791 46.3002C69.8198 47.8248 71.1749 49.6052 72.1357 51.6371C73.0927 53.5658 73.5883 55.6499 73.6289 57.8793H78.2422V41.8226H86.1758L86.3955 42.2172L95.1484 57.8793H99.9785L108.657 42.2201L108.878 41.8226H113.636C114.307 40.0839 115.078 38.379 115.946 36.7133C99.4079 34.0563 84.8562 30.5338 73.0752 26.3607ZM85.1221 57.8793H87.834L85.1221 52.9564V57.8793ZM54.7393 47.517C53.8794 47.517 53.0492 47.5996 52.2471 47.7601C50.769 51.0502 49.9555 54.4321 49.8574 57.8793H66.1572C66.1193 56.4954 65.8203 55.2197 65.2598 54.0443L65.2559 54.0345L65.251 54.0248C64.6721 52.7194 63.8666 51.5836 62.832 50.6127C61.7998 49.6441 60.5821 48.8925 59.1699 48.3607L59.1611 48.3578L59.1523 48.3539C57.7795 47.7976 56.3104 47.517 54.7393 47.517ZM54.2529 17.724C37.5821 22.9798 24.1259 29.2244 14.8447 36.1332C5.74262 42.9088 0.739951 50.2584 0.524414 57.8793H2.31641C2.35565 55.6506 2.834 53.5662 3.75977 51.6371C4.719 49.6086 6.05525 47.8307 7.76172 46.306L7.7666 46.3002H7.76758C9.50576 44.7778 11.4974 43.5991 13.7363 42.764L13.7402 42.7631C16.0207 41.9253 18.4792 41.5101 21.1084 41.5101C22.8025 41.5102 24.4644 41.7116 26.0928 42.1136C27.7158 42.5144 29.2571 43.0848 30.7148 43.8265C32.1774 44.5708 33.4926 45.4728 34.6562 46.5336L35.2334 47.0599L34.7002 47.6302L31.3203 51.2465L30.7744 51.8314L30.21 51.264C29.0433 50.0885 27.6592 49.161 26.0498 48.4838C24.4404 47.8066 22.8274 47.473 21.2061 47.473C19.6003 47.473 18.0966 47.7541 16.6895 48.3119L16.6826 48.3138C15.3044 48.8444 14.0835 49.596 13.0146 50.5687L12.6377 50.9398C11.7825 51.8255 11.1022 52.8376 10.5957 53.9799L10.5938 53.9857C10.0541 55.177 9.76823 56.4723 9.7373 57.8793H35.751C35.7902 55.6496 36.2686 53.5523 37.1924 51.597L37.1973 51.5873C38.1895 49.5599 39.5421 47.7959 41.251 46.3002C42.9912 44.7759 45.0016 43.5977 47.2734 42.7631L47.2764 42.7621C49.5873 41.9256 52.061 41.5101 54.6904 41.5101C54.8903 41.5101 55.0892 41.5131 55.2871 41.5179C59.2469 35.9961 65.0761 30.8237 72.4609 26.139C65.2791 23.5601 59.1493 20.7383 54.2529 17.724ZM230.938 57.3744C231.077 57.4562 231.217 57.5363 231.359 57.6146L230.938 57.3734C230.903 57.3517 230.868 57.3282 230.833 57.306C230.868 57.3283 230.903 57.3526 230.938 57.3744ZM72.8564 57.7611L72.8428 57.3998C72.8421 57.3874 72.8405 57.3751 72.8398 57.3627C72.8469 57.4949 72.8529 57.6277 72.8564 57.7611ZM330.771 57.7611L330.758 57.3998C330.757 57.3874 330.756 57.3751 330.755 57.3627C330.762 57.4949 330.768 57.6277 330.771 57.7611ZM300.369 56.9945C300.35 57.1879 300.336 57.3833 300.326 57.5804L300.37 56.9945C300.38 56.8977 300.39 56.8013 300.402 56.7054L300.369 56.9945ZM175.89 56.5677C175.877 56.6909 175.865 56.8146 175.855 56.9388H175.856C175.866 56.8146 175.877 56.6909 175.89 56.5677ZM230.167 56.847C230.193 56.8671 230.221 56.8849 230.247 56.9047C230.202 56.8706 230.156 56.837 230.111 56.8021C230.13 56.8168 230.148 56.8325 230.167 56.847ZM295.127 53.6429C295.071 53.8161 295.018 53.99 294.969 54.1654H294.97C295.019 53.9901 295.071 53.8161 295.127 53.6429ZM295.205 53.4056C295.189 53.4514 295.174 53.4974 295.159 53.5433C295.216 53.3714 295.276 53.2004 295.339 53.0306V53.0297C295.292 53.1544 295.248 53.2798 295.205 53.4056ZM30.7568 50.7201C30.7039 50.6668 30.6494 50.6152 30.5957 50.5629C30.6496 50.6154 30.7038 50.6676 30.7568 50.7211L34.1367 47.1039L30.7568 50.7201ZM283.009 50.0511C283.148 50.1814 283.283 50.3138 283.414 50.4496C283.283 50.3137 283.148 50.1805 283.009 50.0502C282.87 49.92 282.728 49.794 282.583 49.6713L283.009 50.0511ZM265.67 50.0502C265.57 50.1417 265.473 50.2371 265.376 50.3314L265.67 50.0511C265.734 49.9928 265.8 49.9371 265.865 49.8802C265.8 49.937 265.734 49.992 265.67 50.0502ZM321.275 50.0511C321.326 50.0983 321.374 50.1478 321.423 50.1957C321.373 50.1476 321.326 50.0975 321.275 50.0502C321.137 49.92 320.994 49.794 320.85 49.6713L321.275 50.0511ZM28.4463 48.8656C28.4227 48.8507 28.3987 48.8365 28.375 48.8217C28.3985 48.8364 28.4229 48.8508 28.4463 48.8656ZM59.4414 47.64C59.8168 47.7814 60.1803 47.9368 60.5312 48.1078C60.1803 47.9365 59.8169 47.7804 59.4414 47.639C59.364 47.6077 59.285 47.5808 59.207 47.5511C59.285 47.5809 59.3639 47.6086 59.4414 47.64ZM235.114 47.9769C235.028 48.0344 234.946 48.0957 234.868 48.1576C234.946 48.0958 235.028 48.0352 235.114 47.9779L235.298 47.8627L235.114 47.9769ZM50.293 47.5052C50.1746 47.5481 50.0567 47.5926 49.9395 47.639C49.7743 47.7026 49.6112 47.7706 49.4502 47.8402L49.9395 47.64C50.1741 47.547 50.411 47.4608 50.6504 47.3822L50.293 47.5052ZM308.396 47.4398C308.215 47.5024 308.034 47.568 307.854 47.639C307.689 47.7026 307.526 47.7706 307.365 47.8402L307.854 47.64C308.034 47.569 308.214 47.5024 308.396 47.4398ZM25.9092 47.597C26.0558 47.6533 26.2023 47.7122 26.3486 47.7738C26.3722 47.7837 26.3955 47.7941 26.4189 47.8041C26.3954 47.794 26.3723 47.7828 26.3486 47.7728C26.2024 47.7113 26.0557 47.6531 25.9092 47.597ZM317.356 47.64C317.39 47.6527 317.423 47.6671 317.457 47.6801V47.6791C317.423 47.6661 317.39 47.6518 317.356 47.639V47.64ZM238.742 46.9838L239.363 46.9701L239.698 46.974C239.585 46.9712 239.473 46.9691 239.363 46.9691C239.151 46.9691 238.944 46.9744 238.742 46.9838ZM310.785 46.8715C310.635 46.8921 310.486 46.9151 310.338 46.9408C310.486 46.9151 310.635 46.893 310.785 46.8724V46.8715ZM228.524 46.7748C228.519 46.7824 228.515 46.7906 228.51 46.7982C228.568 46.712 228.628 46.6265 228.691 46.5424L228.524 46.7748ZM21.5303 46.7064C21.7274 46.7115 21.9244 46.7213 22.1211 46.7357C21.9243 46.7213 21.7274 46.7105 21.5303 46.7054L21.2061 46.7015L21.5303 46.7064ZM300.639 46.0941C300.529 46.1775 300.42 46.2621 300.312 46.348V46.349C300.456 46.2341 300.602 46.1215 300.75 46.0111C300.713 46.0388 300.676 46.0662 300.639 46.0941ZM282.26 43.8031C282.388 43.8559 282.515 43.9101 282.641 43.9652C282.383 43.8524 282.121 43.7441 281.854 43.641L282.26 43.8031ZM233.964 43.0121C233.718 43.0902 233.477 43.1738 233.24 43.2631L233.6 43.1332C233.841 43.0495 234.087 42.9713 234.337 42.8988L233.964 43.0121ZM185.514 43.2181C185.889 43.0565 186.272 42.9038 186.664 42.7621L186.668 42.7611C187.285 42.541 187.913 42.3507 188.553 42.1888C187.537 42.1871 186.524 42.1817 185.514 42.1742V43.2181ZM25.9082 42.8617L25.3926 42.7416C25.3848 42.7399 25.3769 42.7384 25.3691 42.7367C25.5492 42.7759 25.729 42.8174 25.9082 42.8617ZM16.543 42.7513C16.3977 42.7828 16.2532 42.8164 16.1094 42.851C16.3969 42.7819 16.6873 42.719 16.9805 42.6625L16.543 42.7513ZM189.53 42.7513C189.404 42.7781 189.278 42.8073 189.152 42.8363C189.425 42.7732 189.7 42.7148 189.978 42.6625L189.53 42.7513ZM270.641 42.5824C270.343 42.6326 270.048 42.6886 269.755 42.7513V42.7523C270.069 42.685 270.386 42.6246 270.706 42.5717C270.684 42.5753 270.662 42.5787 270.641 42.5824ZM18.7734 42.3978C18.4689 42.4292 18.1671 42.4671 17.8682 42.5111V42.5121C18.2127 42.4614 18.5611 42.4193 18.9131 42.3851C18.8665 42.3896 18.8199 42.393 18.7734 42.3978ZM52.3506 42.3978C52.045 42.4292 51.7419 42.4672 51.4414 42.5111V42.5121C51.742 42.4681 52.045 42.4295 52.3506 42.3978ZM275.286 42.3002C276.068 42.3316 276.832 42.4022 277.579 42.5121V42.5111C276.832 42.4012 276.067 42.3306 275.285 42.2992L275.286 42.3002ZM272.459 42.3558C272.405 42.3602 272.351 42.3647 272.298 42.3695C272.441 42.3567 272.586 42.3464 272.73 42.3363C272.64 42.3426 272.549 42.3485 272.459 42.3558ZM273.333 42.3011C273.196 42.307 273.06 42.3144 272.924 42.3226C272.895 42.3244 272.867 42.3266 272.838 42.3285C273.002 42.3179 273.167 42.3082 273.333 42.3011ZM206.942 15.8246C200.621 16.1215 194.116 16.2981 187.471 16.3383L185.514 16.3431V41.6625C186.837 41.6723 188.165 41.6781 189.496 41.6781C190.124 41.6781 190.752 41.6735 191.378 41.6713C192.29 41.5645 193.223 41.5101 194.176 41.5101C194.953 41.5101 195.724 41.5516 196.487 41.6302C203.223 41.5423 209.841 41.3278 216.312 40.9955C214.675 32.1278 211.839 24.2011 208.138 17.7924C207.749 17.119 207.349 16.4631 206.942 15.8246ZM162.776 15.8597C162.377 16.4868 161.988 17.1317 161.606 17.7924C157.982 24.067 155.186 31.7964 153.535 40.4398C163.652 41.1483 174.18 41.566 185 41.6566V16.3451L184.486 16.347C177.066 16.347 169.808 16.1786 162.776 15.8597ZM231.516 13.9681C223.918 14.7763 215.887 15.3929 207.53 15.7963C211.789 22.5599 215.034 31.2034 216.828 40.9681C229.776 40.2898 242.131 39.1401 253.658 37.5824C248.979 28.2986 241.291 20.1798 231.516 13.9681ZM138.121 14.0345C128.841 19.9539 121.449 27.5947 116.741 36.3197C128.002 38.1054 140.177 39.4904 153.02 40.4037C154.831 30.8876 158.024 22.4599 162.189 15.8324C153.807 15.4415 145.749 14.8324 138.121 14.0345ZM257.617 10.1263C249.946 11.6225 241.454 12.8882 232.327 13.8793C241.977 20.1254 249.571 28.2382 254.201 37.5082C269.211 35.4588 282.806 32.7211 294.463 29.4388C296.089 28.9808 297.677 28.5082 299.226 28.0297C293.869 24.4011 287.585 21.0392 280.509 18.0082C273.585 15.0426 265.911 12.3963 257.617 10.1263ZM111.808 10.2133C103.636 12.4637 96.0686 15.0805 89.2334 18.0082C83.4855 20.4702 78.2598 23.1491 73.6299 26.0131C77.0367 27.2098 80.6762 28.3539 84.5293 29.4388C93.9197 32.0829 104.568 34.3721 116.199 36.2347C120.856 27.5293 128.152 19.8979 137.306 13.9496C128.107 12.9671 119.545 11.7072 111.808 10.2133ZM270.375 7.22693C266.764 8.18212 262.877 9.07763 258.743 9.90466C275.305 14.5249 289.364 20.6529 299.855 27.8353C308.028 25.2785 315.08 22.44 320.806 19.3842C319.126 18.8114 317.411 18.248 315.66 17.6967C302.41 13.5248 287.15 9.98282 270.375 7.22693ZM98.9961 7.33044C82.7051 10.032 67.8558 13.4775 54.9033 17.5209C59.7853 20.4776 65.8787 23.2528 73.0127 25.7933C83.0357 19.533 95.8482 14.1553 110.684 9.99158C106.533 9.16954 102.627 8.28103 98.9961 7.33044ZM184.871 1.04529C176.596 1.0455 168.961 6.39058 163.103 15.3597C170.031 15.6692 177.179 15.8334 184.486 15.8334C184.658 15.8334 184.829 15.8316 185 15.8314V1.04626C184.958 1.04598 184.915 1.04529 184.873 1.04529H184.871ZM185.514 15.8295C192.726 15.8145 199.78 15.6411 206.617 15.3246C200.914 6.60879 193.53 1.32437 185.514 1.05603V15.8295ZM179.86 1.17517C164.369 1.98232 150.214 6.50451 138.82 13.5941C146.336 14.3667 154.265 14.9536 162.508 15.3324C167.266 7.95314 173.246 2.89121 179.86 1.17517ZM189.882 1.17615C196.486 2.88927 202.458 7.937 207.212 15.2972C215.427 14.9062 223.327 14.3074 230.811 13.5248C219.436 6.47505 205.322 1.98062 189.882 1.17615ZM173.024 1.26404C151.064 2.07991 130.613 5.1427 112.931 9.90759C120.561 11.3466 128.975 12.5599 137.995 13.5072C147.885 7.23494 159.88 2.90589 173.024 1.26404ZM196.718 1.26404C209.814 2.89982 221.768 7.20388 231.638 13.4388C240.585 12.483 248.928 11.2617 256.491 9.82068C238.882 5.105 218.546 2.07499 196.718 1.26404ZM171.387 0.815796C145.886 1.40031 121.826 3.61392 100.251 7.12537C101.102 7.34241 101.967 7.55903 102.847 7.76892C105.681 8.44511 108.664 9.08355 111.781 9.68689C129.305 4.87144 149.587 1.73804 171.387 0.815796ZM198.057 0.803101C219.837 1.70376 240.11 4.81225 257.641 9.59998C260.595 9.02222 263.428 8.41254 266.126 7.76892C267.145 7.52577 268.145 7.27492 269.125 7.02283C247.553 3.54465 223.518 1.36258 198.057 0.803101ZM265.866 72.4467C265.986 72.5021 266.107 72.5554 266.229 72.6088C266.107 72.5554 265.986 72.502 265.866 72.4467ZM304.133 72.4467C304.253 72.5021 304.374 72.5554 304.495 72.6088C304.374 72.5554 304.253 72.502 304.133 72.4467ZM63.0098 72.5013C63.0543 72.4813 63.0983 72.4601 63.1426 72.4398C63.0078 72.5017 62.8716 72.5621 62.7344 72.6215C62.8265 72.5815 62.9187 72.5424 63.0098 72.5013ZM30.2471 50.2347C30.1395 50.1373 30.0306 50.0414 29.9199 49.9476C30.0305 50.0416 30.1395 50.1373 30.2471 50.2347ZM273.863 42.2855L273.392 42.2992C273.372 42.3 273.353 42.3003 273.333 42.3011C273.509 42.2936 273.686 42.2891 273.863 42.2855Z" fill="#1F4E75"/>
</svg>
