<svg width="48" height="48" viewBox="0 0 48 48" fill="none" xmlns="http://www.w3.org/2000/svg">
<g id="Frame 77">
<path id="Subtract" fill-rule="evenodd" clip-rule="evenodd" d="M24 48C37.2548 48 48 37.2548 48 24C48 10.7452 37.2548 0 24 0C10.7452 0 0 10.7452 0 24C0 37.2548 10.7452 48 24 48ZM17.7897 12C14.5922 12 12 14.5922 12 17.7898V30.2103C12 33.4078 14.5922 36 17.7897 36H30.2102C33.4078 36 36 33.4078 36 30.2103V17.7898C36 14.5922 33.4078 12 30.2102 12H17.7897ZM14.2641 17.7898C14.2641 15.8426 15.8426 14.2642 17.7897 14.2642H30.2102C32.1573 14.2642 33.7359 15.8426 33.7359 17.7898V30.2103C33.7359 32.1575 32.1573 33.7358 30.2102 33.7358H17.7897C15.8426 33.7358 14.2641 32.1575 14.2641 30.2103V17.7898ZM28.6821 17.4903C28.6821 18.3657 29.3916 19.0753 30.267 19.0753C31.1423 19.0753 31.8519 18.3657 31.8519 17.4903C31.8519 16.615 31.1423 15.9054 30.267 15.9054C29.3916 15.9054 28.6821 16.615 28.6821 17.4903ZM18.4758 24C18.4758 20.9493 20.9488 18.4763 23.9995 18.4763C27.0501 18.4763 29.5231 20.9493 29.5231 24C29.5231 27.0507 27.0501 29.5238 23.9995 29.5238C20.9488 29.5238 18.4758 27.0507 18.4758 24Z" fill="white"/>
</g>
</svg>
