<svg width="48" height="48" viewBox="0 0 48 48" fill="none" xmlns="http://www.w3.org/2000/svg">
<g clip-path="url(#clip0_481_888)">
<path d="M24 0C37.2548 0 48 10.7452 48 24C48 37.2548 37.2548 48 24 48C10.7452 48 0 37.2548 0 24C0 10.7452 10.7452 0 24 0ZM17.1426 12C14.3024 12.0001 12.0001 14.3025 12 17.1426V30.8564C12 33.6966 14.3024 35.9999 17.1426 36H30.8564C33.6966 36 36 33.6966 36 30.8564V17.1426C35.9999 14.3024 33.6966 12 30.8564 12H17.1426ZM24 18.0371C25.5816 18.0371 27.0984 18.6649 28.2168 19.7832C29.335 20.9015 29.9638 22.4185 29.9639 24C29.9638 24.783 29.8094 25.5588 29.5098 26.2822C29.2101 27.0056 28.7705 27.6631 28.2168 28.2168C27.6631 28.7705 27.0057 29.2101 26.2822 29.5098C25.5588 29.8094 24.7831 29.9639 24 29.9639C23.2169 29.9639 22.4412 29.8094 21.7178 29.5098C20.9944 29.2101 20.3369 28.7705 19.7832 28.2168C19.2296 27.6631 18.7899 27.0056 18.4902 26.2822C18.1906 25.5588 18.0372 24.783 18.0371 24C18.0371 22.4185 18.665 20.9015 19.7832 19.7832C20.9015 18.6649 22.4184 18.0371 24 18.0371ZM24 19.7695C22.8782 19.7696 21.8021 20.2155 21.0088 21.0088C20.2156 21.802 19.7696 22.8782 19.7695 24C19.7696 24.5554 19.8793 25.106 20.0918 25.6191C20.3044 26.1322 20.6161 26.5985 21.0088 26.9912C21.4015 27.3839 21.8678 27.6957 22.3809 27.9082C22.894 28.1207 23.4446 28.2305 24 28.2305C24.5555 28.2305 25.106 28.1207 25.6191 27.9082C26.1322 27.6957 26.5985 27.3839 26.9912 26.9912C27.3839 26.5985 27.6956 26.1322 27.9082 25.6191C28.1207 25.106 28.2304 24.5554 28.2305 24C28.2304 22.8782 27.7844 21.8021 26.9912 21.0088C26.1979 20.2155 25.1218 19.7695 24 19.7695ZM31.2627 15.4736C31.9603 15.4736 32.5264 16.0397 32.5264 16.7373C32.5263 17.4348 31.9603 18 31.2627 18C30.5653 17.9998 30.0001 17.4347 30 16.7373C30 16.0398 30.5653 15.4739 31.2627 15.4736Z" fill="white"/>
</g>
<defs>
<clipPath id="clip0_481_888">
<rect width="48" height="48" fill="white"/>
</clipPath>
</defs>
</svg>
