<svg width="32" height="32" viewBox="0 0 32 32" fill="none" xmlns="http://www.w3.org/2000/svg">
<path d="M16 0C24.8366 0 32 7.16344 32 16C32 24.8366 24.8366 32 16 32C7.16344 32 0 24.8366 0 16C0 7.16344 7.16344 0 16 0ZM11.4287 7.93359C9.53519 7.93359 8 9.4688 8 11.3623V20.5049C8.00029 22.3981 9.53537 23.9336 11.4287 23.9336H20.5713C22.4646 23.9336 23.9997 22.3981 24 20.5049V11.3623C24 9.4688 22.4647 7.9336 20.5713 7.93359H11.4287ZM16 11.957C17.0543 11.9571 18.066 12.3766 18.8115 13.1221C19.5567 13.8674 19.9754 14.8787 19.9756 15.9326C19.9755 16.4542 19.8733 16.9722 19.6738 17.4541C19.4741 17.9361 19.1804 18.3752 18.8115 18.7441C18.4425 19.1131 18.0036 19.4067 17.5215 19.6064C17.0394 19.806 16.5218 19.9082 16 19.9082C15.4781 19.9082 14.9607 19.8061 14.4785 19.6064C13.9964 19.4067 13.5585 19.1131 13.1895 18.7441C12.8204 18.3751 12.5269 17.9363 12.3271 17.4541C12.1276 16.9721 12.0245 16.4543 12.0244 15.9326C12.0246 14.8786 12.4442 13.8674 13.1895 13.1221C13.9349 12.3768 14.9459 11.9571 16 11.957ZM16 13.1133C15.2524 13.1134 14.5346 13.4099 14.0059 13.9385C13.4773 14.4671 13.1809 15.1851 13.1807 15.9326C13.1807 16.3025 13.2531 16.67 13.3945 17.0117C13.5362 17.3535 13.7443 17.6651 14.0059 17.9268C14.2676 18.1884 14.579 18.3964 14.9209 18.5381C15.2628 18.6797 15.6299 18.7529 16 18.7529C16.3701 18.7529 16.7372 18.6796 17.0791 18.5381C17.421 18.3964 17.7324 18.1884 17.9941 17.9268C18.2557 17.6651 18.4638 17.3535 18.6055 17.0117C18.7469 16.6699 18.8202 16.3025 18.8203 15.9326C18.8201 15.1851 18.5227 14.4671 17.9941 13.9385C17.4654 13.41 16.7476 13.1134 16 13.1133ZM20.8418 10.25C21.3069 10.25 21.6846 10.6267 21.6846 11.0918C21.6842 11.5566 21.3067 11.9336 20.8418 11.9336C20.3771 11.9334 20.0003 11.5565 20 11.0918C20 10.6268 20.3769 10.2502 20.8418 10.25Z" fill="white"/>
</svg>
