<svg width="18" height="18" viewBox="0 0 18 18" fill="none" xmlns="http://www.w3.org/2000/svg">
<path d="M14.1426 0C16.2727 0 18 1.72723 18 3.85742V14.1426C18 16.2727 16.2727 18 14.1426 18H3.85742C1.72721 18 0 16.2727 0 14.1426V3.85742C0 1.72723 1.72721 0 3.85742 0H14.1426ZM9 4.52637C7.81407 4.52645 6.67655 4.99843 5.83789 5.83691C4.9993 6.6755 4.52755 7.8131 4.52734 8.99902C4.52734 9.58626 4.64348 10.1684 4.86816 10.7109C5.09291 11.2535 5.42263 11.7468 5.83789 12.1621C6.25317 12.5773 6.7465 12.9071 7.28906 13.1318C7.83148 13.3564 8.41292 13.4716 9 13.4717C9.58723 13.4717 10.1694 13.3565 10.7119 13.1318C11.2544 12.9071 11.7479 12.5773 12.1631 12.1621C12.5782 11.7469 12.9081 11.2534 13.1328 10.7109C13.3574 10.1685 13.4727 9.58616 13.4727 8.99902C13.4725 7.81318 13.0016 6.67549 12.1631 5.83691C11.3244 4.99827 10.1861 4.52643 9 4.52637ZM9 5.82715C9.84128 5.82721 10.6492 6.16101 11.2441 6.75586C11.8388 7.35063 12.1726 8.15797 12.1729 8.99902C12.1729 9.41548 12.0909 9.82909 11.9316 10.2139C11.7723 10.5985 11.5385 10.9487 11.2441 11.2432C10.9497 11.5376 10.5995 11.7712 10.2148 11.9307C9.83 12.0901 9.41655 12.1718 9 12.1719C8.58349 12.1718 8.17094 12.09 7.78613 11.9307C7.40129 11.7713 7.0514 11.5377 6.75684 11.2432C6.4624 10.9487 6.22875 10.5986 6.06934 10.2139C5.90998 9.82904 5.82812 9.41554 5.82812 8.99902C5.82833 8.15788 6.16204 7.35065 6.75684 6.75586C7.3517 6.16117 8.15886 5.82723 9 5.82715ZM14.4473 2.60547C13.9241 2.60552 13.5 3.02955 13.5 3.55273C13.5001 4.07587 13.9241 4.49994 14.4473 4.5C14.9704 4.5 15.3945 4.0759 15.3945 3.55273C15.3945 3.02952 14.9705 2.60547 14.4473 2.60547Z" fill="white"/>
</svg>
