<svg width="40" height="40" viewBox="0 0 40 40" fill="none" xmlns="http://www.w3.org/2000/svg">
<circle cx="20" cy="20" r="20" fill="#1A1A1A"/>
<path d="M24.5713 12C26.4647 12 28 13.5352 28 15.4287V24.5713C28 26.4647 26.4647 28 24.5713 28H15.4287C13.5352 28 12 26.4647 12 24.5713V15.4287C12 13.5352 13.5352 12 15.4287 12H24.5713ZM20 16.0234C18.9459 16.0235 17.9349 16.4432 17.1895 17.1885C16.4441 17.9339 16.0246 18.9449 16.0244 19.999C16.0244 20.5209 16.1275 21.0383 16.3271 21.5205C16.5269 22.0028 16.8203 22.4414 17.1895 22.8105C17.5585 23.1796 17.9963 23.4731 18.4785 23.6729C18.9607 23.8726 19.4781 23.9746 20 23.9746C20.5218 23.9746 21.0394 23.8725 21.5215 23.6729C22.0037 23.4731 22.4425 23.1796 22.8115 22.8105C23.1805 22.4415 23.4741 22.0027 23.6738 21.5205C23.8734 21.0384 23.9756 20.5208 23.9756 19.999C23.9754 18.945 23.5568 17.9338 22.8115 17.1885C22.066 16.443 21.0543 16.0235 20 16.0234ZM20 17.1797C20.7476 17.1798 21.4654 17.4764 21.9941 18.0049C22.5228 18.5336 22.8201 19.2514 22.8203 19.999C22.8203 20.3691 22.747 20.7362 22.6055 21.0781C22.4638 21.4201 22.2558 21.7314 21.9941 21.9932C21.7324 22.2549 21.4211 22.4628 21.0791 22.6045C20.7371 22.7461 20.3701 22.8193 20 22.8193C19.6298 22.8193 19.2629 22.7461 18.9209 22.6045C18.5789 22.4628 18.2676 22.2549 18.0059 21.9932C17.7442 21.7314 17.5362 21.4201 17.3945 21.0781C17.253 20.7362 17.1807 20.3691 17.1807 19.999C17.1809 19.2514 17.4772 18.5336 18.0059 18.0049C18.5346 17.4763 19.2524 17.1798 20 17.1797ZM24.8418 14.3154C24.3769 14.3156 24 14.6932 24 15.1582C24.0002 15.623 24.377 15.9998 24.8418 16C25.3068 16 25.6844 15.6231 25.6846 15.1582C25.6846 14.6931 25.3069 14.3154 24.8418 14.3154Z" fill="white"/>
</svg>
