<svg width="16" height="16" viewBox="0 0 16 16" fill="none" xmlns="http://www.w3.org/2000/svg">
<path d="M12.2852 0.5C14.0602 0.5 15.4998 1.93887 15.5 3.71387V12.2852C15.5 14.0603 14.0603 15.5 12.2852 15.5H3.71387C1.93886 15.4998 0.5 14.0602 0.5 12.2852V3.71387C0.500196 1.93899 1.93898 0.500197 3.71387 0.5H12.2852ZM8 4.27246C7.01154 4.27249 6.0632 4.66531 5.36426 5.36426C4.66535 6.06322 4.27246 7.01155 4.27246 8C4.27248 8.48928 4.36945 8.97373 4.55664 9.42578C4.74394 9.87796 5.01818 10.2897 5.36426 10.6357C5.71024 10.9817 6.12123 11.2561 6.57324 11.4434C7.0254 11.6307 7.51059 11.7275 8 11.7275C8.48924 11.7275 8.97375 11.6305 9.42578 11.4434C9.87794 11.2561 10.2897 10.9818 10.6357 10.6357C10.9818 10.2897 11.2561 9.87794 11.4434 9.42578C11.6305 8.97374 11.7275 8.48926 11.7275 8C11.7275 7.01153 11.3347 6.06323 10.6357 5.36426C9.93678 4.66531 8.98847 4.27248 8 4.27246ZM8 5.35645C8.70115 5.35646 9.37335 5.63508 9.86914 6.13086C10.3649 6.62666 10.6436 7.29885 10.6436 8C10.6435 8.34714 10.5752 8.691 10.4424 9.01172C10.3095 9.33241 10.1146 9.62369 9.86914 9.86914C9.62368 10.1146 9.33241 10.3095 9.01172 10.4424C8.69101 10.5752 8.34712 10.6435 8 10.6436C7.65286 10.6435 7.309 10.5752 6.98828 10.4424C6.66758 10.3095 6.37633 10.1146 6.13086 9.86914C5.88541 9.62368 5.69048 9.33241 5.55762 9.01172C5.42477 8.691 5.35646 8.34714 5.35645 8C5.35645 7.29886 5.63511 6.62666 6.13086 6.13086C6.62664 5.63508 7.29886 5.35648 8 5.35645ZM12.5391 2.6709C12.1032 2.67112 11.75 3.02506 11.75 3.46094C11.7502 3.89661 12.1034 4.24978 12.5391 4.25C12.9749 4.25 13.3289 3.89675 13.3291 3.46094C13.3291 3.02492 12.9751 2.6709 12.5391 2.6709Z" fill="white"/>
</svg>
