<svg width="120" height="88" viewBox="0 0 120 88" fill="none" xmlns="http://www.w3.org/2000/svg">
<g id="Frame" clip-path="url(#clip0_1277_1376)">
<path id="Vector" d="M25.222 76.1706C8.11113 66.1104 3.73357 48.1552 4.93131 40.8672C6.69471 25.4817 25.2798 12.1954 44.5396 11.2431C56.4785 10.6528 56.8193 6.52291 56.7776 5.41739C56.6776 2.76411 52.2887 -3.1248 30.5002 5.16982C27.0862 6.317 18.2381 10.5683 10.1536 18.3961C0.0481025 28.1809 -8.99998 50.9758 17.111 72.7435C31.7493 84.9469 58.8887 87.8891 68.1418 86.8893C60.7776 86.9687 39.8887 85.5675 25.222 76.1706Z" fill="white"/>
<path id="Vector_2" d="M117.176 30.1574C113.595 23.2472 106.392 17.1334 102.662 15.7163C111.75 22.8301 113.808 28.6483 114.395 34.0037C115.141 40.8192 113.175 47.6347 109.309 53.4383C105.443 59.2416 95.812 69.1614 76.2791 74.0874C60.6529 78.0283 46.3913 73.5704 41.3506 70.9159C44.8095 73.75 53.83 76.3143 60.6122 77.2591C67.4664 78.2132 76.8218 78.2713 87.47 75.6395C98.118 73.0077 110.665 65.3823 115.616 56.6772C120.567 47.9721 121.652 38.7948 117.176 30.1574Z" fill="white"/>
<path id="Vector_3" d="M29.1111 36.6005C40.234 21.3498 64.8017 25.68 72.8889 28.9649C76.2122 30.3145 80.808 32.7237 83.2333 35.3183C85.7564 38.0176 89.066 42.3364 88.5235 49.6244C89.3333 42.2311 89.5544 37.7319 84.1111 31.6181C82.01 29.2563 79.4197 27.0855 74.3473 24.8588C69.7777 22.8531 59.2229 19.5953 45.1835 23.9142C38.7778 25.8847 30.8889 31.8392 29.1111 36.6005Z" fill="white"/>
<path id="Union" fill-rule="evenodd" clip-rule="evenodd" d="M92.7582 37.1677C92.676 37.091 92.5674 37.0483 92.4545 37.0483H85.9418C85.5338 37.0483 85.3414 37.5496 85.6456 37.8202L97.5907 48.4453L97.5906 48.4454L97.6639 48.5106C97.7582 48.5944 97.8122 48.7143 97.8122 48.8403V55.5468C97.8122 55.7909 98.0111 55.989 98.2566 55.989H103.91C104.155 55.989 104.354 55.7909 104.354 55.5468V48.8401C104.354 48.7147 104.407 48.5953 104.501 48.5115L104.667 48.363L104.667 48.3629L116.423 37.819C116.726 37.5477 116.533 37.0484 116.126 37.0484H109.806C109.692 37.0484 109.583 37.0917 109.5 37.1698L101.188 45.0231L92.7582 37.1677Z" fill="white"/>
<path id="Union_2" fill-rule="evenodd" clip-rule="evenodd" d="M31.8949 55.9893C31.6496 55.9893 31.4504 55.7914 31.4504 55.547V52.6226H31.4504V40.4247H37.9904V52.6225H37.9904H42.8889C42.9865 52.6225 43.0878 52.6227 43.1924 52.6229C46.6621 52.6288 53.8462 52.6411 53.8462 46.5435C53.8462 40.4133 46.9027 40.4205 43.1601 40.4245C43.0677 40.4245 42.9773 40.4246 42.8889 40.4246H37.9904H31.4504V37.4908C31.4504 37.2465 31.6496 37.0486 31.8949 37.0486H45.5487H45.5567C45.7049 37.0442 60.3331 36.6438 60.2969 46.5231C60.2607 56.4012 45.7085 55.9939 45.5567 55.9893H45.5485H31.8949Z" fill="white"/>
<path id="Union_3" fill-rule="evenodd" clip-rule="evenodd" d="M61.7778 55.9792C61.5322 55.9792 61.3333 55.7811 61.3333 55.537V52.6124H67.8733H72.7718C72.8693 52.6124 72.9706 52.6126 73.0753 52.6128C76.545 52.6187 83.7291 52.631 83.7291 46.5332C83.7291 40.4032 76.786 40.4105 73.0434 40.4144C72.9508 40.4145 72.8602 40.4146 72.7718 40.4146H67.8734V52.6123H61.3334V40.4146H61.3333V37.4805C61.3333 37.2364 61.5322 37.0383 61.7778 37.0383L75.4315 37.0385C75.4337 37.0385 75.4346 37.0385 75.4354 37.0385C75.4363 37.0385 75.4372 37.0384 75.4395 37.0383C75.5878 37.0341 90.216 36.6335 90.1798 46.5131C90.1433 56.3911 75.5913 55.9836 75.4395 55.9792C75.4367 55.979 75.436 55.9791 75.4349 55.9791C75.4341 55.9791 75.4332 55.9792 75.4313 55.9792H61.7778Z" fill="white"/>
<path id="Vector_4" d="M30.144 55.9898H6.34374C6.09827 55.9898 5.89929 55.7917 5.89929 55.5476V52.4709V47.9341V44.6076V40.5762V37.4803C5.89929 37.236 6.09838 37.0381 6.34391 37.0381L29.8398 37.048C30.0851 37.048 30.284 37.2459 30.284 37.4902V40.134C30.284 40.3783 30.0851 40.5762 29.8395 40.5762H12.3882V44.6076H28.5229C28.7682 44.6076 28.9673 44.8055 28.9673 45.0498V47.4919C28.9673 47.736 28.7682 47.9341 28.5229 47.9341H12.3896V52.4709H30.144C30.3895 52.4709 30.5884 52.669 30.5884 52.9131V55.5476C30.5884 55.7917 30.3895 55.9898 30.144 55.9898Z" fill="white"/>
<g id="LEt&#226;&#128;&#153;s paddle">
<mask id="path-8-outside-1_1277_1376" maskUnits="userSpaceOnUse" x="37.6395" y="61.5371" width="44" height="5" fill="black">
<rect fill="white" x="37.6395" y="61.5371" width="44" height="5"/>
<path d="M38.6718 66.0292C38.654 66.0292 38.6395 66.0148 38.6395 65.997V62.6165C38.6395 62.5987 38.654 62.5842 38.6718 62.5842H39.1914C39.2092 62.5842 39.2236 62.5987 39.2236 62.6165V65.5495C39.2236 65.5673 39.2381 65.5818 39.2559 65.5818H40.9455C40.9633 65.5818 40.9778 65.5962 40.9778 65.614V65.997C40.9778 66.0148 40.9633 66.0292 40.9455 66.0292H38.6718Z"/>
<path d="M42.3151 66.0292C42.2973 66.0292 42.2828 66.0148 42.2828 65.997V62.6165C42.2828 62.5987 42.2973 62.5842 42.3151 62.5842H44.6776C44.6955 62.5842 44.7099 62.5987 44.7099 62.6165V62.9994C44.7099 63.0172 44.6955 63.0317 44.6776 63.0317H42.8992C42.8814 63.0317 42.8669 63.0461 42.8669 63.0639V64.0491C42.8669 64.0669 42.8814 64.0813 42.8992 64.0813H44.551C44.5688 64.0813 44.5833 64.0958 44.5833 64.1136V64.4948C44.5833 64.5126 44.5688 64.5271 44.551 64.5271H42.8992C42.8814 64.5271 42.8669 64.5415 42.8669 64.5593V65.5495C42.8669 65.5673 42.8814 65.5818 42.8992 65.5818H44.7003C44.7181 65.5818 44.7326 65.5962 44.7326 65.614V65.997C44.7326 66.0148 44.7181 66.0292 44.7003 66.0292H42.3151Z"/>
<path d="M45.9702 63.0317C45.9524 63.0317 45.9379 63.0172 45.9379 62.9994V62.6165C45.9379 62.5987 45.9524 62.5842 45.9702 62.5842H48.9017C48.9195 62.5842 48.934 62.5987 48.934 62.6165V62.9994C48.934 63.0172 48.9195 63.0317 48.9017 63.0317H47.7584C47.7406 63.0317 47.7261 63.0461 47.7261 63.0639V65.997C47.7261 66.0148 47.7117 66.0292 47.6939 66.0292H47.1762C47.1584 66.0292 47.1439 66.0148 47.1439 65.997V63.0639C47.1439 63.0461 47.1295 63.0317 47.1117 63.0317H45.9702Z"/>
<path d="M50.643 62.5842C50.6608 62.5842 50.6752 62.5987 50.6752 62.6165V62.9072C50.6752 63.0025 50.6551 63.1029 50.6147 63.2083C50.5757 63.3126 50.5202 63.4129 50.4484 63.5094C50.3809 63.6 50.3024 63.6786 50.2127 63.7455C50.2021 63.7534 50.1878 63.7537 50.1767 63.7466L49.9451 63.599C49.9291 63.5888 49.9253 63.5671 49.9366 63.5519C50.002 63.4637 50.0592 63.3705 50.1081 63.2722C50.1636 63.1634 50.1913 63.0434 50.1913 62.9122V62.6165C50.1913 62.5987 50.2058 62.5842 50.2236 62.5842H50.643Z"/>
<path d="M54.0738 63.4892C54.0576 63.4892 54.044 63.4771 54.0411 63.4611C54.0151 63.3154 53.9333 63.2014 53.7959 63.1191C53.6497 63.0305 53.4657 62.9862 53.2439 62.9862C53.0851 62.9862 52.9478 63.0087 52.8318 63.0535C52.7159 63.0973 52.6258 63.1578 52.5615 63.2352C52.4985 63.3115 52.467 63.3984 52.467 63.4959C52.467 63.5778 52.4884 63.6484 52.5313 63.7079C52.5754 63.7673 52.6327 63.8172 52.7033 63.8576C52.7751 63.8968 52.852 63.9299 52.9339 63.9568C53.0158 63.9826 53.0946 64.0039 53.1702 64.0208L53.5482 64.1082C53.6717 64.1351 53.7984 64.1716 53.9282 64.2176C54.058 64.2636 54.1783 64.3241 54.2892 64.3992C54.4001 64.4744 54.4896 64.5675 54.5576 64.6785C54.6269 64.7895 54.6616 64.9224 54.6616 65.0771C54.6616 65.2723 54.6049 65.4455 54.4915 65.5969C54.3793 65.7483 54.2161 65.8678 54.0019 65.9552C53.7889 66.0427 53.5312 66.0864 53.2288 66.0864C52.939 66.0864 52.6882 66.0455 52.4765 65.9636C52.2648 65.8818 52.0991 65.7657 51.9793 65.6154C51.8662 65.4724 51.801 65.3044 51.7834 65.1113C51.7818 65.0928 51.7966 65.0771 51.8151 65.0771H52.3374C52.3541 65.0771 52.3679 65.0899 52.3702 65.1064C52.3856 65.218 52.4299 65.312 52.5029 65.3883C52.5836 65.4702 52.6863 65.5313 52.811 65.5717C52.9371 65.6109 53.0751 65.6306 53.225 65.6306C53.3901 65.6306 53.5369 65.6076 53.6654 65.5616C53.7952 65.5145 53.8973 65.4495 53.9717 65.3665C54.046 65.2824 54.0832 65.1842 54.0832 65.0721C54.0832 64.9701 54.0504 64.8865 53.9849 64.8215C53.9206 64.7564 53.833 64.7026 53.7221 64.66C53.6125 64.6174 53.4884 64.5798 53.3498 64.5473L52.8923 64.4363C52.5823 64.3611 52.3366 64.2507 52.1551 64.1049C51.9749 63.9591 51.8848 63.7662 51.8848 63.5262C51.8848 63.3277 51.9453 63.1545 52.0663 63.0064C52.1873 62.8584 52.3511 62.7435 52.5578 62.6616C52.7644 62.5786 52.9976 62.5371 53.2571 62.5371C53.5193 62.5371 53.7505 62.578 53.9509 62.6599C54.1525 62.7418 54.3113 62.8545 54.4272 62.998C54.5362 63.1319 54.5962 63.2846 54.6072 63.4561C54.6083 63.4742 54.5937 63.4892 54.5755 63.4892H54.0738Z"/>
<path d="M58.078 66.0292C58.0602 66.0292 58.0458 66.0148 58.0458 65.997V62.6165C58.0458 62.5987 58.0602 62.5842 58.078 62.5842H59.4257C59.7268 62.5842 59.9764 62.633 60.1742 62.7306C60.372 62.8281 60.5201 62.9616 60.6184 63.1309C60.7167 63.2991 60.7658 63.4886 60.7658 63.6995C60.7658 63.9114 60.7161 64.1021 60.6165 64.2714C60.5182 64.4396 60.3695 64.5731 60.1704 64.6718C59.9726 64.7693 59.7237 64.8181 59.4238 64.8181H58.5071C58.4893 64.8181 58.4749 64.8037 58.4749 64.7858V64.4096C58.4749 64.3918 58.4893 64.3774 58.5071 64.3774H59.3708C59.5611 64.3774 59.7155 64.3482 59.834 64.2899C59.9524 64.2305 60.0394 64.1497 60.0948 64.0477C60.1503 63.9456 60.178 63.8296 60.178 63.6995C60.178 63.5694 60.1503 63.4539 60.0948 63.3529C60.0394 63.252 59.9518 63.173 59.8321 63.1158C59.7136 63.0586 59.5574 63.03 59.3633 63.03H58.6621C58.6443 63.03 58.6299 63.0444 58.6299 63.0622V65.997C58.6299 66.0148 58.6154 66.0292 58.5976 66.0292H58.078Z"/>
<path d="M62.0137 66.0087C62.0089 66.0211 61.9969 66.0292 61.9836 66.0292H61.4335C61.4107 66.0292 61.3951 66.0061 61.4036 65.9849L62.7707 62.6044C62.7756 62.5922 62.7874 62.5842 62.8006 62.5842H63.4319C63.445 62.5842 63.4569 62.5922 63.4618 62.6044L64.8288 65.9849C64.8374 66.0061 64.8218 66.0292 64.7989 66.0292H64.2488C64.2355 66.0292 64.2236 66.0211 64.2188 66.0087L63.1378 63.2241C63.1345 63.2156 63.1263 63.21 63.1172 63.21C63.108 63.21 63.0999 63.2156 63.0966 63.2241L62.0137 66.0087ZM62.1097 64.7124C62.1097 64.6946 62.1241 64.6802 62.1419 64.6802H64.0886C64.1064 64.6802 64.1209 64.6946 64.1209 64.7124V65.0853C64.1209 65.1031 64.1064 65.1175 64.0886 65.1175H62.1419C62.1241 65.1175 62.1097 65.1031 62.1097 65.0853V64.7124Z"/>
<path d="M67.2978 66.0292H66.0768C66.059 66.0292 66.0445 66.0148 66.0445 65.997V62.6165C66.0445 62.5987 66.059 62.5842 66.0768 62.5842H67.3375C67.7168 62.5842 68.0425 62.6532 68.3147 62.7911C68.5869 62.9279 68.7955 63.1247 68.9404 63.3815C69.0866 63.6372 69.1597 63.9439 69.1597 64.3017C69.1597 64.6605 69.0859 64.9689 68.9385 65.2269C68.7923 65.4848 68.5806 65.6833 68.3034 65.8223C68.0261 65.9603 67.6909 66.0292 67.2978 66.0292ZM66.6286 65.5428C66.6286 65.5606 66.6431 65.5751 66.6609 65.5751H67.2656C67.5605 65.5751 67.8056 65.5257 68.0009 65.427C68.1963 65.3272 68.3424 65.1831 68.4395 64.9947C68.5365 64.8052 68.585 64.5742 68.585 64.3017C68.585 64.0314 68.5365 63.8021 68.4395 63.6137C68.3437 63.4253 68.2007 63.2823 68.0104 63.1847C67.8201 63.0872 67.5838 63.0384 67.3015 63.0384H66.6609C66.6431 63.0384 66.6286 63.0528 66.6286 63.0706V65.5428Z"/>
<path d="M71.778 66.0292H70.557C70.5392 66.0292 70.5247 66.0148 70.5247 65.997V62.6165C70.5247 62.5987 70.5392 62.5842 70.557 62.5842H71.8177C72.197 62.5842 72.5227 62.6532 72.7949 62.7911C73.0671 62.9279 73.2757 63.1247 73.4206 63.3815C73.5668 63.6372 73.6399 63.9439 73.6399 64.3017C73.6399 64.6605 73.5661 64.9689 73.4187 65.2269C73.2725 65.4848 73.0608 65.6833 72.7836 65.8223C72.5063 65.9603 72.1711 66.0292 71.778 66.0292ZM71.1088 65.5428C71.1088 65.5606 71.1233 65.5751 71.1411 65.5751H71.7458C72.0407 65.5751 72.2858 65.5257 72.4811 65.427C72.6765 65.3272 72.8227 65.1831 72.9197 64.9947C73.0167 64.8052 73.0652 64.5742 73.0652 64.3017C73.0652 64.0314 73.0167 63.8021 72.9197 63.6137C72.8239 63.4253 72.6809 63.2823 72.4906 63.1847C72.3003 63.0872 72.064 63.0384 71.7818 63.0384H71.1411C71.1233 63.0384 71.1088 63.0528 71.1088 63.0706V65.5428Z"/>
<path d="M75.0372 66.0292C75.0194 66.0292 75.0049 66.0148 75.0049 65.997V62.6165C75.0049 62.5987 75.0194 62.5842 75.0372 62.5842H75.5568C75.5746 62.5842 75.589 62.5987 75.589 62.6165V65.5495C75.589 65.5673 75.6035 65.5818 75.6213 65.5818H77.3109C77.3287 65.5818 77.3432 65.5962 77.3432 65.614V65.997C77.3432 66.0148 77.3287 66.0292 77.3109 66.0292H75.0372Z"/>
<path d="M78.6805 66.0292C78.6627 66.0292 78.6482 66.0148 78.6482 65.997V62.6165C78.6482 62.5987 78.6627 62.5842 78.6805 62.5842H81.0431C81.0609 62.5842 81.0753 62.5987 81.0753 62.6165V62.9994C81.0753 63.0172 81.0609 63.0317 81.0431 63.0317H79.2646C79.2468 63.0317 79.2323 63.0461 79.2323 63.0639V64.0491C79.2323 64.0669 79.2468 64.0813 79.2646 64.0813H80.9164C80.9342 64.0813 80.9487 64.0958 80.9487 64.1136V64.4948C80.9487 64.5126 80.9342 64.5271 80.9164 64.5271H79.2646C79.2468 64.5271 79.2323 64.5415 79.2323 64.5593V65.5495C79.2323 65.5673 79.2468 65.5818 79.2646 65.5818H81.0658C81.0836 65.5818 81.098 65.5962 81.098 65.614V65.997C81.098 66.0148 81.0836 66.0292 81.0658 66.0292H78.6805Z"/>
</mask>
<path d="M38.6718 66.0292C38.654 66.0292 38.6395 66.0148 38.6395 65.997V62.6165C38.6395 62.5987 38.654 62.5842 38.6718 62.5842H39.1914C39.2092 62.5842 39.2236 62.5987 39.2236 62.6165V65.5495C39.2236 65.5673 39.2381 65.5818 39.2559 65.5818H40.9455C40.9633 65.5818 40.9778 65.5962 40.9778 65.614V65.997C40.9778 66.0148 40.9633 66.0292 40.9455 66.0292H38.6718Z" fill="white"/>
<path d="M42.3151 66.0292C42.2973 66.0292 42.2828 66.0148 42.2828 65.997V62.6165C42.2828 62.5987 42.2973 62.5842 42.3151 62.5842H44.6776C44.6955 62.5842 44.7099 62.5987 44.7099 62.6165V62.9994C44.7099 63.0172 44.6955 63.0317 44.6776 63.0317H42.8992C42.8814 63.0317 42.8669 63.0461 42.8669 63.0639V64.0491C42.8669 64.0669 42.8814 64.0813 42.8992 64.0813H44.551C44.5688 64.0813 44.5833 64.0958 44.5833 64.1136V64.4948C44.5833 64.5126 44.5688 64.5271 44.551 64.5271H42.8992C42.8814 64.5271 42.8669 64.5415 42.8669 64.5593V65.5495C42.8669 65.5673 42.8814 65.5818 42.8992 65.5818H44.7003C44.7181 65.5818 44.7326 65.5962 44.7326 65.614V65.997C44.7326 66.0148 44.7181 66.0292 44.7003 66.0292H42.3151Z" fill="white"/>
<path d="M45.9702 63.0317C45.9524 63.0317 45.9379 63.0172 45.9379 62.9994V62.6165C45.9379 62.5987 45.9524 62.5842 45.9702 62.5842H48.9017C48.9195 62.5842 48.934 62.5987 48.934 62.6165V62.9994C48.934 63.0172 48.9195 63.0317 48.9017 63.0317H47.7584C47.7406 63.0317 47.7261 63.0461 47.7261 63.0639V65.997C47.7261 66.0148 47.7117 66.0292 47.6939 66.0292H47.1762C47.1584 66.0292 47.1439 66.0148 47.1439 65.997V63.0639C47.1439 63.0461 47.1295 63.0317 47.1117 63.0317H45.9702Z" fill="white"/>
<path d="M50.643 62.5842C50.6608 62.5842 50.6752 62.5987 50.6752 62.6165V62.9072C50.6752 63.0025 50.6551 63.1029 50.6147 63.2083C50.5757 63.3126 50.5202 63.4129 50.4484 63.5094C50.3809 63.6 50.3024 63.6786 50.2127 63.7455C50.2021 63.7534 50.1878 63.7537 50.1767 63.7466L49.9451 63.599C49.9291 63.5888 49.9253 63.5671 49.9366 63.5519C50.002 63.4637 50.0592 63.3705 50.1081 63.2722C50.1636 63.1634 50.1913 63.0434 50.1913 62.9122V62.6165C50.1913 62.5987 50.2058 62.5842 50.2236 62.5842H50.643Z" fill="white"/>
<path d="M54.0738 63.4892C54.0576 63.4892 54.044 63.4771 54.0411 63.4611C54.0151 63.3154 53.9333 63.2014 53.7959 63.1191C53.6497 63.0305 53.4657 62.9862 53.2439 62.9862C53.0851 62.9862 52.9478 63.0087 52.8318 63.0535C52.7159 63.0973 52.6258 63.1578 52.5615 63.2352C52.4985 63.3115 52.467 63.3984 52.467 63.4959C52.467 63.5778 52.4884 63.6484 52.5313 63.7079C52.5754 63.7673 52.6327 63.8172 52.7033 63.8576C52.7751 63.8968 52.852 63.9299 52.9339 63.9568C53.0158 63.9826 53.0946 64.0039 53.1702 64.0208L53.5482 64.1082C53.6717 64.1351 53.7984 64.1716 53.9282 64.2176C54.058 64.2636 54.1783 64.3241 54.2892 64.3992C54.4001 64.4744 54.4896 64.5675 54.5576 64.6785C54.6269 64.7895 54.6616 64.9224 54.6616 65.0771C54.6616 65.2723 54.6049 65.4455 54.4915 65.5969C54.3793 65.7483 54.2161 65.8678 54.0019 65.9552C53.7889 66.0427 53.5312 66.0864 53.2288 66.0864C52.939 66.0864 52.6882 66.0455 52.4765 65.9636C52.2648 65.8818 52.0991 65.7657 51.9793 65.6154C51.8662 65.4724 51.801 65.3044 51.7834 65.1113C51.7818 65.0928 51.7966 65.0771 51.8151 65.0771H52.3374C52.3541 65.0771 52.3679 65.0899 52.3702 65.1064C52.3856 65.218 52.4299 65.312 52.5029 65.3883C52.5836 65.4702 52.6863 65.5313 52.811 65.5717C52.9371 65.6109 53.0751 65.6306 53.225 65.6306C53.3901 65.6306 53.5369 65.6076 53.6654 65.5616C53.7952 65.5145 53.8973 65.4495 53.9717 65.3665C54.046 65.2824 54.0832 65.1842 54.0832 65.0721C54.0832 64.9701 54.0504 64.8865 53.9849 64.8215C53.9206 64.7564 53.833 64.7026 53.7221 64.66C53.6125 64.6174 53.4884 64.5798 53.3498 64.5473L52.8923 64.4363C52.5823 64.3611 52.3366 64.2507 52.1551 64.1049C51.9749 63.9591 51.8848 63.7662 51.8848 63.5262C51.8848 63.3277 51.9453 63.1545 52.0663 63.0064C52.1873 62.8584 52.3511 62.7435 52.5578 62.6616C52.7644 62.5786 52.9976 62.5371 53.2571 62.5371C53.5193 62.5371 53.7505 62.578 53.9509 62.6599C54.1525 62.7418 54.3113 62.8545 54.4272 62.998C54.5362 63.1319 54.5962 63.2846 54.6072 63.4561C54.6083 63.4742 54.5937 63.4892 54.5755 63.4892H54.0738Z" fill="white"/>
<path d="M58.078 66.0292C58.0602 66.0292 58.0458 66.0148 58.0458 65.997V62.6165C58.0458 62.5987 58.0602 62.5842 58.078 62.5842H59.4257C59.7268 62.5842 59.9764 62.633 60.1742 62.7306C60.372 62.8281 60.5201 62.9616 60.6184 63.1309C60.7167 63.2991 60.7658 63.4886 60.7658 63.6995C60.7658 63.9114 60.7161 64.1021 60.6165 64.2714C60.5182 64.4396 60.3695 64.5731 60.1704 64.6718C59.9726 64.7693 59.7237 64.8181 59.4238 64.8181H58.5071C58.4893 64.8181 58.4749 64.8037 58.4749 64.7858V64.4096C58.4749 64.3918 58.4893 64.3774 58.5071 64.3774H59.3708C59.5611 64.3774 59.7155 64.3482 59.834 64.2899C59.9524 64.2305 60.0394 64.1497 60.0948 64.0477C60.1503 63.9456 60.178 63.8296 60.178 63.6995C60.178 63.5694 60.1503 63.4539 60.0948 63.3529C60.0394 63.252 59.9518 63.173 59.8321 63.1158C59.7136 63.0586 59.5574 63.03 59.3633 63.03H58.6621C58.6443 63.03 58.6299 63.0444 58.6299 63.0622V65.997C58.6299 66.0148 58.6154 66.0292 58.5976 66.0292H58.078Z" fill="white"/>
<path d="M62.0137 66.0087C62.0089 66.0211 61.9969 66.0292 61.9836 66.0292H61.4335C61.4107 66.0292 61.3951 66.0061 61.4036 65.9849L62.7707 62.6044C62.7756 62.5922 62.7874 62.5842 62.8006 62.5842H63.4319C63.445 62.5842 63.4569 62.5922 63.4618 62.6044L64.8288 65.9849C64.8374 66.0061 64.8218 66.0292 64.7989 66.0292H64.2488C64.2355 66.0292 64.2236 66.0211 64.2188 66.0087L63.1378 63.2241C63.1345 63.2156 63.1263 63.21 63.1172 63.21C63.108 63.21 63.0999 63.2156 63.0966 63.2241L62.0137 66.0087ZM62.1097 64.7124C62.1097 64.6946 62.1241 64.6802 62.1419 64.6802H64.0886C64.1064 64.6802 64.1209 64.6946 64.1209 64.7124V65.0853C64.1209 65.1031 64.1064 65.1175 64.0886 65.1175H62.1419C62.1241 65.1175 62.1097 65.1031 62.1097 65.0853V64.7124Z" fill="white"/>
<path d="M67.2978 66.0292H66.0768C66.059 66.0292 66.0445 66.0148 66.0445 65.997V62.6165C66.0445 62.5987 66.059 62.5842 66.0768 62.5842H67.3375C67.7168 62.5842 68.0425 62.6532 68.3147 62.7911C68.5869 62.9279 68.7955 63.1247 68.9404 63.3815C69.0866 63.6372 69.1597 63.9439 69.1597 64.3017C69.1597 64.6605 69.0859 64.9689 68.9385 65.2269C68.7923 65.4848 68.5806 65.6833 68.3034 65.8223C68.0261 65.9603 67.6909 66.0292 67.2978 66.0292ZM66.6286 65.5428C66.6286 65.5606 66.6431 65.5751 66.6609 65.5751H67.2656C67.5605 65.5751 67.8056 65.5257 68.0009 65.427C68.1963 65.3272 68.3424 65.1831 68.4395 64.9947C68.5365 64.8052 68.585 64.5742 68.585 64.3017C68.585 64.0314 68.5365 63.8021 68.4395 63.6137C68.3437 63.4253 68.2007 63.2823 68.0104 63.1847C67.8201 63.0872 67.5838 63.0384 67.3015 63.0384H66.6609C66.6431 63.0384 66.6286 63.0528 66.6286 63.0706V65.5428Z" fill="white"/>
<path d="M71.778 66.0292H70.557C70.5392 66.0292 70.5247 66.0148 70.5247 65.997V62.6165C70.5247 62.5987 70.5392 62.5842 70.557 62.5842H71.8177C72.197 62.5842 72.5227 62.6532 72.7949 62.7911C73.0671 62.9279 73.2757 63.1247 73.4206 63.3815C73.5668 63.6372 73.6399 63.9439 73.6399 64.3017C73.6399 64.6605 73.5661 64.9689 73.4187 65.2269C73.2725 65.4848 73.0608 65.6833 72.7836 65.8223C72.5063 65.9603 72.1711 66.0292 71.778 66.0292ZM71.1088 65.5428C71.1088 65.5606 71.1233 65.5751 71.1411 65.5751H71.7458C72.0407 65.5751 72.2858 65.5257 72.4811 65.427C72.6765 65.3272 72.8227 65.1831 72.9197 64.9947C73.0167 64.8052 73.0652 64.5742 73.0652 64.3017C73.0652 64.0314 73.0167 63.8021 72.9197 63.6137C72.8239 63.4253 72.6809 63.2823 72.4906 63.1847C72.3003 63.0872 72.064 63.0384 71.7818 63.0384H71.1411C71.1233 63.0384 71.1088 63.0528 71.1088 63.0706V65.5428Z" fill="white"/>
<path d="M75.0372 66.0292C75.0194 66.0292 75.0049 66.0148 75.0049 65.997V62.6165C75.0049 62.5987 75.0194 62.5842 75.0372 62.5842H75.5568C75.5746 62.5842 75.589 62.5987 75.589 62.6165V65.5495C75.589 65.5673 75.6035 65.5818 75.6213 65.5818H77.3109C77.3287 65.5818 77.3432 65.5962 77.3432 65.614V65.997C77.3432 66.0148 77.3287 66.0292 77.3109 66.0292H75.0372Z" fill="white"/>
<path d="M78.6805 66.0292C78.6627 66.0292 78.6482 66.0148 78.6482 65.997V62.6165C78.6482 62.5987 78.6627 62.5842 78.6805 62.5842H81.0431C81.0609 62.5842 81.0753 62.5987 81.0753 62.6165V62.9994C81.0753 63.0172 81.0609 63.0317 81.0431 63.0317H79.2646C79.2468 63.0317 79.2323 63.0461 79.2323 63.0639V64.0491C79.2323 64.0669 79.2468 64.0813 79.2646 64.0813H80.9164C80.9342 64.0813 80.9487 64.0958 80.9487 64.1136V64.4948C80.9487 64.5126 80.9342 64.5271 80.9164 64.5271H79.2646C79.2468 64.5271 79.2323 64.5415 79.2323 64.5593V65.5495C79.2323 65.5673 79.2468 65.5818 79.2646 65.5818H81.0658C81.0836 65.5818 81.098 65.5962 81.098 65.614V65.997C81.098 66.0148 81.0836 66.0292 81.0658 66.0292H78.6805Z" fill="white"/>
<path d="M38.6718 66.0292C38.654 66.0292 38.6395 66.0148 38.6395 65.997V62.6165C38.6395 62.5987 38.654 62.5842 38.6718 62.5842H39.1914C39.2092 62.5842 39.2236 62.5987 39.2236 62.6165V65.5495C39.2236 65.5673 39.2381 65.5818 39.2559 65.5818H40.9455C40.9633 65.5818 40.9778 65.5962 40.9778 65.614V65.997C40.9778 66.0148 40.9633 66.0292 40.9455 66.0292H38.6718Z" stroke="white" stroke-width="0.258065" stroke-linejoin="round" mask="url(#path-8-outside-1_1277_1376)"/>
<path d="M42.3151 66.0292C42.2973 66.0292 42.2828 66.0148 42.2828 65.997V62.6165C42.2828 62.5987 42.2973 62.5842 42.3151 62.5842H44.6776C44.6955 62.5842 44.7099 62.5987 44.7099 62.6165V62.9994C44.7099 63.0172 44.6955 63.0317 44.6776 63.0317H42.8992C42.8814 63.0317 42.8669 63.0461 42.8669 63.0639V64.0491C42.8669 64.0669 42.8814 64.0813 42.8992 64.0813H44.551C44.5688 64.0813 44.5833 64.0958 44.5833 64.1136V64.4948C44.5833 64.5126 44.5688 64.5271 44.551 64.5271H42.8992C42.8814 64.5271 42.8669 64.5415 42.8669 64.5593V65.5495C42.8669 65.5673 42.8814 65.5818 42.8992 65.5818H44.7003C44.7181 65.5818 44.7326 65.5962 44.7326 65.614V65.997C44.7326 66.0148 44.7181 66.0292 44.7003 66.0292H42.3151Z" stroke="white" stroke-width="0.258065" stroke-linejoin="round" mask="url(#path-8-outside-1_1277_1376)"/>
<path d="M45.9702 63.0317C45.9524 63.0317 45.9379 63.0172 45.9379 62.9994V62.6165C45.9379 62.5987 45.9524 62.5842 45.9702 62.5842H48.9017C48.9195 62.5842 48.934 62.5987 48.934 62.6165V62.9994C48.934 63.0172 48.9195 63.0317 48.9017 63.0317H47.7584C47.7406 63.0317 47.7261 63.0461 47.7261 63.0639V65.997C47.7261 66.0148 47.7117 66.0292 47.6939 66.0292H47.1762C47.1584 66.0292 47.1439 66.0148 47.1439 65.997V63.0639C47.1439 63.0461 47.1295 63.0317 47.1117 63.0317H45.9702Z" stroke="white" stroke-width="0.258065" stroke-linejoin="round" mask="url(#path-8-outside-1_1277_1376)"/>
<path d="M50.643 62.5842C50.6608 62.5842 50.6752 62.5987 50.6752 62.6165V62.9072C50.6752 63.0025 50.6551 63.1029 50.6147 63.2083C50.5757 63.3126 50.5202 63.4129 50.4484 63.5094C50.3809 63.6 50.3024 63.6786 50.2127 63.7455C50.2021 63.7534 50.1878 63.7537 50.1767 63.7466L49.9451 63.599C49.9291 63.5888 49.9253 63.5671 49.9366 63.5519C50.002 63.4637 50.0592 63.3705 50.1081 63.2722C50.1636 63.1634 50.1913 63.0434 50.1913 62.9122V62.6165C50.1913 62.5987 50.2058 62.5842 50.2236 62.5842H50.643Z" stroke="white" stroke-width="0.258065" stroke-linejoin="round" mask="url(#path-8-outside-1_1277_1376)"/>
<path d="M54.0738 63.4892C54.0576 63.4892 54.044 63.4771 54.0411 63.4611C54.0151 63.3154 53.9333 63.2014 53.7959 63.1191C53.6497 63.0305 53.4657 62.9862 53.2439 62.9862C53.0851 62.9862 52.9478 63.0087 52.8318 63.0535C52.7159 63.0973 52.6258 63.1578 52.5615 63.2352C52.4985 63.3115 52.467 63.3984 52.467 63.4959C52.467 63.5778 52.4884 63.6484 52.5313 63.7079C52.5754 63.7673 52.6327 63.8172 52.7033 63.8576C52.7751 63.8968 52.852 63.9299 52.9339 63.9568C53.0158 63.9826 53.0946 64.0039 53.1702 64.0208L53.5482 64.1082C53.6717 64.1351 53.7984 64.1716 53.9282 64.2176C54.058 64.2636 54.1783 64.3241 54.2892 64.3992C54.4001 64.4744 54.4896 64.5675 54.5576 64.6785C54.6269 64.7895 54.6616 64.9224 54.6616 65.0771C54.6616 65.2723 54.6049 65.4455 54.4915 65.5969C54.3793 65.7483 54.2161 65.8678 54.0019 65.9552C53.7889 66.0427 53.5312 66.0864 53.2288 66.0864C52.939 66.0864 52.6882 66.0455 52.4765 65.9636C52.2648 65.8818 52.0991 65.7657 51.9793 65.6154C51.8662 65.4724 51.801 65.3044 51.7834 65.1113C51.7818 65.0928 51.7966 65.0771 51.8151 65.0771H52.3374C52.3541 65.0771 52.3679 65.0899 52.3702 65.1064C52.3856 65.218 52.4299 65.312 52.5029 65.3883C52.5836 65.4702 52.6863 65.5313 52.811 65.5717C52.9371 65.6109 53.0751 65.6306 53.225 65.6306C53.3901 65.6306 53.5369 65.6076 53.6654 65.5616C53.7952 65.5145 53.8973 65.4495 53.9717 65.3665C54.046 65.2824 54.0832 65.1842 54.0832 65.0721C54.0832 64.9701 54.0504 64.8865 53.9849 64.8215C53.9206 64.7564 53.833 64.7026 53.7221 64.66C53.6125 64.6174 53.4884 64.5798 53.3498 64.5473L52.8923 64.4363C52.5823 64.3611 52.3366 64.2507 52.1551 64.1049C51.9749 63.9591 51.8848 63.7662 51.8848 63.5262C51.8848 63.3277 51.9453 63.1545 52.0663 63.0064C52.1873 62.8584 52.3511 62.7435 52.5578 62.6616C52.7644 62.5786 52.9976 62.5371 53.2571 62.5371C53.5193 62.5371 53.7505 62.578 53.9509 62.6599C54.1525 62.7418 54.3113 62.8545 54.4272 62.998C54.5362 63.1319 54.5962 63.2846 54.6072 63.4561C54.6083 63.4742 54.5937 63.4892 54.5755 63.4892H54.0738Z" stroke="white" stroke-width="0.258065" stroke-linejoin="round" mask="url(#path-8-outside-1_1277_1376)"/>
<path d="M58.078 66.0292C58.0602 66.0292 58.0458 66.0148 58.0458 65.997V62.6165C58.0458 62.5987 58.0602 62.5842 58.078 62.5842H59.4257C59.7268 62.5842 59.9764 62.633 60.1742 62.7306C60.372 62.8281 60.5201 62.9616 60.6184 63.1309C60.7167 63.2991 60.7658 63.4886 60.7658 63.6995C60.7658 63.9114 60.7161 64.1021 60.6165 64.2714C60.5182 64.4396 60.3695 64.5731 60.1704 64.6718C59.9726 64.7693 59.7237 64.8181 59.4238 64.8181H58.5071C58.4893 64.8181 58.4749 64.8037 58.4749 64.7858V64.4096C58.4749 64.3918 58.4893 64.3774 58.5071 64.3774H59.3708C59.5611 64.3774 59.7155 64.3482 59.834 64.2899C59.9524 64.2305 60.0394 64.1497 60.0948 64.0477C60.1503 63.9456 60.178 63.8296 60.178 63.6995C60.178 63.5694 60.1503 63.4539 60.0948 63.3529C60.0394 63.252 59.9518 63.173 59.8321 63.1158C59.7136 63.0586 59.5574 63.03 59.3633 63.03H58.6621C58.6443 63.03 58.6299 63.0444 58.6299 63.0622V65.997C58.6299 66.0148 58.6154 66.0292 58.5976 66.0292H58.078Z" stroke="white" stroke-width="0.258065" stroke-linejoin="round" mask="url(#path-8-outside-1_1277_1376)"/>
<path d="M62.0137 66.0087C62.0089 66.0211 61.9969 66.0292 61.9836 66.0292H61.4335C61.4107 66.0292 61.3951 66.0061 61.4036 65.9849L62.7707 62.6044C62.7756 62.5922 62.7874 62.5842 62.8006 62.5842H63.4319C63.445 62.5842 63.4569 62.5922 63.4618 62.6044L64.8288 65.9849C64.8374 66.0061 64.8218 66.0292 64.7989 66.0292H64.2488C64.2355 66.0292 64.2236 66.0211 64.2188 66.0087L63.1378 63.2241C63.1345 63.2156 63.1263 63.21 63.1172 63.21C63.108 63.21 63.0999 63.2156 63.0966 63.2241L62.0137 66.0087ZM62.1097 64.7124C62.1097 64.6946 62.1241 64.6802 62.1419 64.6802H64.0886C64.1064 64.6802 64.1209 64.6946 64.1209 64.7124V65.0853C64.1209 65.1031 64.1064 65.1175 64.0886 65.1175H62.1419C62.1241 65.1175 62.1097 65.1031 62.1097 65.0853V64.7124Z" stroke="white" stroke-width="0.258065" stroke-linejoin="round" mask="url(#path-8-outside-1_1277_1376)"/>
<path d="M67.2978 66.0292H66.0768C66.059 66.0292 66.0445 66.0148 66.0445 65.997V62.6165C66.0445 62.5987 66.059 62.5842 66.0768 62.5842H67.3375C67.7168 62.5842 68.0425 62.6532 68.3147 62.7911C68.5869 62.9279 68.7955 63.1247 68.9404 63.3815C69.0866 63.6372 69.1597 63.9439 69.1597 64.3017C69.1597 64.6605 69.0859 64.9689 68.9385 65.2269C68.7923 65.4848 68.5806 65.6833 68.3034 65.8223C68.0261 65.9603 67.6909 66.0292 67.2978 66.0292ZM66.6286 65.5428C66.6286 65.5606 66.6431 65.5751 66.6609 65.5751H67.2656C67.5605 65.5751 67.8056 65.5257 68.0009 65.427C68.1963 65.3272 68.3424 65.1831 68.4395 64.9947C68.5365 64.8052 68.585 64.5742 68.585 64.3017C68.585 64.0314 68.5365 63.8021 68.4395 63.6137C68.3437 63.4253 68.2007 63.2823 68.0104 63.1847C67.8201 63.0872 67.5838 63.0384 67.3015 63.0384H66.6609C66.6431 63.0384 66.6286 63.0528 66.6286 63.0706V65.5428Z" stroke="white" stroke-width="0.258065" stroke-linejoin="round" mask="url(#path-8-outside-1_1277_1376)"/>
<path d="M71.778 66.0292H70.557C70.5392 66.0292 70.5247 66.0148 70.5247 65.997V62.6165C70.5247 62.5987 70.5392 62.5842 70.557 62.5842H71.8177C72.197 62.5842 72.5227 62.6532 72.7949 62.7911C73.0671 62.9279 73.2757 63.1247 73.4206 63.3815C73.5668 63.6372 73.6399 63.9439 73.6399 64.3017C73.6399 64.6605 73.5661 64.9689 73.4187 65.2269C73.2725 65.4848 73.0608 65.6833 72.7836 65.8223C72.5063 65.9603 72.1711 66.0292 71.778 66.0292ZM71.1088 65.5428C71.1088 65.5606 71.1233 65.5751 71.1411 65.5751H71.7458C72.0407 65.5751 72.2858 65.5257 72.4811 65.427C72.6765 65.3272 72.8227 65.1831 72.9197 64.9947C73.0167 64.8052 73.0652 64.5742 73.0652 64.3017C73.0652 64.0314 73.0167 63.8021 72.9197 63.6137C72.8239 63.4253 72.6809 63.2823 72.4906 63.1847C72.3003 63.0872 72.064 63.0384 71.7818 63.0384H71.1411C71.1233 63.0384 71.1088 63.0528 71.1088 63.0706V65.5428Z" stroke="white" stroke-width="0.258065" stroke-linejoin="round" mask="url(#path-8-outside-1_1277_1376)"/>
<path d="M75.0372 66.0292C75.0194 66.0292 75.0049 66.0148 75.0049 65.997V62.6165C75.0049 62.5987 75.0194 62.5842 75.0372 62.5842H75.5568C75.5746 62.5842 75.589 62.5987 75.589 62.6165V65.5495C75.589 65.5673 75.6035 65.5818 75.6213 65.5818H77.3109C77.3287 65.5818 77.3432 65.5962 77.3432 65.614V65.997C77.3432 66.0148 77.3287 66.0292 77.3109 66.0292H75.0372Z" stroke="white" stroke-width="0.258065" stroke-linejoin="round" mask="url(#path-8-outside-1_1277_1376)"/>
<path d="M78.6805 66.0292C78.6627 66.0292 78.6482 66.0148 78.6482 65.997V62.6165C78.6482 62.5987 78.6627 62.5842 78.6805 62.5842H81.0431C81.0609 62.5842 81.0753 62.5987 81.0753 62.6165V62.9994C81.0753 63.0172 81.0609 63.0317 81.0431 63.0317H79.2646C79.2468 63.0317 79.2323 63.0461 79.2323 63.0639V64.0491C79.2323 64.0669 79.2468 64.0813 79.2646 64.0813H80.9164C80.9342 64.0813 80.9487 64.0958 80.9487 64.1136V64.4948C80.9487 64.5126 80.9342 64.5271 80.9164 64.5271H79.2646C79.2468 64.5271 79.2323 64.5415 79.2323 64.5593V65.5495C79.2323 65.5673 79.2468 65.5818 79.2646 65.5818H81.0658C81.0836 65.5818 81.098 65.5962 81.098 65.614V65.997C81.098 66.0148 81.0836 66.0292 81.0658 66.0292H78.6805Z" stroke="white" stroke-width="0.258065" stroke-linejoin="round" mask="url(#path-8-outside-1_1277_1376)"/>
</g>
</g>
<defs>
<clipPath id="clip0_1277_1376">
<rect width="120" height="86.4516" fill="white" transform="translate(0 0.774414)"/>
</clipPath>
</defs>
</svg>
