<svg width="48" height="48" viewBox="0 0 48 48" fill="none" xmlns="http://www.w3.org/2000/svg">
<g id="Vector">
<path id="Vector_2" fill-rule="evenodd" clip-rule="evenodd" d="M24 48C37.2547 48 48 37.2547 48 24C48 10.7453 37.2547 0 24 0C10.7453 0 0 10.7453 0 24C0 37.2547 10.7453 48 24 48ZM34.549 15.3331C34.7342 13.2307 32.5138 14.0966 32.5138 14.0966C30.8746 14.7754 29.184 15.4646 27.4752 16.1616C22.176 18.323 16.7021 20.556 12.0389 22.7539C9.51024 23.6813 10.9906 24.6086 10.9906 24.6086L14.999 25.8456C16.8494 26.4024 17.8358 25.7837 17.8358 25.7837L26.4701 19.9094C29.5536 17.807 28.8134 19.5384 28.0733 20.2805L21.5981 26.4638C20.6112 27.3298 21.1046 28.0718 21.5362 28.4429C22.7602 29.5224 25.7698 31.4976 27.0835 32.3597C27.4253 32.5838 27.6523 32.7331 27.7037 32.7715C28.0118 33.0187 29.677 34.1318 30.7872 33.8846C31.8974 33.637 32.0208 32.2147 32.0208 32.2147L33.5006 22.5062C33.7224 20.821 33.9773 19.201 34.1808 17.9069C34.3728 16.6848 34.5192 15.7541 34.549 15.3331Z" fill="white"/>
</g>
</svg>
