<svg width="140" height="140" viewBox="0 0 140 140" fill="none" xmlns="http://www.w3.org/2000/svg">
<path d="M38.1819 0H33.9395V4.24242H38.1819V0Z" fill="black"/>
<path d="M50.9092 0H46.6667V4.24242H50.9092V0Z" fill="black"/>
<path d="M63.6365 0H59.394V4.24242H63.6365V0Z" fill="black"/>
<path d="M67.8789 0H63.6365V4.24242H67.8789V0Z" fill="black"/>
<path d="M72.1213 0H67.8789V4.24242H72.1213V0Z" fill="black"/>
<path d="M76.3635 0H72.1211V4.24242H76.3635V0Z" fill="black"/>
<path d="M80.6059 0H76.3635V4.24242H80.6059V0Z" fill="black"/>
<path d="M93.3332 0H89.0908V4.24242H93.3332V0Z" fill="black"/>
<path d="M97.5757 0H93.3333V4.24242H97.5757V0Z" fill="black"/>
<path d="M101.818 0H97.5757V4.24242H101.818V0Z" fill="black"/>
<path d="M42.4243 4.24243H38.1819V8.48486H42.4243V4.24243Z" fill="black"/>
<path d="M46.6667 4.24243H42.4243V8.48486H46.6667V4.24243Z" fill="black"/>
<path d="M55.1516 4.24243H50.9092V8.48486H55.1516V4.24243Z" fill="black"/>
<path d="M72.1213 4.24243H67.8789V8.48486H72.1213V4.24243Z" fill="black"/>
<path d="M76.3635 4.24243H72.1211V8.48486H76.3635V4.24243Z" fill="black"/>
<path d="M84.8484 4.24243H80.606V8.48486H84.8484V4.24243Z" fill="black"/>
<path d="M89.0908 4.24243H84.8484V8.48486H89.0908V4.24243Z" fill="black"/>
<path d="M93.3332 4.24243H89.0908V8.48486H93.3332V4.24243Z" fill="black"/>
<path d="M97.5757 4.24243H93.3333V8.48486H97.5757V4.24243Z" fill="black"/>
<path d="M42.4243 8.48486H38.1819V12.7273H42.4243V8.48486Z" fill="black"/>
<path d="M50.9092 8.48486H46.6667V12.7273H50.9092V8.48486Z" fill="black"/>
<path d="M55.1516 8.48486H50.9092V12.7273H55.1516V8.48486Z" fill="black"/>
<path d="M59.394 8.48486H55.1516V12.7273H59.394V8.48486Z" fill="black"/>
<path d="M67.8789 8.48486H63.6365V12.7273H67.8789V8.48486Z" fill="black"/>
<path d="M89.0908 8.48486H84.8484V12.7273H89.0908V8.48486Z" fill="black"/>
<path d="M97.5757 8.48486H93.3333V12.7273H97.5757V8.48486Z" fill="black"/>
<path d="M101.818 8.48486H97.5757V12.7273H101.818V8.48486Z" fill="black"/>
<path d="M106.061 8.48486H101.818V12.7273H106.061V8.48486Z" fill="black"/>
<path d="M38.1819 12.7273H33.9395V16.9697H38.1819V12.7273Z" fill="black"/>
<path d="M55.1516 12.7273H50.9092V16.9697H55.1516V12.7273Z" fill="black"/>
<path d="M63.6365 12.7273H59.394V16.9697H63.6365V12.7273Z" fill="black"/>
<path d="M76.3635 12.7273H72.1211V16.9697H76.3635V12.7273Z" fill="black"/>
<path d="M80.6059 12.7273H76.3635V16.9697H80.6059V12.7273Z" fill="black"/>
<path d="M89.0908 12.7273H84.8484V16.9697H89.0908V12.7273Z" fill="black"/>
<path d="M93.3332 12.7273H89.0908V16.9697H93.3332V12.7273Z" fill="black"/>
<path d="M101.818 12.7273H97.5757V16.9697H101.818V12.7273Z" fill="black"/>
<path d="M38.1819 16.9697H33.9395V21.2122H38.1819V16.9697Z" fill="black"/>
<path d="M42.4243 16.9697H38.1819V21.2122H42.4243V16.9697Z" fill="black"/>
<path d="M46.6667 16.9697H42.4243V21.2122H46.6667V16.9697Z" fill="black"/>
<path d="M55.1516 16.9697H50.9092V21.2122H55.1516V16.9697Z" fill="black"/>
<path d="M59.394 16.9697H55.1516V21.2122H59.394V16.9697Z" fill="black"/>
<path d="M63.6365 16.9697H59.394V21.2122H63.6365V16.9697Z" fill="black"/>
<path d="M80.6059 16.9697H76.3635V21.2122H80.6059V16.9697Z" fill="black"/>
<path d="M84.8484 16.9697H80.606V21.2122H84.8484V16.9697Z" fill="black"/>
<path d="M89.0908 16.9697H84.8484V21.2122H89.0908V16.9697Z" fill="black"/>
<path d="M106.061 16.9697H101.818V21.2122H106.061V16.9697Z" fill="black"/>
<path d="M38.1819 21.2122H33.9395V25.4546H38.1819V21.2122Z" fill="black"/>
<path d="M42.4243 21.2122H38.1819V25.4546H42.4243V21.2122Z" fill="black"/>
<path d="M59.394 21.2122H55.1516V25.4546H59.394V21.2122Z" fill="black"/>
<path d="M72.1213 21.2122H67.8789V25.4546H72.1213V21.2122Z" fill="black"/>
<path d="M84.8484 21.2122H80.606V25.4546H84.8484V21.2122Z" fill="black"/>
<path d="M93.3332 21.2122H89.0908V25.4546H93.3332V21.2122Z" fill="black"/>
<path d="M38.1819 25.4546H33.9395V29.697H38.1819V25.4546Z" fill="black"/>
<path d="M46.6667 25.4546H42.4243V29.697H46.6667V25.4546Z" fill="black"/>
<path d="M55.1516 25.4546H50.9092V29.697H55.1516V25.4546Z" fill="black"/>
<path d="M63.6365 25.4546H59.394V29.697H63.6365V25.4546Z" fill="black"/>
<path d="M72.1213 25.4546H67.8789V29.697H72.1213V25.4546Z" fill="black"/>
<path d="M80.6059 25.4546H76.3635V29.697H80.6059V25.4546Z" fill="black"/>
<path d="M89.0908 25.4546H84.8484V29.697H89.0908V25.4546Z" fill="black"/>
<path d="M97.5757 25.4546H93.3333V29.697H97.5757V25.4546Z" fill="black"/>
<path d="M106.061 25.4546H101.818V29.697H106.061V25.4546Z" fill="black"/>
<path d="M38.1819 29.697H33.9395V33.9394H38.1819V29.697Z" fill="black"/>
<path d="M42.4243 29.697H38.1819V33.9394H42.4243V29.697Z" fill="black"/>
<path d="M46.6667 29.697H42.4243V33.9394H46.6667V29.697Z" fill="black"/>
<path d="M50.9092 29.697H46.6667V33.9394H50.9092V29.697Z" fill="black"/>
<path d="M55.1516 29.697H50.9092V33.9394H55.1516V29.697Z" fill="black"/>
<path d="M63.6365 29.697H59.394V33.9394H63.6365V29.697Z" fill="black"/>
<path d="M67.8789 29.697H63.6365V33.9394H67.8789V29.697Z" fill="black"/>
<path d="M72.1213 29.697H67.8789V33.9394H72.1213V29.697Z" fill="black"/>
<path d="M76.3635 29.697H72.1211V33.9394H76.3635V29.697Z" fill="black"/>
<path d="M80.6059 29.697H76.3635V33.9394H80.6059V29.697Z" fill="black"/>
<path d="M93.3332 29.697H89.0908V33.9394H93.3332V29.697Z" fill="black"/>
<path d="M97.5757 29.697H93.3333V33.9394H97.5757V29.697Z" fill="black"/>
<path d="M101.818 29.697H97.5757V33.9394H101.818V29.697Z" fill="black"/>
<path d="M106.061 29.697H101.818V33.9394H106.061V29.697Z" fill="black"/>
<path d="M4.24242 33.9395H0V38.1819H4.24242V33.9395Z" fill="black"/>
<path d="M21.2122 33.9395H16.9697V38.1819H21.2122V33.9395Z" fill="black"/>
<path d="M29.697 33.9395H25.4546V38.1819H29.697V33.9395Z" fill="black"/>
<path d="M33.9394 33.9395H29.697V38.1819H33.9394V33.9395Z" fill="black"/>
<path d="M38.1819 33.9395H33.9395V38.1819H38.1819V33.9395Z" fill="black"/>
<path d="M50.9092 33.9395H46.6667V38.1819H50.9092V33.9395Z" fill="black"/>
<path d="M76.3635 33.9395H72.1211V38.1819H76.3635V33.9395Z" fill="black"/>
<path d="M84.8484 33.9395H80.606V38.1819H84.8484V33.9395Z" fill="black"/>
<path d="M93.3332 33.9395H89.0908V38.1819H93.3332V33.9395Z" fill="black"/>
<path d="M97.5757 33.9395H93.3333V38.1819H97.5757V33.9395Z" fill="black"/>
<path d="M110.303 33.9395H106.061V38.1819H110.303V33.9395Z" fill="black"/>
<path d="M114.545 33.9395H110.303V38.1819H114.545V33.9395Z" fill="black"/>
<path d="M118.788 33.9395H114.545V38.1819H118.788V33.9395Z" fill="black"/>
<path d="M123.03 33.9395H118.788V38.1819H123.03V33.9395Z" fill="black"/>
<path d="M127.273 33.9395H123.03V38.1819H127.273V33.9395Z" fill="black"/>
<path d="M140 33.9395H135.758V38.1819H140V33.9395Z" fill="black"/>
<path d="M4.24242 38.1818H0V42.4242H4.24242V38.1818Z" fill="black"/>
<path d="M33.9394 38.1818H29.697V42.4242H33.9394V38.1818Z" fill="black"/>
<path d="M55.1516 38.1818H50.9092V42.4242H55.1516V38.1818Z" fill="black"/>
<path d="M59.394 38.1818H55.1516V42.4242H59.394V38.1818Z" fill="black"/>
<path d="M63.6365 38.1818H59.394V42.4242H63.6365V38.1818Z" fill="black"/>
<path d="M67.8789 38.1818H63.6365V42.4242H67.8789V38.1818Z" fill="black"/>
<path d="M80.6059 38.1818H76.3635V42.4242H80.6059V38.1818Z" fill="black"/>
<path d="M101.818 38.1818H97.5757V42.4242H101.818V38.1818Z" fill="black"/>
<path d="M110.303 38.1818H106.061V42.4242H110.303V38.1818Z" fill="black"/>
<path d="M127.273 38.1818H123.03V42.4242H127.273V38.1818Z" fill="black"/>
<path d="M131.515 38.1818H127.273V42.4242H131.515V38.1818Z" fill="black"/>
<path d="M135.758 38.1818H131.515V42.4242H135.758V38.1818Z" fill="black"/>
<path d="M8.48486 42.4242H4.24243V46.6666H8.48486V42.4242Z" fill="black"/>
<path d="M16.9697 42.4242H12.7273V46.6666H16.9697V42.4242Z" fill="black"/>
<path d="M21.2122 42.4242H16.9697V46.6666H21.2122V42.4242Z" fill="black"/>
<path d="M29.697 42.4242H25.4546V46.6666H29.697V42.4242Z" fill="black"/>
<path d="M33.9394 42.4242H29.697V46.6666H33.9394V42.4242Z" fill="black"/>
<path d="M38.1819 42.4242H33.9395V46.6666H38.1819V42.4242Z" fill="black"/>
<path d="M46.6667 42.4242H42.4243V46.6666H46.6667V42.4242Z" fill="black"/>
<path d="M50.9092 42.4242H46.6667V46.6666H50.9092V42.4242Z" fill="black"/>
<path d="M55.1516 42.4242H50.9092V46.6666H55.1516V42.4242Z" fill="black"/>
<path d="M67.8789 42.4242H63.6365V46.6666H67.8789V42.4242Z" fill="black"/>
<path d="M76.3635 42.4242H72.1211V46.6666H76.3635V42.4242Z" fill="black"/>
<path d="M89.0908 42.4242H84.8484V46.6666H89.0908V42.4242Z" fill="black"/>
<path d="M93.3332 42.4242H89.0908V46.6666H93.3332V42.4242Z" fill="black"/>
<path d="M97.5757 42.4242H93.3333V46.6666H97.5757V42.4242Z" fill="black"/>
<path d="M101.818 42.4242H97.5757V46.6666H101.818V42.4242Z" fill="black"/>
<path d="M106.061 42.4242H101.818V46.6666H106.061V42.4242Z" fill="black"/>
<path d="M127.273 42.4242H123.03V46.6666H127.273V42.4242Z" fill="black"/>
<path d="M8.48486 46.6666H4.24243V50.909H8.48486V46.6666Z" fill="black"/>
<path d="M21.2122 46.6666H16.9697V50.909H21.2122V46.6666Z" fill="black"/>
<path d="M25.4546 46.6666H21.2122V50.909H25.4546V46.6666Z" fill="black"/>
<path d="M33.9394 46.6666H29.697V50.909H33.9394V46.6666Z" fill="black"/>
<path d="M42.4243 46.6666H38.1819V50.909H42.4243V46.6666Z" fill="black"/>
<path d="M46.6667 46.6666H42.4243V50.909H46.6667V46.6666Z" fill="black"/>
<path d="M55.1516 46.6666H50.9092V50.909H55.1516V46.6666Z" fill="black"/>
<path d="M63.6365 46.6666H59.394V50.909H63.6365V46.6666Z" fill="black"/>
<path d="M67.8789 46.6666H63.6365V50.909H67.8789V46.6666Z" fill="black"/>
<path d="M76.3635 46.6666H72.1211V50.909H76.3635V46.6666Z" fill="black"/>
<path d="M80.6059 46.6666H76.3635V50.909H80.6059V46.6666Z" fill="black"/>
<path d="M84.8484 46.6666H80.606V50.909H84.8484V46.6666Z" fill="black"/>
<path d="M89.0908 46.6666H84.8484V50.909H89.0908V46.6666Z" fill="black"/>
<path d="M93.3332 46.6666H89.0908V50.909H93.3332V46.6666Z" fill="black"/>
<path d="M101.818 46.6666H97.5757V50.909H101.818V46.6666Z" fill="black"/>
<path d="M135.758 46.6666H131.515V50.909H135.758V46.6666Z" fill="black"/>
<path d="M4.24242 50.9091H0V55.1515H4.24242V50.9091Z" fill="black"/>
<path d="M12.7273 50.9091H8.48486V55.1515H12.7273V50.9091Z" fill="black"/>
<path d="M25.4546 50.9091H21.2122V55.1515H25.4546V50.9091Z" fill="black"/>
<path d="M29.697 50.9091H25.4546V55.1515H29.697V50.9091Z" fill="black"/>
<path d="M55.1516 50.9091H50.9092V55.1515H55.1516V50.9091Z" fill="black"/>
<path d="M59.394 50.9091H55.1516V55.1515H59.394V50.9091Z" fill="black"/>
<path d="M63.6365 50.9091H59.394V55.1515H63.6365V50.9091Z" fill="black"/>
<path d="M67.8789 50.9091H63.6365V55.1515H67.8789V50.9091Z" fill="black"/>
<path d="M80.6059 50.9091H76.3635V55.1515H80.6059V50.9091Z" fill="black"/>
<path d="M89.0908 50.9091H84.8484V55.1515H89.0908V50.9091Z" fill="black"/>
<path d="M101.818 50.9091H97.5757V55.1515H101.818V50.9091Z" fill="black"/>
<path d="M106.061 50.9091H101.818V55.1515H106.061V50.9091Z" fill="black"/>
<path d="M114.545 50.9091H110.303V55.1515H114.545V50.9091Z" fill="black"/>
<path d="M118.788 50.9091H114.545V55.1515H118.788V50.9091Z" fill="black"/>
<path d="M123.03 50.9091H118.788V55.1515H123.03V50.9091Z" fill="black"/>
<path d="M127.273 50.9091H123.03V55.1515H127.273V50.9091Z" fill="black"/>
<path d="M135.758 50.9091H131.515V55.1515H135.758V50.9091Z" fill="black"/>
<path d="M8.48486 55.1515H4.24243V59.3939H8.48486V55.1515Z" fill="black"/>
<path d="M21.2122 55.1515H16.9697V59.3939H21.2122V55.1515Z" fill="black"/>
<path d="M25.4546 55.1515H21.2122V59.3939H25.4546V55.1515Z" fill="black"/>
<path d="M33.9394 55.1515H29.697V59.3939H33.9394V55.1515Z" fill="black"/>
<path d="M38.1819 55.1515H33.9395V59.3939H38.1819V55.1515Z" fill="black"/>
<path d="M46.6667 55.1515H42.4243V59.3939H46.6667V55.1515Z" fill="black"/>
<path d="M55.1516 55.1515H50.9092V59.3939H55.1516V55.1515Z" fill="black"/>
<path d="M59.394 55.1515H55.1516V59.3939H59.394V55.1515Z" fill="black"/>
<path d="M72.1213 55.1515H67.8789V59.3939H72.1213V55.1515Z" fill="black"/>
<path d="M76.3635 55.1515H72.1211V59.3939H76.3635V55.1515Z" fill="black"/>
<path d="M84.8484 55.1515H80.606V59.3939H84.8484V55.1515Z" fill="black"/>
<path d="M93.3332 55.1515H89.0908V59.3939H93.3332V55.1515Z" fill="black"/>
<path d="M97.5757 55.1515H93.3333V59.3939H97.5757V55.1515Z" fill="black"/>
<path d="M101.818 55.1515H97.5757V59.3939H101.818V55.1515Z" fill="black"/>
<path d="M110.303 55.1515H106.061V59.3939H110.303V55.1515Z" fill="black"/>
<path d="M118.788 55.1515H114.545V59.3939H118.788V55.1515Z" fill="black"/>
<path d="M127.273 55.1515H123.03V59.3939H127.273V55.1515Z" fill="black"/>
<path d="M4.24242 59.3939H0V63.6363H4.24242V59.3939Z" fill="black"/>
<path d="M12.7273 59.3939H8.48486V63.6363H12.7273V59.3939Z" fill="black"/>
<path d="M25.4546 59.3939H21.2122V63.6363H25.4546V59.3939Z" fill="black"/>
<path d="M29.697 59.3939H25.4546V63.6363H29.697V59.3939Z" fill="black"/>
<path d="M33.9394 59.3939H29.697V63.6363H33.9394V59.3939Z" fill="black"/>
<path d="M50.9092 59.3939H46.6667V63.6363H50.9092V59.3939Z" fill="black"/>
<path d="M63.6365 59.3939H59.394V63.6363H63.6365V59.3939Z" fill="black"/>
<path d="M72.1213 59.3939H67.8789V63.6363H72.1213V59.3939Z" fill="black"/>
<path d="M76.3635 59.3939H72.1211V63.6363H76.3635V59.3939Z" fill="black"/>
<path d="M80.6059 59.3939H76.3635V63.6363H80.6059V59.3939Z" fill="black"/>
<path d="M84.8484 59.3939H80.606V63.6363H84.8484V59.3939Z" fill="black"/>
<path d="M93.3332 59.3939H89.0908V63.6363H93.3332V59.3939Z" fill="black"/>
<path d="M101.818 59.3939H97.5757V63.6363H101.818V59.3939Z" fill="black"/>
<path d="M110.303 59.3939H106.061V63.6363H110.303V59.3939Z" fill="black"/>
<path d="M114.545 59.3939H110.303V63.6363H114.545V59.3939Z" fill="black"/>
<path d="M135.758 59.3939H131.515V63.6363H135.758V59.3939Z" fill="black"/>
<path d="M4.24242 63.6364H0V67.8788H4.24242V63.6364Z" fill="black"/>
<path d="M12.7273 63.6364H8.48486V67.8788H12.7273V63.6364Z" fill="black"/>
<path d="M16.9697 63.6364H12.7273V67.8788H16.9697V63.6364Z" fill="black"/>
<path d="M21.2122 63.6364H16.9697V67.8788H21.2122V63.6364Z" fill="black"/>
<path d="M25.4546 63.6364H21.2122V67.8788H25.4546V63.6364Z" fill="black"/>
<path d="M38.1819 63.6364H33.9395V67.8788H38.1819V63.6364Z" fill="black"/>
<path d="M42.4243 63.6364H38.1819V67.8788H42.4243V63.6364Z" fill="black"/>
<path d="M50.9092 63.6364H46.6667V67.8788H50.9092V63.6364Z" fill="black"/>
<path d="M63.6365 63.6364H59.394V67.8788H63.6365V63.6364Z" fill="black"/>
<path d="M76.3635 63.6364H72.1211V67.8788H76.3635V63.6364Z" fill="black"/>
<path d="M84.8484 63.6364H80.606V67.8788H84.8484V63.6364Z" fill="black"/>
<path d="M89.0908 63.6364H84.8484V67.8788H89.0908V63.6364Z" fill="black"/>
<path d="M93.3332 63.6364H89.0908V67.8788H93.3332V63.6364Z" fill="black"/>
<path d="M97.5757 63.6364H93.3333V67.8788H97.5757V63.6364Z" fill="black"/>
<path d="M101.818 63.6364H97.5757V67.8788H101.818V63.6364Z" fill="black"/>
<path d="M106.061 63.6364H101.818V67.8788H106.061V63.6364Z" fill="black"/>
<path d="M110.303 63.6364H106.061V67.8788H110.303V63.6364Z" fill="black"/>
<path d="M114.545 63.6364H110.303V67.8788H114.545V63.6364Z" fill="black"/>
<path d="M118.788 63.6364H114.545V67.8788H118.788V63.6364Z" fill="black"/>
<path d="M123.03 63.6364H118.788V67.8788H123.03V63.6364Z" fill="black"/>
<path d="M4.24242 67.8788H0V72.1212H4.24242V67.8788Z" fill="black"/>
<path d="M8.48486 67.8788H4.24243V72.1212H8.48486V67.8788Z" fill="black"/>
<path d="M21.2122 67.8788H16.9697V72.1212H21.2122V67.8788Z" fill="black"/>
<path d="M25.4546 67.8788H21.2122V72.1212H25.4546V67.8788Z" fill="black"/>
<path d="M29.697 67.8788H25.4546V72.1212H29.697V67.8788Z" fill="black"/>
<path d="M33.9394 67.8788H29.697V72.1212H33.9394V67.8788Z" fill="black"/>
<path d="M38.1819 67.8788H33.9395V72.1212H38.1819V67.8788Z" fill="black"/>
<path d="M42.4243 67.8788H38.1819V72.1212H42.4243V67.8788Z" fill="black"/>
<path d="M63.6365 67.8788H59.394V72.1212H63.6365V67.8788Z" fill="black"/>
<path d="M67.8789 67.8788H63.6365V72.1212H67.8789V67.8788Z" fill="black"/>
<path d="M76.3635 67.8788H72.1211V72.1212H76.3635V67.8788Z" fill="black"/>
<path d="M89.0908 67.8788H84.8484V72.1212H89.0908V67.8788Z" fill="black"/>
<path d="M93.3332 67.8788H89.0908V72.1212H93.3332V67.8788Z" fill="black"/>
<path d="M101.818 67.8788H97.5757V72.1212H101.818V67.8788Z" fill="black"/>
<path d="M114.545 67.8788H110.303V72.1212H114.545V67.8788Z" fill="black"/>
<path d="M123.03 67.8788H118.788V72.1212H123.03V67.8788Z" fill="black"/>
<path d="M135.758 67.8788H131.515V72.1212H135.758V67.8788Z" fill="black"/>
<path d="M4.24242 72.1212H0V76.3636H4.24242V72.1212Z" fill="black"/>
<path d="M8.48486 72.1212H4.24243V76.3636H8.48486V72.1212Z" fill="black"/>
<path d="M16.9697 72.1212H12.7273V76.3636H16.9697V72.1212Z" fill="black"/>
<path d="M21.2122 72.1212H16.9697V76.3636H21.2122V72.1212Z" fill="black"/>
<path d="M38.1819 72.1212H33.9395V76.3636H38.1819V72.1212Z" fill="black"/>
<path d="M50.9092 72.1212H46.6667V76.3636H50.9092V72.1212Z" fill="black"/>
<path d="M55.1516 72.1212H50.9092V76.3636H55.1516V72.1212Z" fill="black"/>
<path d="M59.394 72.1212H55.1516V76.3636H59.394V72.1212Z" fill="black"/>
<path d="M67.8789 72.1212H63.6365V76.3636H67.8789V72.1212Z" fill="black"/>
<path d="M72.1213 72.1212H67.8789V76.3636H72.1213V72.1212Z" fill="black"/>
<path d="M76.3635 72.1212H72.1211V76.3636H76.3635V72.1212Z" fill="black"/>
<path d="M80.6059 72.1212H76.3635V76.3636H80.6059V72.1212Z" fill="black"/>
<path d="M89.0908 72.1212H84.8484V76.3636H89.0908V72.1212Z" fill="black"/>
<path d="M93.3332 72.1212H89.0908V76.3636H93.3332V72.1212Z" fill="black"/>
<path d="M101.818 72.1212H97.5757V76.3636H101.818V72.1212Z" fill="black"/>
<path d="M127.273 72.1212H123.03V76.3636H127.273V72.1212Z" fill="black"/>
<path d="M131.515 72.1212H127.273V76.3636H131.515V72.1212Z" fill="black"/>
<path d="M29.697 76.3636H25.4546V80.6061H29.697V76.3636Z" fill="black"/>
<path d="M33.9394 76.3636H29.697V80.6061H33.9394V76.3636Z" fill="black"/>
<path d="M38.1819 76.3636H33.9395V80.6061H38.1819V76.3636Z" fill="black"/>
<path d="M42.4243 76.3636H38.1819V80.6061H42.4243V76.3636Z" fill="black"/>
<path d="M55.1516 76.3636H50.9092V80.6061H55.1516V76.3636Z" fill="black"/>
<path d="M63.6365 76.3636H59.394V80.6061H63.6365V76.3636Z" fill="black"/>
<path d="M67.8789 76.3636H63.6365V80.6061H67.8789V76.3636Z" fill="black"/>
<path d="M80.6059 76.3636H76.3635V80.6061H80.6059V76.3636Z" fill="black"/>
<path d="M89.0908 76.3636H84.8484V80.6061H89.0908V76.3636Z" fill="black"/>
<path d="M101.818 76.3636H97.5757V80.6061H101.818V76.3636Z" fill="black"/>
<path d="M118.788 76.3636H114.545V80.6061H118.788V76.3636Z" fill="black"/>
<path d="M127.273 76.3636H123.03V80.6061H127.273V76.3636Z" fill="black"/>
<path d="M135.758 76.3636H131.515V80.6061H135.758V76.3636Z" fill="black"/>
<path d="M4.24242 80.6061H0V84.8485H4.24242V80.6061Z" fill="black"/>
<path d="M12.7273 80.6061H8.48486V84.8485H12.7273V80.6061Z" fill="black"/>
<path d="M25.4546 80.6061H21.2122V84.8485H25.4546V80.6061Z" fill="black"/>
<path d="M33.9394 80.6061H29.697V84.8485H33.9394V80.6061Z" fill="black"/>
<path d="M55.1516 80.6061H50.9092V84.8485H55.1516V80.6061Z" fill="black"/>
<path d="M59.394 80.6061H55.1516V84.8485H59.394V80.6061Z" fill="black"/>
<path d="M67.8789 80.6061H63.6365V84.8485H67.8789V80.6061Z" fill="black"/>
<path d="M72.1213 80.6061H67.8789V84.8485H72.1213V80.6061Z" fill="black"/>
<path d="M89.0908 80.6061H84.8484V84.8485H89.0908V80.6061Z" fill="black"/>
<path d="M97.5757 80.6061H93.3333V84.8485H97.5757V80.6061Z" fill="black"/>
<path d="M106.061 80.6061H101.818V84.8485H106.061V80.6061Z" fill="black"/>
<path d="M110.303 80.6061H106.061V84.8485H110.303V80.6061Z" fill="black"/>
<path d="M118.788 80.6061H114.545V84.8485H118.788V80.6061Z" fill="black"/>
<path d="M21.2122 84.8485H16.9697V89.0909H21.2122V84.8485Z" fill="black"/>
<path d="M29.697 84.8485H25.4546V89.0909H29.697V84.8485Z" fill="black"/>
<path d="M33.9394 84.8485H29.697V89.0909H33.9394V84.8485Z" fill="black"/>
<path d="M38.1819 84.8485H33.9395V89.0909H38.1819V84.8485Z" fill="black"/>
<path d="M46.6667 84.8485H42.4243V89.0909H46.6667V84.8485Z" fill="black"/>
<path d="M50.9092 84.8485H46.6667V89.0909H50.9092V84.8485Z" fill="black"/>
<path d="M59.394 84.8485H55.1516V89.0909H59.394V84.8485Z" fill="black"/>
<path d="M72.1213 84.8485H67.8789V89.0909H72.1213V84.8485Z" fill="black"/>
<path d="M97.5757 84.8485H93.3333V89.0909H97.5757V84.8485Z" fill="black"/>
<path d="M101.818 84.8485H97.5757V89.0909H101.818V84.8485Z" fill="black"/>
<path d="M106.061 84.8485H101.818V89.0909H106.061V84.8485Z" fill="black"/>
<path d="M114.545 84.8485H110.303V89.0909H114.545V84.8485Z" fill="black"/>
<path d="M118.788 84.8485H114.545V89.0909H118.788V84.8485Z" fill="black"/>
<path d="M123.03 84.8485H118.788V89.0909H123.03V84.8485Z" fill="black"/>
<path d="M127.273 84.8485H123.03V89.0909H127.273V84.8485Z" fill="black"/>
<path d="M140 84.8485H135.758V89.0909H140V84.8485Z" fill="black"/>
<path d="M4.24242 89.0909H0V93.3334H4.24242V89.0909Z" fill="black"/>
<path d="M12.7273 89.0909H8.48486V93.3334H12.7273V89.0909Z" fill="black"/>
<path d="M16.9697 89.0909H12.7273V93.3334H16.9697V89.0909Z" fill="black"/>
<path d="M25.4546 89.0909H21.2122V93.3334H25.4546V89.0909Z" fill="black"/>
<path d="M38.1819 89.0909H33.9395V93.3334H38.1819V89.0909Z" fill="black"/>
<path d="M55.1516 89.0909H50.9092V93.3334H55.1516V89.0909Z" fill="black"/>
<path d="M80.6059 89.0909H76.3635V93.3334H80.6059V89.0909Z" fill="black"/>
<path d="M84.8484 89.0909H80.606V93.3334H84.8484V89.0909Z" fill="black"/>
<path d="M89.0908 89.0909H84.8484V93.3334H89.0908V89.0909Z" fill="black"/>
<path d="M93.3332 89.0909H89.0908V93.3334H93.3332V89.0909Z" fill="black"/>
<path d="M101.818 89.0909H97.5757V93.3334H101.818V89.0909Z" fill="black"/>
<path d="M110.303 89.0909H106.061V93.3334H110.303V89.0909Z" fill="black"/>
<path d="M118.788 89.0909H114.545V93.3334H118.788V89.0909Z" fill="black"/>
<path d="M127.273 89.0909H123.03V93.3334H127.273V89.0909Z" fill="black"/>
<path d="M135.758 89.0909H131.515V93.3334H135.758V89.0909Z" fill="black"/>
<path d="M16.9697 93.3334H12.7273V97.5758H16.9697V93.3334Z" fill="black"/>
<path d="M29.697 93.3334H25.4546V97.5758H29.697V93.3334Z" fill="black"/>
<path d="M42.4243 93.3334H38.1819V97.5758H42.4243V93.3334Z" fill="black"/>
<path d="M50.9092 93.3334H46.6667V97.5758H50.9092V93.3334Z" fill="black"/>
<path d="M55.1516 93.3334H50.9092V97.5758H55.1516V93.3334Z" fill="black"/>
<path d="M67.8789 93.3334H63.6365V97.5758H67.8789V93.3334Z" fill="black"/>
<path d="M76.3635 93.3334H72.1211V97.5758H76.3635V93.3334Z" fill="black"/>
<path d="M80.6059 93.3334H76.3635V97.5758H80.6059V93.3334Z" fill="black"/>
<path d="M89.0908 93.3334H84.8484V97.5758H89.0908V93.3334Z" fill="black"/>
<path d="M101.818 93.3334H97.5757V97.5758H101.818V93.3334Z" fill="black"/>
<path d="M110.303 93.3334H106.061V97.5758H110.303V93.3334Z" fill="black"/>
<path d="M118.788 93.3334H114.545V97.5758H118.788V93.3334Z" fill="black"/>
<path d="M123.03 93.3334H118.788V97.5758H123.03V93.3334Z" fill="black"/>
<path d="M127.273 93.3334H123.03V97.5758H127.273V93.3334Z" fill="black"/>
<path d="M135.758 93.3334H131.515V97.5758H135.758V93.3334Z" fill="black"/>
<path d="M16.9697 97.5758H12.7273V101.818H16.9697V97.5758Z" fill="black"/>
<path d="M33.9394 97.5758H29.697V101.818H33.9394V97.5758Z" fill="black"/>
<path d="M46.6667 97.5758H42.4243V101.818H46.6667V97.5758Z" fill="black"/>
<path d="M59.394 97.5758H55.1516V101.818H59.394V97.5758Z" fill="black"/>
<path d="M67.8789 97.5758H63.6365V101.818H67.8789V97.5758Z" fill="black"/>
<path d="M72.1213 97.5758H67.8789V101.818H72.1213V97.5758Z" fill="black"/>
<path d="M76.3635 97.5758H72.1211V101.818H76.3635V97.5758Z" fill="black"/>
<path d="M80.6059 97.5758H76.3635V101.818H80.6059V97.5758Z" fill="black"/>
<path d="M93.3332 97.5758H89.0908V101.818H93.3332V97.5758Z" fill="black"/>
<path d="M97.5757 97.5758H93.3333V101.818H97.5757V97.5758Z" fill="black"/>
<path d="M101.818 97.5758H97.5757V101.818H101.818V97.5758Z" fill="black"/>
<path d="M106.061 97.5758H101.818V101.818H106.061V97.5758Z" fill="black"/>
<path d="M123.03 97.5758H118.788V101.818H123.03V97.5758Z" fill="black"/>
<path d="M4.24242 101.818H0V106.061H4.24242V101.818Z" fill="black"/>
<path d="M8.48486 101.818H4.24243V106.061H8.48486V101.818Z" fill="black"/>
<path d="M25.4546 101.818H21.2122V106.061H25.4546V101.818Z" fill="black"/>
<path d="M29.697 101.818H25.4546V106.061H29.697V101.818Z" fill="black"/>
<path d="M33.9394 101.818H29.697V106.061H33.9394V101.818Z" fill="black"/>
<path d="M38.1819 101.818H33.9395V106.061H38.1819V101.818Z" fill="black"/>
<path d="M42.4243 101.818H38.1819V106.061H42.4243V101.818Z" fill="black"/>
<path d="M50.9092 101.818H46.6667V106.061H50.9092V101.818Z" fill="black"/>
<path d="M59.394 101.818H55.1516V106.061H59.394V101.818Z" fill="black"/>
<path d="M63.6365 101.818H59.394V106.061H63.6365V101.818Z" fill="black"/>
<path d="M76.3635 101.818H72.1211V106.061H76.3635V101.818Z" fill="black"/>
<path d="M84.8484 101.818H80.606V106.061H84.8484V101.818Z" fill="black"/>
<path d="M89.0908 101.818H84.8484V106.061H89.0908V101.818Z" fill="black"/>
<path d="M93.3332 101.818H89.0908V106.061H93.3332V101.818Z" fill="black"/>
<path d="M97.5757 101.818H93.3333V106.061H97.5757V101.818Z" fill="black"/>
<path d="M106.061 101.818H101.818V106.061H106.061V101.818Z" fill="black"/>
<path d="M110.303 101.818H106.061V106.061H110.303V101.818Z" fill="black"/>
<path d="M114.545 101.818H110.303V106.061H114.545V101.818Z" fill="black"/>
<path d="M118.788 101.818H114.545V106.061H118.788V101.818Z" fill="black"/>
<path d="M123.03 101.818H118.788V106.061H123.03V101.818Z" fill="black"/>
<path d="M38.1819 106.061H33.9395V110.303H38.1819V106.061Z" fill="black"/>
<path d="M46.6667 106.061H42.4243V110.303H46.6667V106.061Z" fill="black"/>
<path d="M59.394 106.061H55.1516V110.303H59.394V106.061Z" fill="black"/>
<path d="M67.8789 106.061H63.6365V110.303H67.8789V106.061Z" fill="black"/>
<path d="M72.1213 106.061H67.8789V110.303H72.1213V106.061Z" fill="black"/>
<path d="M80.6059 106.061H76.3635V110.303H80.6059V106.061Z" fill="black"/>
<path d="M106.061 106.061H101.818V110.303H106.061V106.061Z" fill="black"/>
<path d="M123.03 106.061H118.788V110.303H123.03V106.061Z" fill="black"/>
<path d="M131.515 106.061H127.273V110.303H131.515V106.061Z" fill="black"/>
<path d="M135.758 106.061H131.515V110.303H135.758V106.061Z" fill="black"/>
<path d="M38.1819 110.303H33.9395V114.545H38.1819V110.303Z" fill="black"/>
<path d="M42.4243 110.303H38.1819V114.545H42.4243V110.303Z" fill="black"/>
<path d="M46.6667 110.303H42.4243V114.545H46.6667V110.303Z" fill="black"/>
<path d="M50.9092 110.303H46.6667V114.545H50.9092V110.303Z" fill="black"/>
<path d="M55.1516 110.303H50.9092V114.545H55.1516V110.303Z" fill="black"/>
<path d="M63.6365 110.303H59.394V114.545H63.6365V110.303Z" fill="black"/>
<path d="M67.8789 110.303H63.6365V114.545H67.8789V110.303Z" fill="black"/>
<path d="M72.1213 110.303H67.8789V114.545H72.1213V110.303Z" fill="black"/>
<path d="M76.3635 110.303H72.1211V114.545H76.3635V110.303Z" fill="black"/>
<path d="M89.0908 110.303H84.8484V114.545H89.0908V110.303Z" fill="black"/>
<path d="M93.3332 110.303H89.0908V114.545H93.3332V110.303Z" fill="black"/>
<path d="M97.5757 110.303H93.3333V114.545H97.5757V110.303Z" fill="black"/>
<path d="M106.061 110.303H101.818V114.545H106.061V110.303Z" fill="black"/>
<path d="M114.545 110.303H110.303V114.545H114.545V110.303Z" fill="black"/>
<path d="M123.03 110.303H118.788V114.545H123.03V110.303Z" fill="black"/>
<path d="M127.273 110.303H123.03V114.545H127.273V110.303Z" fill="black"/>
<path d="M135.758 110.303H131.515V114.545H135.758V110.303Z" fill="black"/>
<path d="M46.6667 114.545H42.4243V118.788H46.6667V114.545Z" fill="black"/>
<path d="M50.9092 114.545H46.6667V118.788H50.9092V114.545Z" fill="black"/>
<path d="M55.1516 114.545H50.9092V118.788H55.1516V114.545Z" fill="black"/>
<path d="M72.1213 114.545H67.8789V118.788H72.1213V114.545Z" fill="black"/>
<path d="M76.3635 114.545H72.1211V118.788H76.3635V114.545Z" fill="black"/>
<path d="M80.6059 114.545H76.3635V118.788H80.6059V114.545Z" fill="black"/>
<path d="M84.8484 114.545H80.606V118.788H84.8484V114.545Z" fill="black"/>
<path d="M89.0908 114.545H84.8484V118.788H89.0908V114.545Z" fill="black"/>
<path d="M93.3332 114.545H89.0908V118.788H93.3332V114.545Z" fill="black"/>
<path d="M106.061 114.545H101.818V118.788H106.061V114.545Z" fill="black"/>
<path d="M123.03 114.545H118.788V118.788H123.03V114.545Z" fill="black"/>
<path d="M38.1819 118.788H33.9395V123.03H38.1819V118.788Z" fill="black"/>
<path d="M42.4243 118.788H38.1819V123.03H42.4243V118.788Z" fill="black"/>
<path d="M59.394 118.788H55.1516V123.03H59.394V118.788Z" fill="black"/>
<path d="M80.6059 118.788H76.3635V123.03H80.6059V118.788Z" fill="black"/>
<path d="M89.0908 118.788H84.8484V123.03H89.0908V118.788Z" fill="black"/>
<path d="M106.061 118.788H101.818V123.03H106.061V118.788Z" fill="black"/>
<path d="M110.303 118.788H106.061V123.03H110.303V118.788Z" fill="black"/>
<path d="M114.545 118.788H110.303V123.03H114.545V118.788Z" fill="black"/>
<path d="M118.788 118.788H114.545V123.03H118.788V118.788Z" fill="black"/>
<path d="M123.03 118.788H118.788V123.03H123.03V118.788Z" fill="black"/>
<path d="M127.273 118.788H123.03V123.03H127.273V118.788Z" fill="black"/>
<path d="M140 118.788H135.758V123.03H140V118.788Z" fill="black"/>
<path d="M42.4243 123.03H38.1819V127.273H42.4243V123.03Z" fill="black"/>
<path d="M50.9092 123.03H46.6667V127.273H50.9092V123.03Z" fill="black"/>
<path d="M72.1213 123.03H67.8789V127.273H72.1213V123.03Z" fill="black"/>
<path d="M84.8484 123.03H80.606V127.273H84.8484V123.03Z" fill="black"/>
<path d="M97.5757 123.03H93.3333V127.273H97.5757V123.03Z" fill="black"/>
<path d="M101.818 123.03H97.5757V127.273H101.818V123.03Z" fill="black"/>
<path d="M106.061 123.03H101.818V127.273H106.061V123.03Z" fill="black"/>
<path d="M114.545 123.03H110.303V127.273H114.545V123.03Z" fill="black"/>
<path d="M118.788 123.03H114.545V127.273H118.788V123.03Z" fill="black"/>
<path d="M123.03 123.03H118.788V127.273H123.03V123.03Z" fill="black"/>
<path d="M127.273 123.03H123.03V127.273H127.273V123.03Z" fill="black"/>
<path d="M131.515 123.03H127.273V127.273H131.515V123.03Z" fill="black"/>
<path d="M135.758 123.03H131.515V127.273H135.758V123.03Z" fill="black"/>
<path d="M42.4243 127.273H38.1819V131.515H42.4243V127.273Z" fill="black"/>
<path d="M50.9092 127.273H46.6667V131.515H50.9092V127.273Z" fill="black"/>
<path d="M55.1516 127.273H50.9092V131.515H55.1516V127.273Z" fill="black"/>
<path d="M63.6365 127.273H59.394V131.515H63.6365V127.273Z" fill="black"/>
<path d="M72.1213 127.273H67.8789V131.515H72.1213V127.273Z" fill="black"/>
<path d="M80.6059 127.273H76.3635V131.515H80.6059V127.273Z" fill="black"/>
<path d="M84.8484 127.273H80.606V131.515H84.8484V127.273Z" fill="black"/>
<path d="M97.5757 127.273H93.3333V131.515H97.5757V127.273Z" fill="black"/>
<path d="M101.818 127.273H97.5757V131.515H101.818V127.273Z" fill="black"/>
<path d="M106.061 127.273H101.818V131.515H106.061V127.273Z" fill="black"/>
<path d="M114.545 127.273H110.303V131.515H114.545V127.273Z" fill="black"/>
<path d="M118.788 127.273H114.545V131.515H118.788V127.273Z" fill="black"/>
<path d="M123.03 127.273H118.788V131.515H123.03V127.273Z" fill="black"/>
<path d="M50.9092 131.515H46.6667V135.758H50.9092V131.515Z" fill="black"/>
<path d="M63.6365 131.515H59.394V135.758H63.6365V131.515Z" fill="black"/>
<path d="M76.3635 131.515H72.1211V135.758H76.3635V131.515Z" fill="black"/>
<path d="M80.6059 131.515H76.3635V135.758H80.6059V131.515Z" fill="black"/>
<path d="M84.8484 131.515H80.606V135.758H84.8484V131.515Z" fill="black"/>
<path d="M89.0908 131.515H84.8484V135.758H89.0908V131.515Z" fill="black"/>
<path d="M93.3332 131.515H89.0908V135.758H93.3332V131.515Z" fill="black"/>
<path d="M101.818 131.515H97.5757V135.758H101.818V131.515Z" fill="black"/>
<path d="M106.061 131.515H101.818V135.758H106.061V131.515Z" fill="black"/>
<path d="M110.303 131.515H106.061V135.758H110.303V131.515Z" fill="black"/>
<path d="M38.1819 135.758H33.9395V140H38.1819V135.758Z" fill="black"/>
<path d="M42.4243 135.758H38.1819V140H42.4243V135.758Z" fill="black"/>
<path d="M46.6667 135.758H42.4243V140H46.6667V135.758Z" fill="black"/>
<path d="M55.1516 135.758H50.9092V140H55.1516V135.758Z" fill="black"/>
<path d="M59.394 135.758H55.1516V140H59.394V135.758Z" fill="black"/>
<path d="M63.6365 135.758H59.394V140H63.6365V135.758Z" fill="black"/>
<path d="M67.8789 135.758H63.6365V140H67.8789V135.758Z" fill="black"/>
<path d="M72.1213 135.758H67.8789V140H72.1213V135.758Z" fill="black"/>
<path d="M76.3635 135.758H72.1211V140H76.3635V135.758Z" fill="black"/>
<path d="M89.0908 135.758H84.8484V140H89.0908V135.758Z" fill="black"/>
<path d="M93.3332 135.758H89.0908V140H93.3332V135.758Z" fill="black"/>
<path d="M97.5757 135.758H93.3333V140H97.5757V135.758Z" fill="black"/>
<path d="M101.818 135.758H97.5757V140H101.818V135.758Z" fill="black"/>
<path d="M106.061 135.758H101.818V140H106.061V135.758Z" fill="black"/>
<path d="M110.303 135.758H106.061V140H110.303V135.758Z" fill="black"/>
<path d="M114.545 135.758H110.303V140H114.545V135.758Z" fill="black"/>
<path d="M127.273 135.758H123.03V140H127.273V135.758Z" fill="black"/>
<path d="M140 135.758H135.758V140H140V135.758Z" fill="black"/>
<path d="M25.2424 0H4.45455H0V4.45455V25.2424V29.697H4.45455H25.2424H29.697V25.2424V4.45455V0H25.2424ZM25.2424 25.2424H4.45455V4.45455H25.2424V25.2424Z" fill="black"/>
<path d="M135.545 0H114.758H110.303V4.45455V25.2424V29.697H114.758H135.545H140V25.2424V4.45455V0H135.545ZM135.545 25.2424H114.758V4.45455H135.545V25.2424Z" fill="black"/>
<path d="M25.2424 110.303H4.45455H0V114.758V135.545V140H4.45455H25.2424H29.697V135.545V114.758V110.303H25.2424ZM25.2424 135.545H4.45455V114.758H25.2424V135.545Z" fill="black"/>
<path d="M21.2121 8.48486H8.48486V21.2121H21.2121V8.48486Z" fill="black"/>
<path d="M131.515 8.48486H118.788V21.2121H131.515V8.48486Z" fill="black"/>
<path d="M21.2121 118.788H8.48486V131.515H21.2121V118.788Z" fill="black"/>
</svg>
