<svg width="20" height="18" viewBox="0 0 20 18" fill="none" xmlns="http://www.w3.org/2000/svg">
<path d="M18.2949 0.647147C18.2949 0.647147 20.1451 -0.0743033 19.9909 1.67775C19.9395 2.3992 19.477 4.9242 19.1172 7.65535L17.8838 15.7457C17.8838 15.7457 17.781 16.9309 16.8559 17.137C15.9308 17.3431 14.5432 16.4156 14.2862 16.2094C14.0807 16.0549 10.4318 13.7359 9.14695 12.6023C8.7872 12.2931 8.37605 11.6747 9.19835 10.9533L14.5946 5.80025C15.2113 5.18185 15.828 3.739 13.2584 5.49105L6.06337 10.3865C6.06337 10.3865 5.2411 10.9018 3.69932 10.438L0.358774 9.40737C0.358774 9.40737 -0.874663 8.63442 1.23245 7.86142C6.37177 5.43947 12.6931 2.966 18.2949 0.647147Z" fill="white"/>
</svg>
