<svg width="40" height="40" viewBox="0 0 40 40" fill="none" xmlns="http://www.w3.org/2000/svg">
<circle cx="20" cy="20" r="20" fill="#1A1A1A"/>
<path d="M25.036 13.7177C25.036 13.7177 26.5161 13.1405 26.3927 14.5422C26.3516 15.1193 25.9816 17.1393 25.6938 19.3243L24.707 25.7965C24.707 25.7965 24.6248 26.7447 23.8848 26.9096C23.1447 27.0745 22.0346 26.3324 21.829 26.1675C21.6646 26.0439 18.7455 24.1887 17.7176 23.2818C17.4298 23.0345 17.1009 22.5398 17.7587 21.9626L22.0757 17.8402C22.5691 17.3455 23.0625 16.1912 21.0067 17.5928L15.2507 21.5092C15.2507 21.5092 14.5929 21.9214 13.3595 21.5504L10.687 20.7259C10.687 20.7259 9.70029 20.1075 11.386 19.4891C15.4974 17.5516 20.5545 15.5728 25.036 13.7177Z" fill="white"/>
</svg>
