<svg width="17" height="16" viewBox="0 0 17 16" fill="none" xmlns="http://www.w3.org/2000/svg">
<path d="M8.64551 0.0449219C12.9592 0.0450635 16.4548 3.51439 16.4551 7.79395C16.4551 12.0729 12.9593 15.5428 8.64551 15.543C7.27598 15.543 5.9893 15.1927 4.87012 14.5791L4.85352 14.5703L4.83496 14.5762L0.571289 15.9297L1.95996 11.833L1.9668 11.8135L1.95605 11.7949C1.24535 10.6271 0.834961 9.25765 0.834961 7.79395C0.835191 3.51431 4.33233 0.0449219 8.64551 0.0449219ZM8.64551 1.26074C5.01585 1.26074 2.06175 4.19085 2.06152 7.79395C2.06152 9.21542 2.522 10.5316 3.30176 11.6055L2.49219 13.9932L2.46387 14.0771L2.54883 14.0508L5.04102 13.2578C6.07731 13.9331 7.31582 14.3271 8.64551 14.3271C12.2755 14.327 15.2285 11.3963 15.2285 7.79395C15.2283 4.19094 12.2753 1.26088 8.64551 1.26074ZM6.0293 4.02539C6.09414 4.02778 6.15912 4.03443 6.22363 4.04102C6.28783 4.04757 6.35275 4.05453 6.41309 4.05664C6.42932 4.05725 6.44638 4.05607 6.46191 4.05566C6.47793 4.05525 6.49324 4.05508 6.50879 4.05566C6.53978 4.05685 6.57088 4.06159 6.60156 4.07617C6.66221 4.1051 6.73639 4.17879 6.81055 4.37598C6.88658 4.57807 7.01599 4.92737 7.13184 5.23926C7.24664 5.54834 7.34928 5.82408 7.37402 5.87793C7.41793 5.97352 7.44141 6.07471 7.37988 6.18652V6.1875C7.30702 6.31974 7.2726 6.39562 7.17285 6.50293L6.86133 6.83789C6.81068 6.88425 6.74971 6.94009 6.71875 7.01367C6.68603 7.09175 6.68938 7.18291 6.74902 7.29395C6.85934 7.49863 7.23999 8.17026 7.82129 8.72461C8.38051 9.25814 8.88381 9.52565 9.18164 9.66992L9.40527 9.77832C9.50662 9.83362 9.59456 9.86215 9.67676 9.85547C9.76068 9.84864 9.83011 9.80606 9.89551 9.7373C10.0165 9.60935 10.4202 9.1731 10.5635 8.97656C10.629 8.88658 10.6868 8.85793 10.7432 8.85352C10.8045 8.84883 10.8738 8.87122 10.9658 8.9082C11.0537 8.94367 11.3386 9.09056 11.6289 9.24316L12.3066 9.60449C12.4074 9.65912 12.4864 9.69815 12.5488 9.73535C12.5798 9.75382 12.6043 9.77024 12.623 9.78613L12.6641 9.83301C12.6703 9.84425 12.6783 9.87587 12.6807 9.93164C12.6829 9.98505 12.6801 10.0548 12.6699 10.1367C12.6495 10.3004 12.5997 10.511 12.5088 10.7363C12.4221 10.9509 12.1783 11.1632 11.9023 11.3262C11.6268 11.4888 11.333 11.5945 11.1592 11.6035C11.0641 11.6086 10.9863 11.6305 10.9082 11.6436C10.8281 11.6569 10.7338 11.6649 10.5889 11.6455C10.2958 11.6063 9.79574 11.4565 8.79199 11.0205C6.7987 10.1539 5.5987 8.04571 5.5 7.9043C5.45294 7.8369 5.26021 7.56244 5.08398 7.18359C4.90742 6.80401 4.74863 6.32376 4.7666 5.84473C4.80276 4.88436 5.32769 4.43335 5.51855 4.24121C5.69955 4.05971 5.9056 4.02087 6.0293 4.02539Z" fill="white" stroke="white" stroke-width="0.0897122"/>
</svg>
