<svg width="48" height="48" viewBox="0 0 48 48" fill="none" xmlns="http://www.w3.org/2000/svg">
<g id="tripadvisor-icon 1" clip-path="url(#clip0_1058_3623)">
<path id="Vector" d="M24 48C37.2548 48 48 37.2548 48 24C48 10.7452 37.2548 0 24 0C10.7452 0 0 10.7452 0 24C0 37.2548 10.7452 48 24 48Z" fill="#34E0A1"/>
<path id="Vector_2" d="M38.8235 19.3176L41.7197 16.1669H35.2973C32.0821 13.9705 28.1991 12.6914 24 12.6914C19.8059 12.6914 15.9337 13.9734 12.7239 16.1669H6.28564L9.18151 19.3176C7.40634 20.9373 6.29356 23.2705 6.29356 25.8607C6.29356 30.7492 10.2568 34.7125 15.1453 34.7125C17.4677 34.7125 19.5831 33.8168 21.1624 32.3526L23.9996 35.4418L26.8368 32.3555C28.4161 33.8197 30.5294 34.7125 32.8514 34.7125C37.7399 34.7125 41.7086 30.7492 41.7086 25.8607C41.7111 23.2676 40.5983 20.9348 38.8231 19.3176H38.8235ZM15.1479 31.8512C11.8387 31.8512 9.15739 29.1699 9.15739 25.8607C9.15739 22.5515 11.8391 19.8702 15.1479 19.8702C18.457 19.8702 21.1383 22.5519 21.1383 25.8607C21.1383 29.1695 18.4566 31.8512 15.1479 31.8512ZM24.0025 25.6865C24.0025 21.7444 21.1358 18.3604 17.3522 16.915C19.3984 16.0596 21.6427 15.5851 24 15.5851C26.3569 15.5851 28.6041 16.0596 30.6503 16.915C26.8696 18.3633 24.0029 21.7444 24.0029 25.6865H24.0025ZM32.8543 31.8512C29.5451 31.8512 26.8638 29.1699 26.8638 25.8607C26.8638 22.5515 29.5455 19.8702 32.8543 19.8702C36.1634 19.8702 38.8447 22.5519 38.8447 25.8607C38.8447 29.1695 36.1631 31.8512 32.8543 31.8512ZM32.8543 22.7179C31.1191 22.7179 29.714 24.123 29.714 25.8582C29.714 27.593 31.1191 28.9981 32.8543 28.9981C34.5891 28.9981 35.9942 27.593 35.9942 25.8582C35.9942 24.1258 34.5891 22.7179 32.8543 22.7179ZM18.2882 25.8607C18.2882 27.5956 16.8831 29.0007 15.1479 29.0007C13.413 29.0007 12.0079 27.5956 12.0079 25.8607C12.0079 24.1255 13.413 22.7204 15.1479 22.7204C16.8827 22.7179 18.2882 24.1255 18.2882 25.8607Z" fill="black"/>
</g>
<defs>
<clipPath id="clip0_1058_3623">
<rect width="48" height="48" fill="white"/>
</clipPath>
</defs>
</svg>
