<svg width="48" height="48" viewBox="0 0 48 48" fill="none" xmlns="http://www.w3.org/2000/svg">
<g clip-path="url(#clip0_3782_188)">
<path d="M24 0C37.2548 1.03081e-06 48 10.7452 48 24C48 37.2548 37.2548 48 24 48C10.7452 48 1.03088e-06 37.2548 0 24C0 10.7452 10.7452 0 24 0ZM24 12.6914C19.806 12.6914 15.9334 13.9735 12.7236 16.167H6.28613L9.18164 19.3174C7.40654 20.937 6.29404 23.2703 6.29395 25.8604C6.29395 30.7488 10.257 34.7129 15.1455 34.7129C17.4678 34.7128 19.5828 33.8166 21.1621 32.3525L24 35.4414L26.8369 32.3555C28.4162 33.8196 30.5296 34.7129 32.8516 34.7129C37.74 34.7128 41.709 30.7488 41.709 25.8604C41.7114 23.2674 40.5983 20.9344 38.8232 19.3174L41.7197 16.167H35.2969C32.0817 13.9707 28.199 12.6914 24 12.6914ZM15.1475 19.8701C18.4565 19.8701 21.1385 22.5517 21.1387 25.8604C21.1387 29.1691 18.4563 31.8516 15.1475 31.8516C11.8385 31.8514 9.15723 29.1694 9.15723 25.8604C9.15741 22.5515 11.839 19.8703 15.1475 19.8701ZM32.8545 19.8701C36.1634 19.8702 38.8445 22.5518 38.8447 25.8604C38.8447 29.1691 36.1632 31.8514 32.8545 31.8516C29.5453 31.8516 26.8643 29.1695 26.8643 25.8604C26.8644 22.5514 29.5458 19.8701 32.8545 19.8701ZM15.1475 22.7207C13.4129 22.7209 12.008 24.1254 12.0078 25.8604C12.0078 27.5951 13.4128 29.0008 15.1475 29.001C16.8827 29.001 18.2881 27.5952 18.2881 25.8604C18.2879 24.1253 16.8822 22.7182 15.1475 22.7207ZM32.8545 22.7178C31.1193 22.7178 29.7139 24.1232 29.7139 25.8584C29.714 27.5932 31.1193 28.998 32.8545 28.998C34.5892 28.9979 35.994 27.5931 35.9941 25.8584C35.9941 24.1261 34.5892 22.7179 32.8545 22.7178ZM24 15.585C26.3569 15.585 28.6041 16.0597 30.6504 16.915C26.8696 18.3633 24.0029 21.7445 24.0029 25.6865C24.0029 21.7446 21.136 18.3605 17.3525 16.915C19.3987 16.0597 21.6428 15.585 24 15.585Z" fill="white"/>
</g>
<defs>
<clipPath id="clip0_3782_188">
<rect width="48" height="48" fill="white"/>
</clipPath>
</defs>
</svg>
