<svg width="40" height="40" viewBox="0 0 40 40" fill="none" xmlns="http://www.w3.org/2000/svg">
<circle cx="20" cy="20" r="20" fill="#1A1A1A"/>
<g clip-path="url(#clip0_1006_3101)">
<path d="M20.1455 12.0449C24.4592 12.0451 27.9548 15.5144 27.9551 19.7939C27.9551 24.0729 24.4593 27.5428 20.1455 27.543C18.776 27.543 17.4893 27.1927 16.3701 26.5791L16.3535 26.5703L16.335 26.5762L12.0713 27.9297L13.46 23.833L13.4668 23.8135L13.4561 23.7949C12.7453 22.6271 12.335 21.2577 12.335 19.7939C12.3352 15.5143 15.8323 12.0449 20.1455 12.0449ZM17.5322 15.9355C17.3883 15.9303 17.1567 15.9756 16.9551 16.1777H16.9541C16.7627 16.3703 16.2144 16.8435 16.1768 17.8408C16.1581 18.338 16.3216 18.8321 16.5 19.2168C16.6786 19.6019 16.8745 19.882 16.9248 19.9541L16.9258 19.9561C17.0178 20.0879 18.2344 22.2234 20.2568 23.1025C21.2612 23.5388 21.7707 23.6934 22.0771 23.7344C22.2316 23.755 22.3347 23.7462 22.4229 23.7314C22.513 23.7164 22.5752 23.6981 22.6641 23.6934C22.8589 23.6832 23.1675 23.5691 23.4482 23.4033C23.7283 23.2379 23.9947 23.0128 24.0928 22.7695C24.1866 22.5369 24.2374 22.3187 24.2588 22.1475C24.2694 22.062 24.273 21.9871 24.2705 21.9277C24.2681 21.8709 24.2594 21.8211 24.2422 21.79C24.2125 21.7366 24.1589 21.6965 24.0947 21.6582C24.0305 21.6199 23.9456 21.5774 23.8496 21.5254C23.7509 21.4717 23.4591 21.3151 23.1699 21.1631C22.8822 21.0119 22.5922 20.8628 22.499 20.8252C22.4097 20.7893 22.3216 20.7572 22.2363 20.7637C22.1461 20.7707 22.0671 20.8197 21.9912 20.9238C21.8522 21.1145 21.4538 21.545 21.3311 21.6748C21.2748 21.7341 21.2243 21.7621 21.1699 21.7666C21.1136 21.7712 21.0437 21.7523 20.9482 21.7002C20.7478 21.5915 20.1172 21.3608 19.3828 20.6602C18.8121 20.1159 18.4373 19.4544 18.3281 19.252C18.2785 19.1597 18.2815 19.0972 18.3018 19.0488C18.3238 18.9963 18.3687 18.953 18.4219 18.9043V18.9033C18.517 18.8156 18.6369 18.6725 18.7383 18.5635C18.8473 18.4462 18.8872 18.3589 18.958 18.2305C19.0195 18.1192 19.0151 18.0158 18.9883 17.9258L18.9561 17.8408C18.9337 17.7925 18.8321 17.5212 18.7158 17.208C18.6002 16.8967 18.4707 16.5471 18.3945 16.3447C18.3167 16.1379 18.2309 16.0385 18.1396 15.9951C18.0945 15.9737 18.0511 15.9673 18.0127 15.9658C17.9937 15.9651 17.975 15.9654 17.959 15.9658C17.9426 15.9662 17.9288 15.9673 17.916 15.9668L17.7334 15.9512C17.6689 15.9446 17.6007 15.9381 17.5322 15.9355ZM26.6396 19.7939C26.6396 23.3461 23.7266 26.2372 20.1455 26.2373C18.8263 26.2373 17.598 25.8449 16.5723 25.1719L16.5547 25.1602L16.5342 25.167L14.1055 25.9375L14.8945 23.6133L14.9014 23.5908L14.8877 23.5723L14.7461 23.3701C14.101 22.4143 13.706 21.2796 13.6562 20.0576L13.6514 19.7939C13.6516 16.2411 16.5647 13.3506 20.1455 13.3506C23.7264 13.3507 26.6394 16.2411 26.6396 19.7939ZM26.7285 19.7939C26.7283 16.1909 23.7753 13.2609 20.1455 13.2607C16.5158 13.2607 13.5618 16.1909 13.5615 19.7939C13.5615 21.2154 14.022 22.5316 14.8018 23.6055L13.9922 25.9932L13.9639 26.0771L14.0488 26.0508L16.541 25.2578C17.5773 25.9331 18.8158 26.3271 20.1455 26.3271C23.7755 26.327 26.7285 23.3963 26.7285 19.7939Z" fill="white" stroke="white" stroke-width="0.0897122"/>
</g>
<defs>
<clipPath id="clip0_1006_3101">
<rect width="16" height="16" fill="white" transform="translate(12 12)"/>
</clipPath>
</defs>
</svg>
