<svg width="20" height="20" viewBox="0 0 20 20" fill="none" xmlns="http://www.w3.org/2000/svg">
<g clip-path="url(#clip0_3034_194)">
<path fill-rule="evenodd" clip-rule="evenodd" d="M10.1816 17.8528C8.52132 17.8528 6.97546 17.359 5.6845 16.5119L2.54379 17.5098L3.56483 14.4981C2.58618 13.1606 2.00798 11.5181 2.00798 9.74296C2.00798 5.27023 5.67486 1.63171 10.1816 1.63171C14.6886 1.63171 18.3551 5.27023 18.3551 9.74296C18.3551 14.2147 14.6886 17.8528 10.1816 17.8528ZM13.1034 11.0838C13.3298 11.1752 14.5388 11.8223 14.785 11.9562C15.0312 12.0896 15.1955 12.1588 15.2541 12.2644C15.3129 12.3705 15.2945 12.8685 15.0636 13.441C14.8328 14.0135 13.788 14.5364 13.3272 14.5603C12.8668 14.585 12.8536 14.9175 10.3431 13.827C7.83322 12.736 6.32281 10.0837 6.2036 9.91287L6.20197 9.91054C6.07737 9.73212 5.23177 8.5213 5.27755 7.30363C5.32364 6.07963 5.99424 5.5019 6.23298 5.26155C6.47218 5.02164 6.74591 4.96946 6.91323 4.97558C7.0802 4.9817 7.24662 5.00907 7.39296 5.01419C7.53919 5.01986 7.7508 4.94475 7.94088 5.45016C8.13107 5.95567 8.58569 7.19837 8.644 7.32444C8.70231 7.4514 8.7382 7.59828 8.64837 7.76085C8.55855 7.92387 8.51257 8.02602 8.38204 8.16644C8.25151 8.30676 8.10651 8.48068 7.98955 8.5885C7.85947 8.70756 7.72366 8.83708 7.86036 9.09134C7.9974 9.3456 8.46962 10.1785 9.18979 10.8653C10.1149 11.748 10.913 12.041 11.1584 12.1739C11.4046 12.3082 11.5518 12.2931 11.7042 12.1327C11.8563 11.9719 12.3577 11.4299 12.5343 11.1877C12.7113 10.9447 12.8764 10.9926 13.1034 11.0838Z" fill="white"/>
<path fill-rule="evenodd" clip-rule="evenodd" d="M5.6845 16.5119C6.97546 17.359 8.52132 17.8528 10.1816 17.8528C14.6886 17.8528 18.3551 14.2147 18.3551 9.74296C18.3551 5.27023 14.6886 1.63171 10.1816 1.63171C5.67486 1.63171 2.00798 5.27023 2.00798 9.74296C2.00798 11.5181 2.58618 13.1606 3.56483 14.4981L2.54379 17.5098L5.6845 16.5119ZM0.36311 9.74296C0.36311 4.36179 4.75935 0 10.1816 0C15.6045 0 20 4.36179 20 9.74296C20 15.1231 15.6045 19.4854 10.1816 19.4854C8.45998 19.4854 6.8428 19.0451 5.43578 18.2736L0 20L1.77193 14.7733C0.878283 13.3049 0.36311 11.5833 0.36311 9.74296Z" fill="white"/>
</g>
<defs>
<clipPath id="clip0_3034_194">
<rect width="20" height="20" fill="white"/>
</clipPath>
</defs>
</svg>
