<svg width="40" height="40" viewBox="0 0 40 40" fill="none" xmlns="http://www.w3.org/2000/svg">
<circle cx="20" cy="20" r="20" fill="#D9D9D9"/>
<g clip-path="url(#clip0_1006_3094)">
<path fill-rule="evenodd" clip-rule="evenodd" d="M20.1452 26.2822C18.8171 26.2822 17.5804 25.8872 16.5476 25.2095L14.035 26.0079L14.8519 23.5985C14.0689 22.5285 13.6064 21.2145 13.6064 19.7944C13.6064 16.2162 16.5399 13.3054 20.1452 13.3054C23.7509 13.3054 26.6841 16.2162 26.6841 19.7944C26.6841 23.3718 23.7509 26.2822 20.1452 26.2822ZM22.4827 20.867C22.6638 20.9401 23.631 21.4579 23.828 21.5649C24.0249 21.6717 24.1564 21.727 24.2033 21.8115C24.2503 21.8964 24.2356 22.2948 24.0509 22.7528C23.8662 23.2108 23.0304 23.6291 22.6618 23.6482C22.2934 23.668 22.2829 23.934 20.2745 23.0616C18.2666 22.1888 17.0582 20.0669 16.9629 19.9303L16.9616 19.9284C16.8619 19.7857 16.1854 18.817 16.222 17.8429C16.2589 16.8637 16.7954 16.4015 16.9864 16.2092C17.1777 16.0173 17.3967 15.9756 17.5306 15.9805C17.6642 15.9854 17.7973 16.0073 17.9144 16.0114C18.0314 16.0159 18.2006 15.9558 18.3527 16.3601C18.5049 16.7645 18.8685 17.7587 18.9152 17.8596C18.9618 17.9611 18.9906 18.0786 18.9187 18.2087C18.8468 18.3391 18.8101 18.4208 18.7056 18.5332C18.6012 18.6454 18.4852 18.7845 18.3916 18.8708C18.2876 18.9661 18.1789 19.0697 18.2883 19.2731C18.3979 19.4765 18.7757 20.1428 19.3518 20.6922C20.092 21.3984 20.7304 21.6328 20.9267 21.7392C21.1236 21.8466 21.2414 21.8345 21.3634 21.7061C21.485 21.5775 21.8862 21.1439 22.0274 20.9502C22.1691 20.7558 22.3011 20.794 22.4827 20.867Z" fill="#454545"/>
<path fill-rule="evenodd" clip-rule="evenodd" d="M16.5476 25.2095C17.5804 25.8872 18.8171 26.2822 20.1452 26.2822C23.7509 26.2822 26.6841 23.3718 26.6841 19.7944C26.6841 16.2162 23.7509 13.3054 20.1452 13.3054C16.5399 13.3054 13.6064 16.2162 13.6064 19.7944C13.6064 21.2145 14.0689 22.5285 14.8519 23.5985L14.035 26.0079L16.5476 25.2095ZM12.2905 19.7944C12.2905 15.4894 15.8075 12 20.1452 12C24.4836 12 28 15.4894 28 19.7944C28 24.0985 24.4836 27.5883 20.1452 27.5883C18.768 27.5883 17.4742 27.236 16.3486 26.6189L12 28L13.4175 23.8186C12.7026 22.6439 12.2905 21.2666 12.2905 19.7944Z" fill="#454545"/>
</g>
<defs>
<clipPath id="clip0_1006_3094">
<rect width="16" height="16" fill="white" transform="translate(12 12)"/>
</clipPath>
</defs>
</svg>
