<?xml version="1.0" encoding="UTF-8"?>
<svg xmlns="http://www.w3.org/2000/svg" viewBox="0 0 1300 274" fill="none">
    <path d="M0.902832 137C0.902832 146.098 5.2948 155.073 13.8518 163.843C22.4121 172.616 35.0834 181.122 51.4812 189.253C84.2738 205.513 131.784 220.181 190.566 232.509C308.115 257.162 470.55 272.417 650 272.417C829.45 272.417 991.885 257.162 1109.43 232.509C1168.22 220.181 1215.73 205.513 1248.52 189.253C1264.92 181.122 1277.59 172.616 1286.15 163.843C1294.71 155.073 1299.1 146.098 1299.1 137C1299.1 127.902 1294.71 118.927 1286.15 110.157C1277.59 101.384 1264.92 92.8778 1248.52 84.7471C1215.73 68.4873 1168.22 53.8191 1109.43 41.4911C991.885 16.8384 829.45 1.58332 650 1.58332C470.55 1.58332 308.115 16.8384 190.566 41.4911C131.784 53.8191 84.2738 68.4873 51.4812 84.7471C35.0834 92.8778 22.4121 101.384 13.8518 110.157C5.2948 118.927 0.902832 127.902 0.902832 137Z" stroke="#1F4E75" stroke-width="1.80556"/>
    <path fill-rule="evenodd" clip-rule="evenodd" d="M1127.36 45.0894C1128.45 45.3359 1129.54 45.5832 1130.63 45.8313C1044.01 77.4512 868.376 99.0833 665.799 99.0833C453.911 99.0833 271.495 75.4171 189.597 41.4095C190.648 41.1898 191.702 40.9709 192.76 40.7527C218.553 51.1431 253.929 60.5713 296.84 68.6194C391.21 86.3189 521.658 97.2777 665.799 97.2777C809.939 97.2777 940.387 86.3189 1034.76 68.6194C1071.62 61.7061 1102.92 53.7745 1127.36 45.0894ZM951.469 16.9977C877.068 30.2516 768.765 38.5972 648.195 38.5972C528.368 38.5972 420.659 30.3543 346.301 17.2425C348.466 17.0037 350.638 16.7674 352.817 16.5336C355.573 16.9983 358.373 17.4565 361.216 17.9081C434.613 29.5702 536.076 36.7916 648.195 36.7916C760.313 36.7916 861.776 29.5702 935.173 17.9081C938.497 17.38 941.762 16.8429 944.968 16.2971C947.142 16.5282 949.309 16.7617 951.469 16.9977Z" fill="#1F4E75"/>
    <path fill-rule="evenodd" clip-rule="evenodd" d="M1127.36 228.277C1128.45 228.031 1129.54 227.783 1130.63 227.535C1044.01 195.915 868.376 174.283 665.799 174.283C453.911 174.283 271.495 197.95 189.597 231.957C190.648 232.177 191.702 232.396 192.761 232.614C218.553 222.224 253.929 212.795 296.84 204.747C391.21 187.048 521.658 176.089 665.799 176.089C809.939 176.089 940.387 187.048 1034.76 204.747C1071.62 211.66 1102.92 219.592 1127.36 228.277ZM951.469 256.369C877.068 243.115 768.765 234.769 648.195 234.769C528.368 234.769 420.659 243.012 346.301 256.124C348.466 256.363 350.638 256.599 352.817 256.833C355.573 256.368 358.373 255.91 361.216 255.458C434.613 243.796 536.076 236.575 648.195 236.575C760.313 236.575 861.776 243.796 935.173 255.458C938.497 255.987 941.763 256.524 944.968 257.069C947.142 256.838 949.309 256.605 951.469 256.369Z" fill="#1F4E75"/>
    <path d="M532.639 137.451C532.639 212.116 585.098 272.417 649.549 272.417C714 272.417 766.458 212.116 766.458 137.451C766.458 62.787 714 2.48615 649.549 2.48615C585.098 2.48615 532.639 62.787 532.639 137.451Z" stroke="#1F4E75" stroke-width="1.80556"/>
    <path d="M389.097 137.451C389.097 174.463 417.972 208.193 465.16 232.724C512.303 257.231 577.492 272.417 649.549 272.417C721.605 272.417 786.795 257.231 833.938 232.724C881.125 208.193 910 174.463 910 137.451C910 100.44 881.125 66.7101 833.938 42.1792C786.795 17.6715 721.605 2.48615 649.549 2.48615C577.492 2.48615 512.303 17.6715 465.16 42.1792C417.972 66.7101 389.097 100.44 389.097 137.451Z" stroke="#1F4E75" stroke-width="1.80556"/>
    <path d="M174.236 137.451C174.236 155.752 187.243 173.388 211.262 189.589C235.248 205.769 270.017 220.376 313.061 232.657C399.138 257.215 518.105 272.417 649.549 272.417C780.993 272.417 899.959 257.215 986.036 232.657C1029.08 220.376 1063.85 205.769 1087.84 189.589C1111.85 173.388 1124.86 155.752 1124.86 137.451C1124.86 119.151 1111.85 101.515 1087.84 85.3139C1063.85 69.1339 1029.08 54.5273 986.036 42.2463C899.959 17.6879 780.993 2.48615 649.549 2.48615C518.105 2.48615 399.138 17.6879 313.061 42.2463C270.017 54.5273 235.248 69.1339 211.262 85.3139C187.243 101.515 174.236 119.151 174.236 137.451Z" stroke="#1F4E75" stroke-width="1.80556"/>
    <line x1="650.903" y1="1.58337" x2="650.903" y2="273.319" stroke="#1F4E75" stroke-width="1.80556"/>
    <line x1="0.90271" y1="136.097" x2="1300" y2="136.097" stroke="#1F4E75" stroke-width="1.80556"/>
    <path d="M108.067 119.044C103.707 116.118 98.5444 113.819 92.5785 112.147C86.6125 110.474 80.5892 109.638 74.5085 109.638C68.5425 109.638 62.9207 110.335 57.6432 111.729C52.4803 113.052 47.8911 114.933 43.8755 117.372C39.9747 119.81 36.9344 122.667 34.7545 125.941C32.5746 129.146 31.4847 132.63 31.4847 136.392C31.4847 140.084 32.5746 143.568 34.7545 146.842C36.9344 150.047 39.9747 152.869 43.8755 155.307C47.8911 157.746 52.4803 159.662 57.6432 161.055C62.9207 162.449 68.5425 163.145 74.5085 163.145C80.5892 163.145 86.5552 162.379 92.4064 160.846C98.2576 159.244 103.478 157.084 108.067 154.367L120.114 161.996C116.098 164.434 111.509 166.559 106.346 168.371C101.298 170.182 95.963 171.575 90.3412 172.551C84.8342 173.526 79.2124 174.014 73.4759 174.014C64.6417 174.014 56.4385 173.073 48.8663 171.192C41.2941 169.242 34.6398 166.559 28.9033 163.145C23.2815 159.731 18.8644 155.76 15.6519 151.232C12.4395 146.633 10.8333 141.722 10.8333 136.496C10.8333 131.271 12.4395 126.429 15.6519 121.97C18.8644 117.442 23.3388 113.47 29.0753 110.056C34.9266 106.643 41.6383 103.995 49.2105 102.114C56.8974 100.233 65.2153 99.2924 74.1643 99.2924C79.9008 99.2924 85.5226 99.7452 91.0296 100.651C96.5367 101.557 101.757 102.846 106.69 104.518C111.624 106.19 116.041 108.21 119.942 110.579L108.067 119.044Z" fill="#1F4E75"/>
    <path d="M192.156 99.2924C201.105 99.2924 209.423 100.233 217.11 102.114C224.911 103.995 231.68 106.643 237.417 110.056C243.268 113.47 247.8 117.442 251.012 121.97C254.339 126.429 256.003 131.271 256.003 136.496C256.003 141.722 254.339 146.633 251.012 151.232C247.8 155.76 243.268 159.731 237.417 163.145C231.68 166.559 224.911 169.242 217.11 171.192C209.423 173.073 201.105 174.014 192.156 174.014C183.207 174.014 174.831 173.073 167.03 171.192C159.343 169.242 152.574 166.559 146.723 163.145C140.986 159.731 136.454 155.76 133.127 151.232C129.915 146.633 128.308 141.722 128.308 136.496C128.308 131.271 129.915 126.394 133.127 121.866C136.454 117.337 140.986 113.401 146.723 110.056C152.574 106.643 159.343 103.995 167.03 102.114C174.831 100.233 183.207 99.2924 192.156 99.2924ZM192.328 109.743C186.362 109.743 180.74 110.44 175.462 111.833C170.3 113.157 165.71 115.038 161.695 117.476C157.679 119.915 154.524 122.771 152.23 126.046C150.05 129.251 148.96 132.734 148.96 136.496C148.96 140.259 150.107 143.777 152.402 147.051C154.696 150.326 157.851 153.217 161.867 155.725C165.883 158.164 170.472 160.08 175.635 161.473C180.912 162.867 186.477 163.563 192.328 163.563C198.179 163.563 203.686 162.867 208.849 161.473C214.127 160.08 218.716 158.164 222.617 155.725C226.517 153.217 229.558 150.326 231.738 147.051C234.032 143.777 235.18 140.259 235.18 136.496C235.18 132.734 234.032 129.251 231.738 126.046C229.558 122.771 226.517 119.915 222.617 117.476C218.716 115.038 214.127 113.157 208.849 111.833C203.686 110.44 198.179 109.743 192.328 109.743Z" fill="#1F4E75"/>
    <path d="M277.613 100.024H301.19L342.837 149.664L384.14 100.024H407.717V173.178H388.959L388.787 117.267L349.205 165.549H336.298L296.371 117.267V173.178H277.613V100.024Z" fill="#1F4E75"/>
    <path d="M439.457 100.024H459.764V173.178H439.457V100.024Z" fill="#1F4E75"/>
    <path d="M491.388 100.024H511.351L581.049 158.025L575.886 159.07V100.024H595.849V173.178H575.886L506.36 115.282L511.695 114.237V173.178H491.388V100.024Z" fill="#1F4E75"/>
    <path d="M717.003 118.103C712.414 115.456 707.022 113.401 700.826 111.938C694.745 110.405 688.55 109.638 682.24 109.638C676.044 109.638 670.308 110.335 665.03 111.729C659.753 113.122 655.106 115.038 651.091 117.476C647.075 119.915 643.92 122.771 641.625 126.046C639.445 129.251 638.356 132.734 638.356 136.496C638.356 140.259 639.445 143.777 641.625 147.051C643.92 150.326 647.075 153.217 651.091 155.725C655.106 158.164 659.753 160.08 665.03 161.473C670.423 162.867 676.216 163.563 682.412 163.563C688.034 163.563 693.828 162.867 699.794 161.473C705.874 160.08 711.324 158.199 716.143 155.83L727.845 164.399C723.83 166.281 719.183 167.953 713.905 169.416C708.743 170.879 703.35 172.028 697.728 172.864C692.107 173.631 686.542 174.014 681.035 174.014C672.086 174.014 663.768 173.073 656.081 171.192C648.509 169.242 641.797 166.559 635.946 163.145C630.21 159.731 625.735 155.76 622.523 151.232C619.31 146.633 617.704 141.722 617.704 136.496C617.704 131.271 619.31 126.429 622.523 121.97C625.85 117.442 630.439 113.47 636.29 110.056C642.142 106.643 648.968 103.995 656.77 102.114C664.686 100.233 673.176 99.2924 682.24 99.2924C687.976 99.2924 693.598 99.7104 699.105 100.546C704.727 101.382 710.062 102.567 715.11 104.1C720.158 105.632 724.633 107.479 728.533 109.638L717.003 118.103ZM710.119 137.437H727.845V164.399H710.119V137.437Z" fill="#1F4E75"/>
    <path d="M876.287 116.954C871.927 115.282 867.624 113.958 863.379 112.983C859.134 112.007 855.119 111.311 851.333 110.893C847.547 110.474 844.105 110.265 841.007 110.265C835.041 110.265 830.28 110.962 826.723 112.356C823.167 113.749 821.388 115.769 821.388 118.417C821.388 120.786 822.536 122.736 824.83 124.269C827.24 125.732 830.337 126.952 834.123 127.927C838.024 128.833 842.269 129.704 846.858 130.54C851.562 131.376 856.209 132.316 860.798 133.361C865.387 134.337 869.632 135.626 873.533 137.228C877.434 138.83 880.532 140.886 882.826 143.394C885.121 145.832 886.268 148.933 886.268 152.695C886.268 157.014 884.318 160.777 880.417 163.981C876.516 167.117 871.124 169.555 864.24 171.297C857.471 173.039 849.669 173.909 840.835 173.909C834.525 173.909 828.387 173.422 822.421 172.446C816.455 171.401 810.833 170.008 805.555 168.266C800.393 166.524 795.746 164.504 791.616 162.205L800.393 152.068C804.523 154.367 808.883 156.318 813.472 157.92C818.176 159.522 822.88 160.742 827.584 161.578C832.402 162.414 836.934 162.832 841.179 162.832C848.292 162.832 853.799 161.996 857.7 160.324C861.716 158.652 863.724 156.318 863.724 153.322C863.724 150.883 862.519 148.933 860.11 147.469C857.815 145.937 854.717 144.683 850.817 143.707C847.03 142.732 842.785 141.861 838.081 141.095C833.492 140.328 828.846 139.457 824.142 138.482C819.553 137.437 815.308 136.148 811.407 134.615C807.621 133.083 804.523 131.097 802.114 128.658C799.819 126.22 798.672 123.12 798.672 119.357C798.672 115.247 800.507 111.694 804.179 108.698C807.85 105.632 812.956 103.264 819.495 101.592C826.15 99.9194 833.836 99.0834 842.556 99.0834C850.358 99.0834 857.93 99.7801 865.272 101.173C872.615 102.567 879.098 104.378 884.719 106.608L876.287 116.954Z" fill="#1F4E75"/>
    <path d="M963.895 99.2924C972.844 99.2924 981.162 100.233 988.849 102.114C996.651 103.995 1003.42 106.643 1009.16 110.056C1015.01 113.47 1019.54 117.442 1022.75 121.97C1026.08 126.429 1027.74 131.271 1027.74 136.496C1027.74 141.722 1026.08 146.633 1022.75 151.232C1019.54 155.76 1015.01 159.731 1009.16 163.145C1003.42 166.559 996.651 169.242 988.849 171.192C981.162 173.073 972.844 174.014 963.895 174.014C954.946 174.014 946.571 173.073 938.769 171.192C931.082 169.242 924.313 166.559 918.462 163.145C912.726 159.731 908.194 155.76 904.867 151.232C901.654 146.633 900.048 141.722 900.048 136.496C900.048 131.271 901.654 126.394 904.867 121.866C908.194 117.337 912.726 113.401 918.462 110.056C924.313 106.643 931.082 103.995 938.769 102.114C946.571 100.233 954.946 99.2924 963.895 99.2924ZM964.067 109.743C958.101 109.743 952.479 110.44 947.202 111.833C942.039 113.157 937.45 115.038 933.434 117.476C929.419 119.915 926.264 122.771 923.969 126.046C921.789 129.251 920.699 132.734 920.699 136.496C920.699 140.259 921.847 143.777 924.141 147.051C926.436 150.326 929.591 153.217 933.606 155.725C937.622 158.164 942.211 160.08 947.374 161.473C952.652 162.867 958.216 163.563 964.067 163.563C969.919 163.563 975.426 162.867 980.588 161.473C985.866 160.08 990.455 158.164 994.356 155.725C998.257 153.217 1001.3 150.326 1003.48 147.051C1005.77 143.777 1006.92 140.259 1006.92 136.496C1006.92 132.734 1005.77 129.251 1003.48 126.046C1001.3 122.771 998.257 119.915 994.356 117.476C990.455 115.038 985.866 113.157 980.588 111.833C975.426 110.44 969.919 109.743 964.067 109.743Z" fill="#1F4E75"/>
    <path d="M1098.34 99.2924C1107.29 99.2924 1115.61 100.233 1123.3 102.114C1131.1 103.995 1137.87 106.643 1143.61 110.056C1149.46 113.47 1153.99 117.442 1157.2 121.97C1160.53 126.429 1162.19 131.271 1162.19 136.496C1162.19 141.722 1160.53 146.633 1157.2 151.232C1153.99 155.76 1149.46 159.731 1143.61 163.145C1137.87 166.559 1131.1 169.242 1123.3 171.192C1115.61 173.073 1107.29 174.014 1098.34 174.014C1089.4 174.014 1081.02 173.073 1073.22 171.192C1065.53 169.242 1058.76 166.559 1052.91 163.145C1047.17 159.731 1042.64 155.76 1039.32 151.232C1036.1 146.633 1034.5 141.722 1034.5 136.496C1034.5 131.271 1036.1 126.394 1039.32 121.866C1042.64 117.337 1047.17 113.401 1052.91 110.056C1058.76 106.643 1065.53 103.995 1073.22 102.114C1081.02 100.233 1089.4 99.2924 1098.34 99.2924ZM1098.52 109.743C1092.55 109.743 1086.93 110.44 1081.65 111.833C1076.49 113.157 1071.9 115.038 1067.88 117.476C1063.87 119.915 1060.71 122.771 1058.42 126.046C1056.24 129.251 1055.15 132.734 1055.15 136.496C1055.15 140.259 1056.3 143.777 1058.59 147.051C1060.89 150.326 1064.04 153.217 1068.06 155.725C1072.07 158.164 1076.66 160.08 1081.82 161.473C1087.1 162.867 1092.67 163.563 1098.52 163.563C1104.37 163.563 1109.87 162.867 1115.04 161.473C1120.32 160.08 1124.9 158.164 1128.81 155.725C1132.71 153.217 1135.75 150.326 1137.93 147.051C1140.22 143.777 1141.37 140.259 1141.37 136.496C1141.37 132.734 1140.22 129.251 1137.93 126.046C1135.75 122.771 1132.71 119.915 1128.81 117.476C1124.9 115.038 1120.32 113.157 1115.04 111.833C1109.87 110.44 1104.37 109.743 1098.52 109.743Z" fill="#1F4E75"/>
    <path d="M1183.8 100.024H1203.76L1273.46 158.025L1268.3 159.07V100.024H1288.26V173.178H1268.3L1198.77 115.282L1204.11 114.237V173.178H1183.8V100.024Z" fill="#1F4E75"/>
</svg> 