<svg width="203" height="148" viewBox="0 0 203 148" fill="none" xmlns="http://www.w3.org/2000/svg">
<g clip-path="url(#clip0_862_2485)">
<path d="M42.5437 128.264C13.6816 111.295 6.29771 81.0089 8.31801 68.7157C11.2924 42.7639 42.6411 20.3531 75.1278 18.7468C95.2659 17.7512 95.8409 10.785 95.7705 8.92024C95.6018 4.44477 88.1988 -5.48843 51.4468 8.50265C45.6882 10.4377 30.7634 17.6086 17.1269 30.8123C0.0811898 47.3169 -15.1808 85.7666 28.8624 122.484C53.5537 143.068 99.3314 148.031 114.939 146.344C102.518 146.478 67.2829 144.115 42.5437 128.264Z" fill="white"/>
<path d="M197.649 50.6507C191.608 38.9949 179.459 28.6824 173.167 26.2921C188.497 38.2914 191.968 48.1053 192.958 57.1385C194.217 68.6347 190.899 80.1309 184.378 89.9201C177.858 99.7089 161.613 116.441 128.665 124.75C102.307 131.398 78.2514 123.878 69.749 119.401C75.5834 124.181 90.7987 128.507 102.239 130.1C113.8 131.71 129.58 131.808 147.541 127.368C165.502 122.929 186.666 110.067 195.018 95.3835C203.369 80.7 205.199 65.22 197.649 50.6507Z" fill="white"/>
<path d="M49.1035 61.5188C67.8652 35.7946 109.305 43.0985 122.946 48.6394C128.552 50.9159 136.304 54.9795 140.395 59.3561C144.651 63.9091 150.233 71.1939 149.318 83.4871C150.684 71.0164 151.057 63.4272 141.876 53.1148C138.331 49.1309 133.962 45.4693 125.406 41.7133C117.699 38.3301 99.895 32.8351 76.2139 40.1201C65.4089 43.4438 52.1022 53.4877 49.1035 61.5188Z" fill="white"/>
<path d="M155.949 62.2741C156.139 62.2741 156.323 62.346 156.461 62.4753L170.679 75.7253L184.701 62.4792C184.84 62.3476 185.025 62.2742 185.217 62.2741H195.876C196.563 62.2741 196.889 63.1163 196.378 63.5739L176.547 81.3591L176.269 81.61C176.111 81.7514 176.021 81.9524 176.021 82.1638V93.4763C176.021 93.888 175.685 94.2224 175.271 94.2224H165.736C165.322 94.2222 164.986 93.8879 164.986 93.4763V82.1638C164.986 81.9513 164.895 81.7493 164.736 81.6081L164.612 81.4977L144.463 63.5759C143.951 63.1194 144.276 62.2744 144.963 62.2741H155.949Z" fill="white"/>
<path d="M76.8438 62.2741C77.0979 62.2666 101.768 61.5929 101.707 78.2556C101.646 94.9161 77.1034 94.2303 76.8438 94.2224H53.7998C53.386 94.2224 53.0498 93.8884 53.0498 93.4763V63.0202C53.0498 62.6081 53.386 62.2741 53.7998 62.2741H76.8438ZM64.0811 88.5437H72.3438C77.9663 88.5437 90.8262 88.8853 90.8262 78.2898C90.8262 68.3564 80.0175 67.9771 73.5703 67.9685H64.0811V88.5437Z" fill="white"/>
<path d="M127.249 62.2575C127.504 62.2503 152.173 61.576 152.112 78.2389C152.051 94.8995 127.509 94.2133 127.249 94.2057H104.205C103.791 94.2057 103.455 93.8722 103.455 93.4606V63.0036C103.455 62.5918 103.791 62.2575 104.205 62.2575H127.249ZM114.486 88.527H122.749C128.372 88.527 141.231 88.8688 141.231 78.2731C141.231 68.3397 130.423 67.9613 123.976 67.9528H114.486V88.527Z" fill="white"/>
<path d="M50.3325 62.2734C50.7463 62.2734 51.0825 62.6074 51.0825 63.0195V67.4785C51.0825 67.8906 50.7467 68.2246 50.3325 68.2246H20.896V75.0244H48.1118C48.5254 75.0246 48.8607 75.3586 48.8608 75.7705V79.8896C48.8608 80.3013 48.5255 80.6356 48.1118 80.6357H20.8989V88.2881H50.8462C51.2602 88.2882 51.5952 88.6226 51.5952 89.0342V93.4775C51.5952 93.8892 51.2603 94.2235 50.8462 94.2236H10.7007C10.2866 94.2236 9.95068 93.8893 9.95068 93.4775V63.0029C9.95068 62.5909 10.2866 62.2569 10.7007 62.2568L50.3325 62.2734Z" fill="white"/>
<mask id="path-8-outside-1_862_2485" maskUnits="userSpaceOnUse" x="64.1758" y="104.268" width="73" height="8" fill="black">
<rect fill="white" x="64.1758" y="104.268" width="73" height="8"/>
<path d="M65.2302 111.158C65.2001 111.158 65.1758 111.134 65.1758 111.104V105.401C65.1758 105.371 65.2001 105.347 65.2302 105.347H66.1066C66.1366 105.347 66.161 105.371 66.161 105.401V110.349C66.161 110.379 66.1854 110.403 66.2154 110.403H69.0654C69.0955 110.403 69.1198 110.428 69.1198 110.458V111.104C69.1198 111.134 69.0955 111.158 69.0654 111.158H65.2302Z"/>
<path d="M71.3756 111.158C71.3455 111.158 71.3212 111.134 71.3212 111.104V105.401C71.3212 105.371 71.3455 105.347 71.3756 105.347H75.3607C75.3907 105.347 75.4151 105.371 75.4151 105.401V106.047C75.4151 106.077 75.3907 106.102 75.3607 106.102H72.3608C72.3307 106.102 72.3064 106.126 72.3064 106.156V107.818C72.3064 107.848 72.3307 107.872 72.3608 107.872H75.147C75.1771 107.872 75.2015 107.897 75.2015 107.927V108.57C75.2015 108.6 75.1771 108.624 75.147 108.624H72.3608C72.3307 108.624 72.3064 108.649 72.3064 108.679V110.349C72.3064 110.379 72.3307 110.403 72.3608 110.403H75.3989C75.429 110.403 75.4533 110.428 75.4533 110.458V111.104C75.4533 111.134 75.429 111.158 75.3989 111.158H71.3756Z"/>
<path d="M77.5409 106.102C77.5108 106.102 77.4865 106.077 77.4865 106.047V105.401C77.4865 105.371 77.5108 105.347 77.5409 105.347H82.4857C82.5157 105.347 82.5401 105.371 82.5401 105.401V106.047C82.5401 106.077 82.5157 106.102 82.4857 106.102H80.5571C80.5271 106.102 80.5027 106.126 80.5027 106.156V111.104C80.5027 111.134 80.4784 111.158 80.4483 111.158H79.5751C79.545 111.158 79.5207 111.134 79.5207 111.104V106.156C79.5207 106.126 79.4963 106.102 79.4663 106.102H77.5409Z"/>
<path d="M85.4227 105.347C85.4528 105.347 85.4772 105.371 85.4772 105.401V105.892C85.4772 106.053 85.4432 106.222 85.3751 106.4C85.3092 106.576 85.2157 106.745 85.0946 106.908C84.9808 107.06 84.8483 107.193 84.697 107.306C84.6792 107.319 84.655 107.32 84.6363 107.308L84.2456 107.059C84.2186 107.042 84.2123 107.005 84.2313 106.979C84.3416 106.83 84.4381 106.673 84.5206 106.507C84.6142 106.324 84.6609 106.122 84.6609 105.9V105.401C84.6609 105.371 84.6853 105.347 84.7153 105.347H85.4227Z"/>
<path d="M91.2098 106.873C91.1824 106.873 91.1594 106.853 91.1546 106.826C91.1107 106.58 90.9728 106.388 90.741 106.249C90.4944 106.1 90.1841 106.025 89.8099 106.025C89.5421 106.025 89.3104 106.063 89.1149 106.139C88.9193 106.212 88.7673 106.315 88.6589 106.445C88.5527 106.574 88.4995 106.72 88.4995 106.885C88.4995 107.023 88.5356 107.142 88.6079 107.242C88.6823 107.343 88.779 107.427 88.8981 107.495C89.0192 107.561 89.1489 107.617 89.287 107.662C89.4252 107.706 89.5581 107.742 89.6856 107.77L90.3233 107.918C90.5316 107.963 90.7452 108.025 90.9641 108.102C91.1831 108.18 91.3861 108.282 91.5731 108.409C91.7602 108.535 91.9111 108.692 92.0259 108.88C92.1428 109.067 92.2012 109.291 92.2012 109.552C92.2012 109.881 92.1056 110.173 91.9143 110.429C91.7251 110.684 91.4498 110.886 91.0885 111.033C90.7293 111.181 90.2946 111.254 89.7844 111.254C89.2955 111.254 88.8726 111.185 88.5155 111.047C88.1584 110.909 87.8788 110.713 87.6769 110.46C87.4861 110.219 87.376 109.935 87.3465 109.61C87.3437 109.578 87.3686 109.552 87.3999 109.552H88.2808C88.309 109.552 88.3323 109.573 88.3362 109.601C88.3622 109.79 88.4368 109.948 88.5601 110.077C88.6961 110.215 88.8694 110.318 89.0798 110.386C89.2924 110.452 89.5251 110.485 89.7781 110.485C90.0565 110.485 90.3041 110.447 90.521 110.369C90.7399 110.29 90.9121 110.18 91.0375 110.04C91.1629 109.898 91.2256 109.733 91.2256 109.543C91.2256 109.371 91.1703 109.23 91.0598 109.121C90.9514 109.011 90.8037 108.92 90.6166 108.848C90.4317 108.776 90.2223 108.713 89.9885 108.658L89.2169 108.471C88.694 108.344 88.2795 108.158 87.9734 107.912C87.6695 107.666 87.5175 107.341 87.5175 106.936C87.5175 106.601 87.6195 106.309 87.8236 106.059C88.0276 105.809 88.304 105.616 88.6526 105.477C89.0012 105.338 89.3944 105.268 89.8323 105.268C90.2744 105.268 90.6644 105.337 91.0024 105.475C91.3425 105.613 91.6103 105.803 91.8059 106.045C91.9897 106.271 92.0909 106.528 92.1094 106.818C92.1114 106.848 92.0867 106.873 92.0561 106.873H91.2098Z"/>
<path d="M97.964 111.158C97.9339 111.158 97.9096 111.134 97.9096 111.104V105.401C97.9096 105.371 97.9339 105.347 97.964 105.347H100.237C100.745 105.347 101.166 105.429 101.5 105.594C101.833 105.758 102.083 105.983 102.249 106.269C102.415 106.553 102.498 106.873 102.498 107.228C102.498 107.586 102.414 107.907 102.246 108.193C102.08 108.477 101.829 108.702 101.493 108.868C101.16 109.033 100.74 109.115 100.234 109.115H98.6877C98.6577 109.115 98.6333 109.091 98.6333 109.061V108.426C98.6333 108.396 98.6577 108.372 98.6877 108.372H100.145C100.466 108.372 100.726 108.322 100.926 108.224C101.126 108.124 101.272 107.988 101.366 107.816C101.459 107.643 101.506 107.448 101.506 107.228C101.506 107.009 101.459 106.814 101.366 106.644C101.272 106.473 101.125 106.34 100.923 106.244C100.723 106.147 100.459 106.099 100.132 106.099H98.9492C98.9191 106.099 98.8948 106.123 98.8948 106.153V111.104C98.8948 111.134 98.8704 111.158 98.8404 111.158H97.964Z"/>
<path d="M104.603 111.123C104.594 111.144 104.574 111.158 104.552 111.158H103.624C103.585 111.158 103.559 111.119 103.573 111.083L105.879 105.381C105.888 105.36 105.908 105.347 105.93 105.347H106.995C107.017 105.347 107.037 105.36 107.045 105.381L109.351 111.083C109.365 111.119 109.339 111.158 109.3 111.158H108.373C108.35 111.158 108.33 111.144 108.322 111.123L106.499 106.426C106.493 106.412 106.479 106.402 106.464 106.402V106.402C106.448 106.402 106.435 106.412 106.429 106.426L104.603 111.123ZM104.764 108.937C104.764 108.907 104.789 108.882 104.819 108.882H108.102C108.132 108.882 108.157 108.907 108.157 108.937V109.566C108.157 109.596 108.132 109.62 108.102 109.62H104.819C104.789 109.62 104.764 109.596 104.764 109.566V108.937Z"/>
<path d="M113.515 111.158H111.456C111.426 111.158 111.402 111.134 111.402 111.104V105.401C111.402 105.371 111.426 105.347 111.456 105.347H113.582C114.222 105.347 114.772 105.463 115.231 105.696C115.69 105.927 116.042 106.259 116.286 106.692C116.533 107.123 116.656 107.641 116.656 108.244C116.656 108.849 116.532 109.369 116.283 109.805C116.036 110.24 115.679 110.574 115.212 110.809C114.744 111.042 114.179 111.158 113.515 111.158ZM112.387 110.337C112.387 110.367 112.411 110.392 112.441 110.392H113.461C113.959 110.392 114.372 110.309 114.702 110.142C115.031 109.974 115.278 109.731 115.441 109.413C115.605 109.093 115.687 108.704 115.687 108.244C115.687 107.788 115.605 107.401 115.441 107.083C115.28 106.766 115.038 106.524 114.718 106.36C114.397 106.195 113.998 106.113 113.522 106.113H112.441C112.411 106.113 112.387 106.137 112.387 106.167V110.337Z"/>
<path d="M121.073 111.158H119.013C118.983 111.158 118.959 111.134 118.959 111.104V105.401C118.959 105.371 118.983 105.347 119.013 105.347H121.139C121.779 105.347 122.329 105.463 122.788 105.696C123.247 105.927 123.599 106.259 123.843 106.692C124.09 107.123 124.213 107.641 124.213 108.244C124.213 108.849 124.089 109.369 123.84 109.805C123.594 110.24 123.236 110.574 122.769 110.809C122.301 111.042 121.736 111.158 121.073 111.158ZM119.944 110.337C119.944 110.367 119.968 110.392 119.998 110.392H121.018C121.516 110.392 121.929 110.309 122.259 110.142C122.588 109.974 122.835 109.731 122.998 109.413C123.162 109.093 123.244 108.704 123.244 108.244C123.244 107.788 123.162 107.401 122.998 107.083C122.837 106.766 122.596 106.524 122.275 106.36C121.954 106.195 121.555 106.113 121.079 106.113H119.998C119.968 106.113 119.944 106.137 119.944 106.167V110.337Z"/>
<path d="M126.57 111.158C126.54 111.158 126.516 111.134 126.516 111.104V105.401C126.516 105.371 126.54 105.347 126.57 105.347H127.446C127.477 105.347 127.501 105.371 127.501 105.401V110.349C127.501 110.379 127.525 110.403 127.555 110.403H130.405C130.435 110.403 130.46 110.428 130.46 110.458V111.104C130.46 111.134 130.435 111.158 130.405 111.158H126.57Z"/>
<path d="M132.715 111.158C132.685 111.158 132.661 111.134 132.661 111.104V105.401C132.661 105.371 132.685 105.347 132.715 105.347H136.701C136.731 105.347 136.755 105.371 136.755 105.401V106.047C136.755 106.077 136.731 106.102 136.701 106.102H133.701C133.671 106.102 133.646 106.126 133.646 106.156V107.818C133.646 107.848 133.671 107.872 133.701 107.872H136.487C136.517 107.872 136.541 107.897 136.541 107.927V108.57C136.541 108.6 136.517 108.624 136.487 108.624H133.701C133.671 108.624 133.646 108.649 133.646 108.679V110.349C133.646 110.379 133.671 110.403 133.701 110.403H136.739C136.769 110.403 136.793 110.428 136.793 110.458V111.104C136.793 111.134 136.769 111.158 136.739 111.158H132.715Z"/>
</mask>
<path d="M65.2302 111.158C65.2001 111.158 65.1758 111.134 65.1758 111.104V105.401C65.1758 105.371 65.2001 105.347 65.2302 105.347H66.1066C66.1366 105.347 66.161 105.371 66.161 105.401V110.349C66.161 110.379 66.1854 110.403 66.2154 110.403H69.0654C69.0955 110.403 69.1198 110.428 69.1198 110.458V111.104C69.1198 111.134 69.0955 111.158 69.0654 111.158H65.2302Z" fill="white"/>
<path d="M71.3756 111.158C71.3455 111.158 71.3212 111.134 71.3212 111.104V105.401C71.3212 105.371 71.3455 105.347 71.3756 105.347H75.3607C75.3907 105.347 75.4151 105.371 75.4151 105.401V106.047C75.4151 106.077 75.3907 106.102 75.3607 106.102H72.3608C72.3307 106.102 72.3064 106.126 72.3064 106.156V107.818C72.3064 107.848 72.3307 107.872 72.3608 107.872H75.147C75.1771 107.872 75.2015 107.897 75.2015 107.927V108.57C75.2015 108.6 75.1771 108.624 75.147 108.624H72.3608C72.3307 108.624 72.3064 108.649 72.3064 108.679V110.349C72.3064 110.379 72.3307 110.403 72.3608 110.403H75.3989C75.429 110.403 75.4533 110.428 75.4533 110.458V111.104C75.4533 111.134 75.429 111.158 75.3989 111.158H71.3756Z" fill="white"/>
<path d="M77.5409 106.102C77.5108 106.102 77.4865 106.077 77.4865 106.047V105.401C77.4865 105.371 77.5108 105.347 77.5409 105.347H82.4857C82.5157 105.347 82.5401 105.371 82.5401 105.401V106.047C82.5401 106.077 82.5157 106.102 82.4857 106.102H80.5571C80.5271 106.102 80.5027 106.126 80.5027 106.156V111.104C80.5027 111.134 80.4784 111.158 80.4483 111.158H79.5751C79.545 111.158 79.5207 111.134 79.5207 111.104V106.156C79.5207 106.126 79.4963 106.102 79.4663 106.102H77.5409Z" fill="white"/>
<path d="M85.4227 105.347C85.4528 105.347 85.4772 105.371 85.4772 105.401V105.892C85.4772 106.053 85.4432 106.222 85.3751 106.4C85.3092 106.576 85.2157 106.745 85.0946 106.908C84.9808 107.06 84.8483 107.193 84.697 107.306C84.6792 107.319 84.655 107.32 84.6363 107.308L84.2456 107.059C84.2186 107.042 84.2123 107.005 84.2313 106.979C84.3416 106.83 84.4381 106.673 84.5206 106.507C84.6142 106.324 84.6609 106.122 84.6609 105.9V105.401C84.6609 105.371 84.6853 105.347 84.7153 105.347H85.4227Z" fill="white"/>
<path d="M91.2098 106.873C91.1824 106.873 91.1594 106.853 91.1546 106.826C91.1107 106.58 90.9728 106.388 90.741 106.249C90.4944 106.1 90.1841 106.025 89.8099 106.025C89.5421 106.025 89.3104 106.063 89.1149 106.139C88.9193 106.212 88.7673 106.315 88.6589 106.445C88.5527 106.574 88.4995 106.72 88.4995 106.885C88.4995 107.023 88.5356 107.142 88.6079 107.242C88.6823 107.343 88.779 107.427 88.8981 107.495C89.0192 107.561 89.1489 107.617 89.287 107.662C89.4252 107.706 89.5581 107.742 89.6856 107.77L90.3233 107.918C90.5316 107.963 90.7452 108.025 90.9641 108.102C91.1831 108.18 91.3861 108.282 91.5731 108.409C91.7602 108.535 91.9111 108.692 92.0259 108.88C92.1428 109.067 92.2012 109.291 92.2012 109.552C92.2012 109.881 92.1056 110.173 91.9143 110.429C91.7251 110.684 91.4498 110.886 91.0885 111.033C90.7293 111.181 90.2946 111.254 89.7844 111.254C89.2955 111.254 88.8726 111.185 88.5155 111.047C88.1584 110.909 87.8788 110.713 87.6769 110.46C87.4861 110.219 87.376 109.935 87.3465 109.61C87.3437 109.578 87.3686 109.552 87.3999 109.552H88.2808C88.309 109.552 88.3323 109.573 88.3362 109.601C88.3622 109.79 88.4368 109.948 88.5601 110.077C88.6961 110.215 88.8694 110.318 89.0798 110.386C89.2924 110.452 89.5251 110.485 89.7781 110.485C90.0565 110.485 90.3041 110.447 90.521 110.369C90.7399 110.29 90.9121 110.18 91.0375 110.04C91.1629 109.898 91.2256 109.733 91.2256 109.543C91.2256 109.371 91.1703 109.23 91.0598 109.121C90.9514 109.011 90.8037 108.92 90.6166 108.848C90.4317 108.776 90.2223 108.713 89.9885 108.658L89.2169 108.471C88.694 108.344 88.2795 108.158 87.9734 107.912C87.6695 107.666 87.5175 107.341 87.5175 106.936C87.5175 106.601 87.6195 106.309 87.8236 106.059C88.0276 105.809 88.304 105.616 88.6526 105.477C89.0012 105.338 89.3944 105.268 89.8323 105.268C90.2744 105.268 90.6644 105.337 91.0024 105.475C91.3425 105.613 91.6103 105.803 91.8059 106.045C91.9897 106.271 92.0909 106.528 92.1094 106.818C92.1114 106.848 92.0867 106.873 92.0561 106.873H91.2098Z" fill="white"/>
<path d="M97.964 111.158C97.9339 111.158 97.9096 111.134 97.9096 111.104V105.401C97.9096 105.371 97.9339 105.347 97.964 105.347H100.237C100.745 105.347 101.166 105.429 101.5 105.594C101.833 105.758 102.083 105.983 102.249 106.269C102.415 106.553 102.498 106.873 102.498 107.228C102.498 107.586 102.414 107.907 102.246 108.193C102.08 108.477 101.829 108.702 101.493 108.868C101.16 109.033 100.74 109.115 100.234 109.115H98.6877C98.6577 109.115 98.6333 109.091 98.6333 109.061V108.426C98.6333 108.396 98.6577 108.372 98.6877 108.372H100.145C100.466 108.372 100.726 108.322 100.926 108.224C101.126 108.124 101.272 107.988 101.366 107.816C101.459 107.643 101.506 107.448 101.506 107.228C101.506 107.009 101.459 106.814 101.366 106.644C101.272 106.473 101.125 106.34 100.923 106.244C100.723 106.147 100.459 106.099 100.132 106.099H98.9492C98.9191 106.099 98.8948 106.123 98.8948 106.153V111.104C98.8948 111.134 98.8704 111.158 98.8404 111.158H97.964Z" fill="white"/>
<path d="M104.603 111.123C104.594 111.144 104.574 111.158 104.552 111.158H103.624C103.585 111.158 103.559 111.119 103.573 111.083L105.879 105.381C105.888 105.36 105.908 105.347 105.93 105.347H106.995C107.017 105.347 107.037 105.36 107.045 105.381L109.351 111.083C109.365 111.119 109.339 111.158 109.3 111.158H108.373C108.35 111.158 108.33 111.144 108.322 111.123L106.499 106.426C106.493 106.412 106.479 106.402 106.464 106.402V106.402C106.448 106.402 106.435 106.412 106.429 106.426L104.603 111.123ZM104.764 108.937C104.764 108.907 104.789 108.882 104.819 108.882H108.102C108.132 108.882 108.157 108.907 108.157 108.937V109.566C108.157 109.596 108.132 109.62 108.102 109.62H104.819C104.789 109.62 104.764 109.596 104.764 109.566V108.937Z" fill="white"/>
<path d="M113.515 111.158H111.456C111.426 111.158 111.402 111.134 111.402 111.104V105.401C111.402 105.371 111.426 105.347 111.456 105.347H113.582C114.222 105.347 114.772 105.463 115.231 105.696C115.69 105.927 116.042 106.259 116.286 106.692C116.533 107.123 116.656 107.641 116.656 108.244C116.656 108.849 116.532 109.369 116.283 109.805C116.036 110.24 115.679 110.574 115.212 110.809C114.744 111.042 114.179 111.158 113.515 111.158ZM112.387 110.337C112.387 110.367 112.411 110.392 112.441 110.392H113.461C113.959 110.392 114.372 110.309 114.702 110.142C115.031 109.974 115.278 109.731 115.441 109.413C115.605 109.093 115.687 108.704 115.687 108.244C115.687 107.788 115.605 107.401 115.441 107.083C115.28 106.766 115.038 106.524 114.718 106.36C114.397 106.195 113.998 106.113 113.522 106.113H112.441C112.411 106.113 112.387 106.137 112.387 106.167V110.337Z" fill="white"/>
<path d="M121.073 111.158H119.013C118.983 111.158 118.959 111.134 118.959 111.104V105.401C118.959 105.371 118.983 105.347 119.013 105.347H121.139C121.779 105.347 122.329 105.463 122.788 105.696C123.247 105.927 123.599 106.259 123.843 106.692C124.09 107.123 124.213 107.641 124.213 108.244C124.213 108.849 124.089 109.369 123.84 109.805C123.594 110.24 123.236 110.574 122.769 110.809C122.301 111.042 121.736 111.158 121.073 111.158ZM119.944 110.337C119.944 110.367 119.968 110.392 119.998 110.392H121.018C121.516 110.392 121.929 110.309 122.259 110.142C122.588 109.974 122.835 109.731 122.998 109.413C123.162 109.093 123.244 108.704 123.244 108.244C123.244 107.788 123.162 107.401 122.998 107.083C122.837 106.766 122.596 106.524 122.275 106.36C121.954 106.195 121.555 106.113 121.079 106.113H119.998C119.968 106.113 119.944 106.137 119.944 106.167V110.337Z" fill="white"/>
<path d="M126.57 111.158C126.54 111.158 126.516 111.134 126.516 111.104V105.401C126.516 105.371 126.54 105.347 126.57 105.347H127.446C127.477 105.347 127.501 105.371 127.501 105.401V110.349C127.501 110.379 127.525 110.403 127.555 110.403H130.405C130.435 110.403 130.46 110.428 130.46 110.458V111.104C130.46 111.134 130.435 111.158 130.405 111.158H126.57Z" fill="white"/>
<path d="M132.715 111.158C132.685 111.158 132.661 111.134 132.661 111.104V105.401C132.661 105.371 132.685 105.347 132.715 105.347H136.701C136.731 105.347 136.755 105.371 136.755 105.401V106.047C136.755 106.077 136.731 106.102 136.701 106.102H133.701C133.671 106.102 133.646 106.126 133.646 106.156V107.818C133.646 107.848 133.671 107.872 133.701 107.872H136.487C136.517 107.872 136.541 107.897 136.541 107.927V108.57C136.541 108.6 136.517 108.624 136.487 108.624H133.701C133.671 108.624 133.646 108.649 133.646 108.679V110.349C133.646 110.379 133.671 110.403 133.701 110.403H136.739C136.769 110.403 136.793 110.428 136.793 110.458V111.104C136.793 111.134 136.769 111.158 136.739 111.158H132.715Z" fill="white"/>
<path d="M65.2302 111.158C65.2001 111.158 65.1758 111.134 65.1758 111.104V105.401C65.1758 105.371 65.2001 105.347 65.2302 105.347H66.1066C66.1366 105.347 66.161 105.371 66.161 105.401V110.349C66.161 110.379 66.1854 110.403 66.2154 110.403H69.0654C69.0955 110.403 69.1198 110.428 69.1198 110.458V111.104C69.1198 111.134 69.0955 111.158 69.0654 111.158H65.2302Z" stroke="white" stroke-width="0.435294" stroke-linejoin="round" mask="url(#path-8-outside-1_862_2485)"/>
<path d="M71.3756 111.158C71.3455 111.158 71.3212 111.134 71.3212 111.104V105.401C71.3212 105.371 71.3455 105.347 71.3756 105.347H75.3607C75.3907 105.347 75.4151 105.371 75.4151 105.401V106.047C75.4151 106.077 75.3907 106.102 75.3607 106.102H72.3608C72.3307 106.102 72.3064 106.126 72.3064 106.156V107.818C72.3064 107.848 72.3307 107.872 72.3608 107.872H75.147C75.1771 107.872 75.2015 107.897 75.2015 107.927V108.57C75.2015 108.6 75.1771 108.624 75.147 108.624H72.3608C72.3307 108.624 72.3064 108.649 72.3064 108.679V110.349C72.3064 110.379 72.3307 110.403 72.3608 110.403H75.3989C75.429 110.403 75.4533 110.428 75.4533 110.458V111.104C75.4533 111.134 75.429 111.158 75.3989 111.158H71.3756Z" stroke="white" stroke-width="0.435294" stroke-linejoin="round" mask="url(#path-8-outside-1_862_2485)"/>
<path d="M77.5409 106.102C77.5108 106.102 77.4865 106.077 77.4865 106.047V105.401C77.4865 105.371 77.5108 105.347 77.5409 105.347H82.4857C82.5157 105.347 82.5401 105.371 82.5401 105.401V106.047C82.5401 106.077 82.5157 106.102 82.4857 106.102H80.5571C80.5271 106.102 80.5027 106.126 80.5027 106.156V111.104C80.5027 111.134 80.4784 111.158 80.4483 111.158H79.5751C79.545 111.158 79.5207 111.134 79.5207 111.104V106.156C79.5207 106.126 79.4963 106.102 79.4663 106.102H77.5409Z" stroke="white" stroke-width="0.435294" stroke-linejoin="round" mask="url(#path-8-outside-1_862_2485)"/>
<path d="M85.4227 105.347C85.4528 105.347 85.4772 105.371 85.4772 105.401V105.892C85.4772 106.053 85.4432 106.222 85.3751 106.4C85.3092 106.576 85.2157 106.745 85.0946 106.908C84.9808 107.06 84.8483 107.193 84.697 107.306C84.6792 107.319 84.655 107.32 84.6363 107.308L84.2456 107.059C84.2186 107.042 84.2123 107.005 84.2313 106.979C84.3416 106.83 84.4381 106.673 84.5206 106.507C84.6142 106.324 84.6609 106.122 84.6609 105.9V105.401C84.6609 105.371 84.6853 105.347 84.7153 105.347H85.4227Z" stroke="white" stroke-width="0.435294" stroke-linejoin="round" mask="url(#path-8-outside-1_862_2485)"/>
<path d="M91.2098 106.873C91.1824 106.873 91.1594 106.853 91.1546 106.826C91.1107 106.58 90.9728 106.388 90.741 106.249C90.4944 106.1 90.1841 106.025 89.8099 106.025C89.5421 106.025 89.3104 106.063 89.1149 106.139C88.9193 106.212 88.7673 106.315 88.6589 106.445C88.5527 106.574 88.4995 106.72 88.4995 106.885C88.4995 107.023 88.5356 107.142 88.6079 107.242C88.6823 107.343 88.779 107.427 88.8981 107.495C89.0192 107.561 89.1489 107.617 89.287 107.662C89.4252 107.706 89.5581 107.742 89.6856 107.77L90.3233 107.918C90.5316 107.963 90.7452 108.025 90.9641 108.102C91.1831 108.18 91.3861 108.282 91.5731 108.409C91.7602 108.535 91.9111 108.692 92.0259 108.88C92.1428 109.067 92.2012 109.291 92.2012 109.552C92.2012 109.881 92.1056 110.173 91.9143 110.429C91.7251 110.684 91.4498 110.886 91.0885 111.033C90.7293 111.181 90.2946 111.254 89.7844 111.254C89.2955 111.254 88.8726 111.185 88.5155 111.047C88.1584 110.909 87.8788 110.713 87.6769 110.46C87.4861 110.219 87.376 109.935 87.3465 109.61C87.3437 109.578 87.3686 109.552 87.3999 109.552H88.2808C88.309 109.552 88.3323 109.573 88.3362 109.601C88.3622 109.79 88.4368 109.948 88.5601 110.077C88.6961 110.215 88.8694 110.318 89.0798 110.386C89.2924 110.452 89.5251 110.485 89.7781 110.485C90.0565 110.485 90.3041 110.447 90.521 110.369C90.7399 110.29 90.9121 110.18 91.0375 110.04C91.1629 109.898 91.2256 109.733 91.2256 109.543C91.2256 109.371 91.1703 109.23 91.0598 109.121C90.9514 109.011 90.8037 108.92 90.6166 108.848C90.4317 108.776 90.2223 108.713 89.9885 108.658L89.2169 108.471C88.694 108.344 88.2795 108.158 87.9734 107.912C87.6695 107.666 87.5175 107.341 87.5175 106.936C87.5175 106.601 87.6195 106.309 87.8236 106.059C88.0276 105.809 88.304 105.616 88.6526 105.477C89.0012 105.338 89.3944 105.268 89.8323 105.268C90.2744 105.268 90.6644 105.337 91.0024 105.475C91.3425 105.613 91.6103 105.803 91.8059 106.045C91.9897 106.271 92.0909 106.528 92.1094 106.818C92.1114 106.848 92.0867 106.873 92.0561 106.873H91.2098Z" stroke="white" stroke-width="0.435294" stroke-linejoin="round" mask="url(#path-8-outside-1_862_2485)"/>
<path d="M97.964 111.158C97.9339 111.158 97.9096 111.134 97.9096 111.104V105.401C97.9096 105.371 97.9339 105.347 97.964 105.347H100.237C100.745 105.347 101.166 105.429 101.5 105.594C101.833 105.758 102.083 105.983 102.249 106.269C102.415 106.553 102.498 106.873 102.498 107.228C102.498 107.586 102.414 107.907 102.246 108.193C102.08 108.477 101.829 108.702 101.493 108.868C101.16 109.033 100.74 109.115 100.234 109.115H98.6877C98.6577 109.115 98.6333 109.091 98.6333 109.061V108.426C98.6333 108.396 98.6577 108.372 98.6877 108.372H100.145C100.466 108.372 100.726 108.322 100.926 108.224C101.126 108.124 101.272 107.988 101.366 107.816C101.459 107.643 101.506 107.448 101.506 107.228C101.506 107.009 101.459 106.814 101.366 106.644C101.272 106.473 101.125 106.34 100.923 106.244C100.723 106.147 100.459 106.099 100.132 106.099H98.9492C98.9191 106.099 98.8948 106.123 98.8948 106.153V111.104C98.8948 111.134 98.8704 111.158 98.8404 111.158H97.964Z" stroke="white" stroke-width="0.435294" stroke-linejoin="round" mask="url(#path-8-outside-1_862_2485)"/>
<path d="M104.603 111.123C104.594 111.144 104.574 111.158 104.552 111.158H103.624C103.585 111.158 103.559 111.119 103.573 111.083L105.879 105.381C105.888 105.36 105.908 105.347 105.93 105.347H106.995C107.017 105.347 107.037 105.36 107.045 105.381L109.351 111.083C109.365 111.119 109.339 111.158 109.3 111.158H108.373C108.35 111.158 108.33 111.144 108.322 111.123L106.499 106.426C106.493 106.412 106.479 106.402 106.464 106.402V106.402C106.448 106.402 106.435 106.412 106.429 106.426L104.603 111.123ZM104.764 108.937C104.764 108.907 104.789 108.882 104.819 108.882H108.102C108.132 108.882 108.157 108.907 108.157 108.937V109.566C108.157 109.596 108.132 109.62 108.102 109.62H104.819C104.789 109.62 104.764 109.596 104.764 109.566V108.937Z" stroke="white" stroke-width="0.435294" stroke-linejoin="round" mask="url(#path-8-outside-1_862_2485)"/>
<path d="M113.515 111.158H111.456C111.426 111.158 111.402 111.134 111.402 111.104V105.401C111.402 105.371 111.426 105.347 111.456 105.347H113.582C114.222 105.347 114.772 105.463 115.231 105.696C115.69 105.927 116.042 106.259 116.286 106.692C116.533 107.123 116.656 107.641 116.656 108.244C116.656 108.849 116.532 109.369 116.283 109.805C116.036 110.24 115.679 110.574 115.212 110.809C114.744 111.042 114.179 111.158 113.515 111.158ZM112.387 110.337C112.387 110.367 112.411 110.392 112.441 110.392H113.461C113.959 110.392 114.372 110.309 114.702 110.142C115.031 109.974 115.278 109.731 115.441 109.413C115.605 109.093 115.687 108.704 115.687 108.244C115.687 107.788 115.605 107.401 115.441 107.083C115.28 106.766 115.038 106.524 114.718 106.36C114.397 106.195 113.998 106.113 113.522 106.113H112.441C112.411 106.113 112.387 106.137 112.387 106.167V110.337Z" stroke="white" stroke-width="0.435294" stroke-linejoin="round" mask="url(#path-8-outside-1_862_2485)"/>
<path d="M121.073 111.158H119.013C118.983 111.158 118.959 111.134 118.959 111.104V105.401C118.959 105.371 118.983 105.347 119.013 105.347H121.139C121.779 105.347 122.329 105.463 122.788 105.696C123.247 105.927 123.599 106.259 123.843 106.692C124.09 107.123 124.213 107.641 124.213 108.244C124.213 108.849 124.089 109.369 123.84 109.805C123.594 110.24 123.236 110.574 122.769 110.809C122.301 111.042 121.736 111.158 121.073 111.158ZM119.944 110.337C119.944 110.367 119.968 110.392 119.998 110.392H121.018C121.516 110.392 121.929 110.309 122.259 110.142C122.588 109.974 122.835 109.731 122.998 109.413C123.162 109.093 123.244 108.704 123.244 108.244C123.244 107.788 123.162 107.401 122.998 107.083C122.837 106.766 122.596 106.524 122.275 106.36C121.954 106.195 121.555 106.113 121.079 106.113H119.998C119.968 106.113 119.944 106.137 119.944 106.167V110.337Z" stroke="white" stroke-width="0.435294" stroke-linejoin="round" mask="url(#path-8-outside-1_862_2485)"/>
<path d="M126.57 111.158C126.54 111.158 126.516 111.134 126.516 111.104V105.401C126.516 105.371 126.54 105.347 126.57 105.347H127.446C127.477 105.347 127.501 105.371 127.501 105.401V110.349C127.501 110.379 127.525 110.403 127.555 110.403H130.405C130.435 110.403 130.46 110.428 130.46 110.458V111.104C130.46 111.134 130.435 111.158 130.405 111.158H126.57Z" stroke="white" stroke-width="0.435294" stroke-linejoin="round" mask="url(#path-8-outside-1_862_2485)"/>
<path d="M132.715 111.158C132.685 111.158 132.661 111.134 132.661 111.104V105.401C132.661 105.371 132.685 105.347 132.715 105.347H136.701C136.731 105.347 136.755 105.371 136.755 105.401V106.047C136.755 106.077 136.731 106.102 136.701 106.102H133.701C133.671 106.102 133.646 106.126 133.646 106.156V107.818C133.646 107.848 133.671 107.872 133.701 107.872H136.487C136.517 107.872 136.541 107.897 136.541 107.927V108.57C136.541 108.6 136.517 108.624 136.487 108.624H133.701C133.671 108.624 133.646 108.649 133.646 108.679V110.349C133.646 110.379 133.671 110.403 133.701 110.403H136.739C136.769 110.403 136.793 110.428 136.793 110.458V111.104C136.793 111.134 136.769 111.158 136.739 111.158H132.715Z" stroke="white" stroke-width="0.435294" stroke-linejoin="round" mask="url(#path-8-outside-1_862_2485)"/>
</g>
<defs>
<clipPath id="clip0_862_2485">
<rect width="202.412" height="145.824" fill="white" transform="translate(0 1.08823)"/>
</clipPath>
</defs>
</svg>
