<svg width="28" height="18" viewBox="0 0 28 18" fill="none" xmlns="http://www.w3.org/2000/svg">
<path d="M25.7114 5.24263L28 2.74977H22.925C20.3843 1.01201 17.316 0 13.9979 0C10.6837 0 7.62392 1.01429 5.08755 2.74977H0L2.28831 5.24263C0.88557 6.52409 0.00625848 8.37009 0.00625848 10.4195C0.00625848 14.2872 3.13804 17.4229 7.00092 17.4229C8.83607 17.4229 10.5076 16.7143 11.7556 15.5559L13.9976 18L16.2395 15.5581C17.4875 16.7165 19.1574 17.4229 20.9922 17.4229C24.8551 17.4229 27.9912 14.2872 27.9912 10.4195C27.9932 8.36781 27.1141 6.5221 25.7114 5.24263ZM7.00292 15.1591C4.38802 15.1591 2.26925 13.0376 2.26925 10.4195C2.26925 7.80128 4.38831 5.67985 7.00292 5.67985C9.61781 5.67985 11.7366 7.80157 11.7366 10.4195C11.7366 13.0374 9.61752 15.1591 7.00292 15.1591ZM13.9999 10.2816C13.9999 7.16269 11.7346 4.48526 8.74475 3.34166C10.3617 2.66489 12.1351 2.28949 13.9979 2.28949C15.8603 2.28949 17.636 2.66489 19.253 3.34166C16.2654 4.48754 13.9999 7.16269 13.9999 10.2816ZM20.9945 15.1591C18.3796 15.1591 16.2609 13.0376 16.2609 10.4195C16.2609 7.80128 18.3799 5.67985 20.9945 5.67985C23.6094 5.67985 25.7282 7.80157 25.7282 10.4195C25.7282 13.0374 23.6091 15.1591 20.9945 15.1591ZM20.9945 7.93288C19.6234 7.93288 18.5131 9.04458 18.5131 10.4175C18.5131 11.7901 19.6234 12.9018 20.9945 12.9018C22.3654 12.9018 23.4757 11.7901 23.4757 10.4175C23.4757 9.04686 22.3654 7.93288 20.9945 7.93288ZM9.48439 10.4195C9.48439 11.7921 8.37408 12.9038 7.00292 12.9038C5.63203 12.9038 4.52173 11.7921 4.52173 10.4195C4.52173 9.04657 5.63203 7.93487 7.00292 7.93487C8.3738 7.93288 9.48439 9.04657 9.48439 10.4195Z" fill="#373737"/>
</svg>
